G04 EAGLE Gerber RS-274X export*
G75*
%MOMM*%
%FSLAX34Y34*%
%LPD*%
%INBottom Copper*%
%IPPOS*%
%AMOC8*
5,1,8,0,0,1.08239X$1,22.5*%
G01*
G04 Define Apertures*
%ADD10C,1.400000*%
%ADD11C,1.524000*%
%ADD12C,1.260000*%
%ADD13C,1.308000*%
%ADD14C,1.308000*%
%ADD15R,1.320800X1.320800*%
%ADD16C,1.320800*%
%ADD17R,1.108000X1.108000*%
%ADD18C,1.397000*%
%ADD19C,2.705100*%
%ADD20C,4.216400*%
%ADD21C,2.324100*%
%ADD22C,1.879600*%
%ADD23C,0.152400*%
%ADD24C,0.756400*%
%ADD25C,0.508000*%
%ADD26C,1.016000*%
G36*
X710441Y-2138D02*
X708460Y-2540D01*
X2540Y-2540D01*
X709Y-2198D01*
X-994Y-1109D01*
X-2138Y559D01*
X-2540Y2540D01*
X-2540Y458204D01*
X-2227Y459959D01*
X-1165Y461679D01*
X484Y462849D01*
X2459Y463283D01*
X4447Y462912D01*
X5162Y462438D01*
X6655Y461820D01*
X11938Y461820D01*
X11938Y470662D01*
X20780Y470662D01*
X20780Y475945D01*
X20393Y476879D01*
X19679Y477593D01*
X18922Y477907D01*
X17420Y478868D01*
X16237Y480507D01*
X15788Y482479D01*
X16143Y484469D01*
X17246Y486163D01*
X18922Y487293D01*
X19679Y487607D01*
X20393Y488321D01*
X20780Y489255D01*
X20780Y494538D01*
X11938Y494538D01*
X11938Y496062D01*
X20780Y496062D01*
X20780Y501345D01*
X20393Y502279D01*
X19679Y502993D01*
X18922Y503307D01*
X17420Y504268D01*
X16237Y505907D01*
X15788Y507879D01*
X16143Y509869D01*
X17246Y511563D01*
X18922Y512693D01*
X19679Y513007D01*
X20393Y513721D01*
X20780Y514655D01*
X20780Y519938D01*
X11938Y519938D01*
X11938Y521462D01*
X20780Y521462D01*
X20780Y526745D01*
X20393Y527679D01*
X19679Y528393D01*
X18922Y528707D01*
X17420Y529668D01*
X16237Y531307D01*
X15788Y533279D01*
X16143Y535269D01*
X17246Y536963D01*
X18922Y538093D01*
X19679Y538407D01*
X20393Y539121D01*
X20780Y540055D01*
X20780Y545338D01*
X11938Y545338D01*
X11938Y546862D01*
X20780Y546862D01*
X20780Y552145D01*
X20393Y553079D01*
X19679Y553793D01*
X18922Y554107D01*
X17420Y555068D01*
X16237Y556707D01*
X15788Y558679D01*
X16143Y560669D01*
X17246Y562363D01*
X18922Y563493D01*
X19679Y563807D01*
X20393Y564521D01*
X20780Y565455D01*
X20780Y570738D01*
X11938Y570738D01*
X11938Y572262D01*
X20780Y572262D01*
X20780Y577545D01*
X20393Y578479D01*
X19679Y579193D01*
X18922Y579507D01*
X17420Y580468D01*
X16237Y582107D01*
X15788Y584079D01*
X16143Y586069D01*
X17246Y587763D01*
X18922Y588893D01*
X19679Y589207D01*
X20393Y589921D01*
X20780Y590855D01*
X20780Y596138D01*
X11938Y596138D01*
X11938Y597662D01*
X20780Y597662D01*
X20780Y602945D01*
X20393Y603879D01*
X19679Y604593D01*
X18922Y604907D01*
X17420Y605868D01*
X16237Y607507D01*
X15788Y609479D01*
X16143Y611469D01*
X17246Y613163D01*
X18922Y614293D01*
X19679Y614607D01*
X20393Y615321D01*
X20780Y616255D01*
X20780Y621538D01*
X11938Y621538D01*
X11938Y623062D01*
X20780Y623062D01*
X20780Y628345D01*
X20393Y629279D01*
X19679Y629993D01*
X18922Y630307D01*
X17420Y631268D01*
X16237Y632907D01*
X15788Y634879D01*
X16143Y636869D01*
X17246Y638563D01*
X18922Y639693D01*
X19679Y640007D01*
X20393Y640721D01*
X20780Y641655D01*
X20780Y646938D01*
X11938Y646938D01*
X11938Y648462D01*
X20780Y648462D01*
X20780Y653745D01*
X20393Y654679D01*
X19679Y655393D01*
X18922Y655707D01*
X17420Y656668D01*
X16237Y658307D01*
X15788Y660279D01*
X16143Y662269D01*
X17246Y663963D01*
X18922Y665093D01*
X19679Y665407D01*
X20393Y666121D01*
X20780Y667055D01*
X20780Y672338D01*
X11938Y672338D01*
X11938Y673862D01*
X20780Y673862D01*
X20780Y679145D01*
X20393Y680079D01*
X19679Y680793D01*
X18922Y681107D01*
X17420Y682068D01*
X16237Y683707D01*
X15788Y685679D01*
X16143Y687669D01*
X17246Y689363D01*
X18922Y690493D01*
X19679Y690807D01*
X20393Y691521D01*
X20780Y692455D01*
X20780Y697738D01*
X11938Y697738D01*
X11938Y706580D01*
X6655Y706580D01*
X5282Y706011D01*
X4669Y705584D01*
X2702Y705119D01*
X709Y705458D01*
X-994Y706547D01*
X-2138Y708215D01*
X-2540Y710196D01*
X-2540Y743460D01*
X-2198Y745291D01*
X-1109Y746994D01*
X559Y748138D01*
X2540Y748540D01*
X708460Y748540D01*
X710291Y748198D01*
X711994Y747109D01*
X713138Y745441D01*
X713540Y743460D01*
X713540Y708959D01*
X713227Y707204D01*
X712165Y705484D01*
X710516Y704314D01*
X708541Y703880D01*
X706553Y704251D01*
X704951Y705312D01*
X704343Y705564D01*
X692657Y705564D01*
X692097Y705332D01*
X691668Y704903D01*
X691436Y704343D01*
X691436Y692657D01*
X691668Y692097D01*
X692097Y691668D01*
X692657Y691436D01*
X704343Y691436D01*
X704941Y691684D01*
X706331Y692653D01*
X708298Y693118D01*
X710291Y692779D01*
X711994Y691689D01*
X713138Y690022D01*
X713540Y688041D01*
X713540Y683559D01*
X713227Y681804D01*
X712165Y680084D01*
X710516Y678914D01*
X708541Y678480D01*
X706553Y678851D01*
X704951Y679912D01*
X704343Y680164D01*
X692657Y680164D01*
X692097Y679932D01*
X691668Y679503D01*
X691436Y678943D01*
X691436Y667257D01*
X691668Y666697D01*
X692097Y666268D01*
X692657Y666036D01*
X704343Y666036D01*
X704941Y666284D01*
X706331Y667253D01*
X708298Y667718D01*
X710291Y667379D01*
X711994Y666289D01*
X713138Y664622D01*
X713540Y662641D01*
X713540Y658159D01*
X713227Y656404D01*
X712165Y654684D01*
X710516Y653514D01*
X708541Y653080D01*
X706553Y653451D01*
X704951Y654512D01*
X704343Y654764D01*
X692657Y654764D01*
X692097Y654532D01*
X691668Y654103D01*
X691436Y653543D01*
X691436Y641857D01*
X691668Y641297D01*
X692097Y640868D01*
X692657Y640636D01*
X704343Y640636D01*
X704941Y640884D01*
X706331Y641853D01*
X708298Y642318D01*
X710291Y641979D01*
X711994Y640889D01*
X713138Y639222D01*
X713540Y637241D01*
X713540Y632759D01*
X713227Y631004D01*
X712165Y629284D01*
X710516Y628114D01*
X708541Y627680D01*
X706553Y628051D01*
X704951Y629112D01*
X704343Y629364D01*
X692657Y629364D01*
X692097Y629132D01*
X691668Y628703D01*
X691436Y628143D01*
X691436Y616457D01*
X691668Y615897D01*
X692097Y615468D01*
X692657Y615236D01*
X704343Y615236D01*
X704941Y615484D01*
X706331Y616453D01*
X708298Y616918D01*
X710291Y616579D01*
X711994Y615489D01*
X713138Y613822D01*
X713540Y611841D01*
X713540Y607359D01*
X713227Y605604D01*
X712165Y603884D01*
X710516Y602714D01*
X708541Y602280D01*
X706553Y602651D01*
X704951Y603712D01*
X704343Y603964D01*
X692657Y603964D01*
X692097Y603732D01*
X691668Y603303D01*
X691436Y602743D01*
X691436Y591057D01*
X691668Y590497D01*
X692097Y590068D01*
X692657Y589836D01*
X704343Y589836D01*
X704941Y590084D01*
X706331Y591053D01*
X708298Y591518D01*
X710291Y591179D01*
X711994Y590089D01*
X713138Y588422D01*
X713540Y586441D01*
X713540Y581959D01*
X713227Y580204D01*
X712165Y578484D01*
X710516Y577314D01*
X708541Y576880D01*
X706553Y577251D01*
X704951Y578312D01*
X704343Y578564D01*
X692657Y578564D01*
X692097Y578332D01*
X691668Y577903D01*
X691436Y577343D01*
X691436Y565657D01*
X691668Y565097D01*
X692097Y564668D01*
X692657Y564436D01*
X704343Y564436D01*
X704941Y564684D01*
X706331Y565653D01*
X708298Y566118D01*
X710291Y565779D01*
X711994Y564689D01*
X713138Y563022D01*
X713540Y561041D01*
X713540Y556559D01*
X713227Y554804D01*
X712165Y553084D01*
X710516Y551914D01*
X708541Y551480D01*
X706553Y551851D01*
X704951Y552912D01*
X704343Y553164D01*
X692657Y553164D01*
X692097Y552932D01*
X691668Y552503D01*
X691436Y551943D01*
X691436Y540257D01*
X691668Y539697D01*
X692097Y539268D01*
X692657Y539036D01*
X704343Y539036D01*
X704941Y539284D01*
X706331Y540253D01*
X708298Y540718D01*
X710291Y540379D01*
X711994Y539289D01*
X713138Y537622D01*
X713540Y535641D01*
X713540Y531159D01*
X713227Y529404D01*
X712165Y527684D01*
X710516Y526514D01*
X708541Y526080D01*
X706553Y526451D01*
X704951Y527512D01*
X704343Y527764D01*
X692657Y527764D01*
X692097Y527532D01*
X691668Y527103D01*
X691436Y526543D01*
X691436Y514857D01*
X691668Y514297D01*
X692097Y513868D01*
X692657Y513636D01*
X704343Y513636D01*
X704941Y513884D01*
X706331Y514853D01*
X708298Y515318D01*
X710291Y514979D01*
X711994Y513889D01*
X713138Y512222D01*
X713540Y510241D01*
X713540Y505759D01*
X713227Y504004D01*
X712165Y502284D01*
X710516Y501114D01*
X708541Y500680D01*
X706553Y501051D01*
X704951Y502112D01*
X704343Y502364D01*
X692657Y502364D01*
X692097Y502132D01*
X691668Y501703D01*
X691436Y501143D01*
X691436Y489457D01*
X691668Y488897D01*
X692097Y488468D01*
X692657Y488236D01*
X704343Y488236D01*
X704941Y488484D01*
X706331Y489453D01*
X708298Y489918D01*
X710291Y489579D01*
X711994Y488489D01*
X713138Y486822D01*
X713540Y484841D01*
X713540Y480359D01*
X713227Y478604D01*
X712165Y476884D01*
X710516Y475714D01*
X708541Y475280D01*
X706553Y475651D01*
X704951Y476712D01*
X704343Y476964D01*
X692657Y476964D01*
X692097Y476732D01*
X691668Y476303D01*
X691436Y475743D01*
X691436Y464057D01*
X691668Y463497D01*
X692097Y463068D01*
X692657Y462836D01*
X704343Y462836D01*
X704941Y463084D01*
X706331Y464053D01*
X708298Y464518D01*
X710291Y464179D01*
X711994Y463089D01*
X713138Y461422D01*
X713540Y459441D01*
X713540Y2540D01*
X713198Y709D01*
X712109Y-994D01*
X710441Y-2138D01*
G37*
%LPC*%
G36*
X13462Y699262D02*
X20780Y699262D01*
X20780Y704545D01*
X20393Y705479D01*
X19679Y706193D01*
X18745Y706580D01*
X13462Y706580D01*
X13462Y699262D01*
G37*
G36*
X32257Y691436D02*
X43943Y691436D01*
X44503Y691668D01*
X44932Y692097D01*
X45164Y692657D01*
X45164Y704343D01*
X44932Y704903D01*
X44503Y705332D01*
X43943Y705564D01*
X32257Y705564D01*
X31697Y705332D01*
X31268Y704903D01*
X31036Y704343D01*
X31036Y692657D01*
X31268Y692097D01*
X31697Y691668D01*
X32257Y691436D01*
G37*
G36*
X641857Y691436D02*
X653543Y691436D01*
X654103Y691668D01*
X654532Y692097D01*
X654764Y692657D01*
X654764Y704343D01*
X654532Y704903D01*
X654103Y705332D01*
X653543Y705564D01*
X641857Y705564D01*
X641297Y705332D01*
X640868Y704903D01*
X640636Y704343D01*
X640636Y692657D01*
X640868Y692097D01*
X641297Y691668D01*
X641857Y691436D01*
G37*
G36*
X616457Y691436D02*
X628143Y691436D01*
X628703Y691668D01*
X629132Y692097D01*
X629364Y692657D01*
X629364Y704343D01*
X629132Y704903D01*
X628703Y705332D01*
X628143Y705564D01*
X616457Y705564D01*
X615897Y705332D01*
X615468Y704903D01*
X615236Y704343D01*
X615236Y692657D01*
X615468Y692097D01*
X615897Y691668D01*
X616457Y691436D01*
G37*
G36*
X591057Y691436D02*
X602743Y691436D01*
X603303Y691668D01*
X603732Y692097D01*
X603964Y692657D01*
X603964Y704343D01*
X603732Y704903D01*
X603303Y705332D01*
X602743Y705564D01*
X591057Y705564D01*
X590497Y705332D01*
X590068Y704903D01*
X589836Y704343D01*
X589836Y692657D01*
X590068Y692097D01*
X590497Y691668D01*
X591057Y691436D01*
G37*
G36*
X133857Y691436D02*
X145543Y691436D01*
X146103Y691668D01*
X146532Y692097D01*
X146764Y692657D01*
X146764Y704343D01*
X146532Y704903D01*
X146103Y705332D01*
X145543Y705564D01*
X133857Y705564D01*
X133297Y705332D01*
X132868Y704903D01*
X132636Y704343D01*
X132636Y692657D01*
X132868Y692097D01*
X133297Y691668D01*
X133857Y691436D01*
G37*
G36*
X540257Y691436D02*
X551943Y691436D01*
X552503Y691668D01*
X552932Y692097D01*
X553164Y692657D01*
X553164Y704343D01*
X552932Y704903D01*
X552503Y705332D01*
X551943Y705564D01*
X540257Y705564D01*
X539697Y705332D01*
X539268Y704903D01*
X539036Y704343D01*
X539036Y692657D01*
X539268Y692097D01*
X539697Y691668D01*
X540257Y691436D01*
G37*
G36*
X260857Y691436D02*
X272543Y691436D01*
X273103Y691668D01*
X273532Y692097D01*
X273764Y692657D01*
X273764Y704343D01*
X273532Y704903D01*
X273103Y705332D01*
X272543Y705564D01*
X260857Y705564D01*
X260297Y705332D01*
X259868Y704903D01*
X259636Y704343D01*
X259636Y692657D01*
X259868Y692097D01*
X260297Y691668D01*
X260857Y691436D01*
G37*
G36*
X489457Y691436D02*
X501143Y691436D01*
X501703Y691668D01*
X502132Y692097D01*
X502364Y692657D01*
X502364Y704343D01*
X502132Y704903D01*
X501703Y705332D01*
X501143Y705564D01*
X489457Y705564D01*
X488897Y705332D01*
X488468Y704903D01*
X488236Y704343D01*
X488236Y692657D01*
X488468Y692097D01*
X488897Y691668D01*
X489457Y691436D01*
G37*
G36*
X565657Y691436D02*
X577343Y691436D01*
X577903Y691668D01*
X578332Y692097D01*
X578564Y692657D01*
X578564Y704343D01*
X578332Y704903D01*
X577903Y705332D01*
X577343Y705564D01*
X565657Y705564D01*
X565097Y705332D01*
X564668Y704903D01*
X564436Y704343D01*
X564436Y692657D01*
X564668Y692097D01*
X565097Y691668D01*
X565657Y691436D01*
G37*
G36*
X210057Y691436D02*
X221743Y691436D01*
X222303Y691668D01*
X222732Y692097D01*
X222964Y692657D01*
X222964Y704343D01*
X222732Y704903D01*
X222303Y705332D01*
X221743Y705564D01*
X210057Y705564D01*
X209497Y705332D01*
X209068Y704903D01*
X208836Y704343D01*
X208836Y692657D01*
X209068Y692097D01*
X209497Y691668D01*
X210057Y691436D01*
G37*
G36*
X184657Y691436D02*
X196343Y691436D01*
X196903Y691668D01*
X197332Y692097D01*
X197564Y692657D01*
X197564Y704343D01*
X197332Y704903D01*
X196903Y705332D01*
X196343Y705564D01*
X184657Y705564D01*
X184097Y705332D01*
X183668Y704903D01*
X183436Y704343D01*
X183436Y692657D01*
X183668Y692097D01*
X184097Y691668D01*
X184657Y691436D01*
G37*
G36*
X438657Y691436D02*
X450343Y691436D01*
X450903Y691668D01*
X451332Y692097D01*
X451564Y692657D01*
X451564Y704343D01*
X451332Y704903D01*
X450903Y705332D01*
X450343Y705564D01*
X438657Y705564D01*
X438097Y705332D01*
X437668Y704903D01*
X437436Y704343D01*
X437436Y692657D01*
X437668Y692097D01*
X438097Y691668D01*
X438657Y691436D01*
G37*
G36*
X159257Y691436D02*
X170943Y691436D01*
X171503Y691668D01*
X171932Y692097D01*
X172164Y692657D01*
X172164Y704343D01*
X171932Y704903D01*
X171503Y705332D01*
X170943Y705564D01*
X159257Y705564D01*
X158697Y705332D01*
X158268Y704903D01*
X158036Y704343D01*
X158036Y692657D01*
X158268Y692097D01*
X158697Y691668D01*
X159257Y691436D01*
G37*
G36*
X514857Y691436D02*
X526543Y691436D01*
X527103Y691668D01*
X527532Y692097D01*
X527764Y692657D01*
X527764Y704343D01*
X527532Y704903D01*
X527103Y705332D01*
X526543Y705564D01*
X514857Y705564D01*
X514297Y705332D01*
X513868Y704903D01*
X513636Y704343D01*
X513636Y692657D01*
X513868Y692097D01*
X514297Y691668D01*
X514857Y691436D01*
G37*
G36*
X413257Y691436D02*
X424943Y691436D01*
X425503Y691668D01*
X425932Y692097D01*
X426164Y692657D01*
X426164Y704343D01*
X425932Y704903D01*
X425503Y705332D01*
X424943Y705564D01*
X413257Y705564D01*
X412697Y705332D01*
X412268Y704903D01*
X412036Y704343D01*
X412036Y692657D01*
X412268Y692097D01*
X412697Y691668D01*
X413257Y691436D01*
G37*
G36*
X235457Y691436D02*
X247143Y691436D01*
X247703Y691668D01*
X248132Y692097D01*
X248364Y692657D01*
X248364Y704343D01*
X248132Y704903D01*
X247703Y705332D01*
X247143Y705564D01*
X235457Y705564D01*
X234897Y705332D01*
X234468Y704903D01*
X234236Y704343D01*
X234236Y692657D01*
X234468Y692097D01*
X234897Y691668D01*
X235457Y691436D01*
G37*
G36*
X667257Y691436D02*
X678943Y691436D01*
X679503Y691668D01*
X679932Y692097D01*
X680164Y692657D01*
X680164Y704343D01*
X679932Y704903D01*
X679503Y705332D01*
X678943Y705564D01*
X667257Y705564D01*
X666697Y705332D01*
X666268Y704903D01*
X666036Y704343D01*
X666036Y692657D01*
X666268Y692097D01*
X666697Y691668D01*
X667257Y691436D01*
G37*
G36*
X387857Y691436D02*
X399543Y691436D01*
X400103Y691668D01*
X400532Y692097D01*
X400764Y692657D01*
X400764Y704343D01*
X400532Y704903D01*
X400103Y705332D01*
X399543Y705564D01*
X387857Y705564D01*
X387297Y705332D01*
X386868Y704903D01*
X386636Y704343D01*
X386636Y692657D01*
X386868Y692097D01*
X387297Y691668D01*
X387857Y691436D01*
G37*
G36*
X362457Y691436D02*
X374143Y691436D01*
X374703Y691668D01*
X375132Y692097D01*
X375364Y692657D01*
X375364Y704343D01*
X375132Y704903D01*
X374703Y705332D01*
X374143Y705564D01*
X362457Y705564D01*
X361897Y705332D01*
X361468Y704903D01*
X361236Y704343D01*
X361236Y692657D01*
X361468Y692097D01*
X361897Y691668D01*
X362457Y691436D01*
G37*
G36*
X464057Y691436D02*
X475743Y691436D01*
X476303Y691668D01*
X476732Y692097D01*
X476964Y692657D01*
X476964Y704343D01*
X476732Y704903D01*
X476303Y705332D01*
X475743Y705564D01*
X464057Y705564D01*
X463497Y705332D01*
X463068Y704903D01*
X462836Y704343D01*
X462836Y692657D01*
X463068Y692097D01*
X463497Y691668D01*
X464057Y691436D01*
G37*
G36*
X286257Y691436D02*
X297943Y691436D01*
X298503Y691668D01*
X298932Y692097D01*
X299164Y692657D01*
X299164Y704343D01*
X298932Y704903D01*
X298503Y705332D01*
X297943Y705564D01*
X286257Y705564D01*
X285697Y705332D01*
X285268Y704903D01*
X285036Y704343D01*
X285036Y692657D01*
X285268Y692097D01*
X285697Y691668D01*
X286257Y691436D01*
G37*
G36*
X108457Y691436D02*
X120143Y691436D01*
X120703Y691668D01*
X121132Y692097D01*
X121364Y692657D01*
X121364Y704343D01*
X121132Y704903D01*
X120703Y705332D01*
X120143Y705564D01*
X108457Y705564D01*
X107897Y705332D01*
X107468Y704903D01*
X107236Y704343D01*
X107236Y692657D01*
X107468Y692097D01*
X107897Y691668D01*
X108457Y691436D01*
G37*
G36*
X83057Y691436D02*
X94743Y691436D01*
X95303Y691668D01*
X95732Y692097D01*
X95964Y692657D01*
X95964Y704343D01*
X95732Y704903D01*
X95303Y705332D01*
X94743Y705564D01*
X83057Y705564D01*
X82497Y705332D01*
X82068Y704903D01*
X81836Y704343D01*
X81836Y692657D01*
X82068Y692097D01*
X82497Y691668D01*
X83057Y691436D01*
G37*
G36*
X57657Y691436D02*
X69343Y691436D01*
X69903Y691668D01*
X70332Y692097D01*
X70564Y692657D01*
X70564Y704343D01*
X70332Y704903D01*
X69903Y705332D01*
X69343Y705564D01*
X57657Y705564D01*
X57097Y705332D01*
X56668Y704903D01*
X56436Y704343D01*
X56436Y692657D01*
X56668Y692097D01*
X57097Y691668D01*
X57657Y691436D01*
G37*
G36*
X337057Y691436D02*
X348743Y691436D01*
X349303Y691668D01*
X349732Y692097D01*
X349964Y692657D01*
X349964Y704343D01*
X349732Y704903D01*
X349303Y705332D01*
X348743Y705564D01*
X337057Y705564D01*
X336497Y705332D01*
X336068Y704903D01*
X335836Y704343D01*
X335836Y692657D01*
X336068Y692097D01*
X336497Y691668D01*
X337057Y691436D01*
G37*
G36*
X311657Y691436D02*
X323343Y691436D01*
X323903Y691668D01*
X324332Y692097D01*
X324564Y692657D01*
X324564Y704343D01*
X324332Y704903D01*
X323903Y705332D01*
X323343Y705564D01*
X311657Y705564D01*
X311097Y705332D01*
X310668Y704903D01*
X310436Y704343D01*
X310436Y692657D01*
X310668Y692097D01*
X311097Y691668D01*
X311657Y691436D01*
G37*
G36*
X464057Y666036D02*
X475743Y666036D01*
X476303Y666268D01*
X476732Y666697D01*
X476964Y667257D01*
X476964Y678943D01*
X476732Y679503D01*
X476303Y679932D01*
X475743Y680164D01*
X464057Y680164D01*
X463497Y679932D01*
X463068Y679503D01*
X462836Y678943D01*
X462836Y667257D01*
X463068Y666697D01*
X463497Y666268D01*
X464057Y666036D01*
G37*
G36*
X286257Y666036D02*
X297943Y666036D01*
X298503Y666268D01*
X298932Y666697D01*
X299164Y667257D01*
X299164Y678943D01*
X298932Y679503D01*
X298503Y679932D01*
X297943Y680164D01*
X286257Y680164D01*
X285697Y679932D01*
X285268Y679503D01*
X285036Y678943D01*
X285036Y667257D01*
X285268Y666697D01*
X285697Y666268D01*
X286257Y666036D01*
G37*
G36*
X438657Y666036D02*
X450343Y666036D01*
X450903Y666268D01*
X451332Y666697D01*
X451564Y667257D01*
X451564Y678943D01*
X451332Y679503D01*
X450903Y679932D01*
X450343Y680164D01*
X438657Y680164D01*
X438097Y679932D01*
X437668Y679503D01*
X437436Y678943D01*
X437436Y667257D01*
X437668Y666697D01*
X438097Y666268D01*
X438657Y666036D01*
G37*
G36*
X413257Y666036D02*
X424943Y666036D01*
X425503Y666268D01*
X425932Y666697D01*
X426164Y667257D01*
X426164Y678943D01*
X425932Y679503D01*
X425503Y679932D01*
X424943Y680164D01*
X413257Y680164D01*
X412697Y679932D01*
X412268Y679503D01*
X412036Y678943D01*
X412036Y667257D01*
X412268Y666697D01*
X412697Y666268D01*
X413257Y666036D01*
G37*
G36*
X387857Y666036D02*
X399543Y666036D01*
X400103Y666268D01*
X400532Y666697D01*
X400764Y667257D01*
X400764Y678943D01*
X400532Y679503D01*
X400103Y679932D01*
X399543Y680164D01*
X387857Y680164D01*
X387297Y679932D01*
X386868Y679503D01*
X386636Y678943D01*
X386636Y667257D01*
X386868Y666697D01*
X387297Y666268D01*
X387857Y666036D01*
G37*
G36*
X362457Y666036D02*
X374143Y666036D01*
X374703Y666268D01*
X375132Y666697D01*
X375364Y667257D01*
X375364Y678943D01*
X375132Y679503D01*
X374703Y679932D01*
X374143Y680164D01*
X362457Y680164D01*
X361897Y679932D01*
X361468Y679503D01*
X361236Y678943D01*
X361236Y667257D01*
X361468Y666697D01*
X361897Y666268D01*
X362457Y666036D01*
G37*
G36*
X337057Y666036D02*
X348743Y666036D01*
X349303Y666268D01*
X349732Y666697D01*
X349964Y667257D01*
X349964Y678943D01*
X349732Y679503D01*
X349303Y679932D01*
X348743Y680164D01*
X337057Y680164D01*
X336497Y679932D01*
X336068Y679503D01*
X335836Y678943D01*
X335836Y667257D01*
X336068Y666697D01*
X336497Y666268D01*
X337057Y666036D01*
G37*
G36*
X311657Y666036D02*
X323343Y666036D01*
X323903Y666268D01*
X324332Y666697D01*
X324564Y667257D01*
X324564Y678943D01*
X324332Y679503D01*
X323903Y679932D01*
X323343Y680164D01*
X311657Y680164D01*
X311097Y679932D01*
X310668Y679503D01*
X310436Y678943D01*
X310436Y667257D01*
X310668Y666697D01*
X311097Y666268D01*
X311657Y666036D01*
G37*
G36*
X260857Y666036D02*
X272543Y666036D01*
X273103Y666268D01*
X273532Y666697D01*
X273764Y667257D01*
X273764Y678943D01*
X273532Y679503D01*
X273103Y679932D01*
X272543Y680164D01*
X260857Y680164D01*
X260297Y679932D01*
X259868Y679503D01*
X259636Y678943D01*
X259636Y667257D01*
X259868Y666697D01*
X260297Y666268D01*
X260857Y666036D01*
G37*
G36*
X235457Y666036D02*
X247143Y666036D01*
X247703Y666268D01*
X248132Y666697D01*
X248364Y667257D01*
X248364Y678943D01*
X248132Y679503D01*
X247703Y679932D01*
X247143Y680164D01*
X235457Y680164D01*
X234897Y679932D01*
X234468Y679503D01*
X234236Y678943D01*
X234236Y667257D01*
X234468Y666697D01*
X234897Y666268D01*
X235457Y666036D01*
G37*
G36*
X210057Y666036D02*
X221743Y666036D01*
X222303Y666268D01*
X222732Y666697D01*
X222964Y667257D01*
X222964Y678943D01*
X222732Y679503D01*
X222303Y679932D01*
X221743Y680164D01*
X210057Y680164D01*
X209497Y679932D01*
X209068Y679503D01*
X208836Y678943D01*
X208836Y667257D01*
X209068Y666697D01*
X209497Y666268D01*
X210057Y666036D01*
G37*
G36*
X184657Y666036D02*
X196343Y666036D01*
X196903Y666268D01*
X197332Y666697D01*
X197564Y667257D01*
X197564Y678943D01*
X197332Y679503D01*
X196903Y679932D01*
X196343Y680164D01*
X184657Y680164D01*
X184097Y679932D01*
X183668Y679503D01*
X183436Y678943D01*
X183436Y667257D01*
X183668Y666697D01*
X184097Y666268D01*
X184657Y666036D01*
G37*
G36*
X159257Y666036D02*
X170943Y666036D01*
X171503Y666268D01*
X171932Y666697D01*
X172164Y667257D01*
X172164Y678943D01*
X171932Y679503D01*
X171503Y679932D01*
X170943Y680164D01*
X159257Y680164D01*
X158697Y679932D01*
X158268Y679503D01*
X158036Y678943D01*
X158036Y667257D01*
X158268Y666697D01*
X158697Y666268D01*
X159257Y666036D01*
G37*
G36*
X133857Y666036D02*
X145543Y666036D01*
X146103Y666268D01*
X146532Y666697D01*
X146764Y667257D01*
X146764Y678943D01*
X146532Y679503D01*
X146103Y679932D01*
X145543Y680164D01*
X133857Y680164D01*
X133297Y679932D01*
X132868Y679503D01*
X132636Y678943D01*
X132636Y667257D01*
X132868Y666697D01*
X133297Y666268D01*
X133857Y666036D01*
G37*
G36*
X108457Y666036D02*
X120143Y666036D01*
X120703Y666268D01*
X121132Y666697D01*
X121364Y667257D01*
X121364Y678943D01*
X121132Y679503D01*
X120703Y679932D01*
X120143Y680164D01*
X108457Y680164D01*
X107897Y679932D01*
X107468Y679503D01*
X107236Y678943D01*
X107236Y667257D01*
X107468Y666697D01*
X107897Y666268D01*
X108457Y666036D01*
G37*
G36*
X83057Y666036D02*
X94743Y666036D01*
X95303Y666268D01*
X95732Y666697D01*
X95964Y667257D01*
X95964Y678943D01*
X95732Y679503D01*
X95303Y679932D01*
X94743Y680164D01*
X83057Y680164D01*
X82497Y679932D01*
X82068Y679503D01*
X81836Y678943D01*
X81836Y667257D01*
X82068Y666697D01*
X82497Y666268D01*
X83057Y666036D01*
G37*
G36*
X57657Y666036D02*
X69343Y666036D01*
X69903Y666268D01*
X70332Y666697D01*
X70564Y667257D01*
X70564Y678943D01*
X70332Y679503D01*
X69903Y679932D01*
X69343Y680164D01*
X57657Y680164D01*
X57097Y679932D01*
X56668Y679503D01*
X56436Y678943D01*
X56436Y667257D01*
X56668Y666697D01*
X57097Y666268D01*
X57657Y666036D01*
G37*
G36*
X565657Y666036D02*
X577343Y666036D01*
X577903Y666268D01*
X578332Y666697D01*
X578564Y667257D01*
X578564Y678943D01*
X578332Y679503D01*
X577903Y679932D01*
X577343Y680164D01*
X565657Y680164D01*
X565097Y679932D01*
X564668Y679503D01*
X564436Y678943D01*
X564436Y667257D01*
X564668Y666697D01*
X565097Y666268D01*
X565657Y666036D01*
G37*
G36*
X667257Y666036D02*
X678943Y666036D01*
X679503Y666268D01*
X679932Y666697D01*
X680164Y667257D01*
X680164Y678943D01*
X679932Y679503D01*
X679503Y679932D01*
X678943Y680164D01*
X667257Y680164D01*
X666697Y679932D01*
X666268Y679503D01*
X666036Y678943D01*
X666036Y667257D01*
X666268Y666697D01*
X666697Y666268D01*
X667257Y666036D01*
G37*
G36*
X641857Y666036D02*
X653543Y666036D01*
X654103Y666268D01*
X654532Y666697D01*
X654764Y667257D01*
X654764Y678943D01*
X654532Y679503D01*
X654103Y679932D01*
X653543Y680164D01*
X641857Y680164D01*
X641297Y679932D01*
X640868Y679503D01*
X640636Y678943D01*
X640636Y667257D01*
X640868Y666697D01*
X641297Y666268D01*
X641857Y666036D01*
G37*
G36*
X616457Y666036D02*
X628143Y666036D01*
X628703Y666268D01*
X629132Y666697D01*
X629364Y667257D01*
X629364Y678943D01*
X629132Y679503D01*
X628703Y679932D01*
X628143Y680164D01*
X616457Y680164D01*
X615897Y679932D01*
X615468Y679503D01*
X615236Y678943D01*
X615236Y667257D01*
X615468Y666697D01*
X615897Y666268D01*
X616457Y666036D01*
G37*
G36*
X591057Y666036D02*
X602743Y666036D01*
X603303Y666268D01*
X603732Y666697D01*
X603964Y667257D01*
X603964Y678943D01*
X603732Y679503D01*
X603303Y679932D01*
X602743Y680164D01*
X591057Y680164D01*
X590497Y679932D01*
X590068Y679503D01*
X589836Y678943D01*
X589836Y667257D01*
X590068Y666697D01*
X590497Y666268D01*
X591057Y666036D01*
G37*
G36*
X32257Y666036D02*
X43943Y666036D01*
X44503Y666268D01*
X44932Y666697D01*
X45164Y667257D01*
X45164Y678943D01*
X44932Y679503D01*
X44503Y679932D01*
X43943Y680164D01*
X32257Y680164D01*
X31697Y679932D01*
X31268Y679503D01*
X31036Y678943D01*
X31036Y667257D01*
X31268Y666697D01*
X31697Y666268D01*
X32257Y666036D01*
G37*
G36*
X540257Y666036D02*
X551943Y666036D01*
X552503Y666268D01*
X552932Y666697D01*
X553164Y667257D01*
X553164Y678943D01*
X552932Y679503D01*
X552503Y679932D01*
X551943Y680164D01*
X540257Y680164D01*
X539697Y679932D01*
X539268Y679503D01*
X539036Y678943D01*
X539036Y667257D01*
X539268Y666697D01*
X539697Y666268D01*
X540257Y666036D01*
G37*
G36*
X514857Y666036D02*
X526543Y666036D01*
X527103Y666268D01*
X527532Y666697D01*
X527764Y667257D01*
X527764Y678943D01*
X527532Y679503D01*
X527103Y679932D01*
X526543Y680164D01*
X514857Y680164D01*
X514297Y679932D01*
X513868Y679503D01*
X513636Y678943D01*
X513636Y667257D01*
X513868Y666697D01*
X514297Y666268D01*
X514857Y666036D01*
G37*
G36*
X489457Y666036D02*
X501143Y666036D01*
X501703Y666268D01*
X502132Y666697D01*
X502364Y667257D01*
X502364Y678943D01*
X502132Y679503D01*
X501703Y679932D01*
X501143Y680164D01*
X489457Y680164D01*
X488897Y679932D01*
X488468Y679503D01*
X488236Y678943D01*
X488236Y667257D01*
X488468Y666697D01*
X488897Y666268D01*
X489457Y666036D01*
G37*
G36*
X235457Y640636D02*
X247143Y640636D01*
X247703Y640868D01*
X248132Y641297D01*
X248364Y641857D01*
X248364Y653543D01*
X248132Y654103D01*
X247703Y654532D01*
X247143Y654764D01*
X235457Y654764D01*
X234897Y654532D01*
X234468Y654103D01*
X234236Y653543D01*
X234236Y641857D01*
X234468Y641297D01*
X234897Y640868D01*
X235457Y640636D01*
G37*
G36*
X387857Y640636D02*
X399543Y640636D01*
X400103Y640868D01*
X400532Y641297D01*
X400764Y641857D01*
X400764Y653543D01*
X400532Y654103D01*
X400103Y654532D01*
X399543Y654764D01*
X387857Y654764D01*
X387297Y654532D01*
X386868Y654103D01*
X386636Y653543D01*
X386636Y641857D01*
X386868Y641297D01*
X387297Y640868D01*
X387857Y640636D01*
G37*
G36*
X362457Y640636D02*
X374143Y640636D01*
X374703Y640868D01*
X375132Y641297D01*
X375364Y641857D01*
X375364Y653543D01*
X375132Y654103D01*
X374703Y654532D01*
X374143Y654764D01*
X362457Y654764D01*
X361897Y654532D01*
X361468Y654103D01*
X361236Y653543D01*
X361236Y641857D01*
X361468Y641297D01*
X361897Y640868D01*
X362457Y640636D01*
G37*
G36*
X337057Y640636D02*
X348743Y640636D01*
X349303Y640868D01*
X349732Y641297D01*
X349964Y641857D01*
X349964Y653543D01*
X349732Y654103D01*
X349303Y654532D01*
X348743Y654764D01*
X337057Y654764D01*
X336497Y654532D01*
X336068Y654103D01*
X335836Y653543D01*
X335836Y641857D01*
X336068Y641297D01*
X336497Y640868D01*
X337057Y640636D01*
G37*
G36*
X311657Y640636D02*
X323343Y640636D01*
X323903Y640868D01*
X324332Y641297D01*
X324564Y641857D01*
X324564Y653543D01*
X324332Y654103D01*
X323903Y654532D01*
X323343Y654764D01*
X311657Y654764D01*
X311097Y654532D01*
X310668Y654103D01*
X310436Y653543D01*
X310436Y641857D01*
X310668Y641297D01*
X311097Y640868D01*
X311657Y640636D01*
G37*
G36*
X286257Y640636D02*
X297943Y640636D01*
X298503Y640868D01*
X298932Y641297D01*
X299164Y641857D01*
X299164Y653543D01*
X298932Y654103D01*
X298503Y654532D01*
X297943Y654764D01*
X286257Y654764D01*
X285697Y654532D01*
X285268Y654103D01*
X285036Y653543D01*
X285036Y641857D01*
X285268Y641297D01*
X285697Y640868D01*
X286257Y640636D01*
G37*
G36*
X260857Y640636D02*
X272543Y640636D01*
X273103Y640868D01*
X273532Y641297D01*
X273764Y641857D01*
X273764Y653543D01*
X273532Y654103D01*
X273103Y654532D01*
X272543Y654764D01*
X260857Y654764D01*
X260297Y654532D01*
X259868Y654103D01*
X259636Y653543D01*
X259636Y641857D01*
X259868Y641297D01*
X260297Y640868D01*
X260857Y640636D01*
G37*
G36*
X210057Y640636D02*
X221743Y640636D01*
X222303Y640868D01*
X222732Y641297D01*
X222964Y641857D01*
X222964Y653543D01*
X222732Y654103D01*
X222303Y654532D01*
X221743Y654764D01*
X210057Y654764D01*
X209497Y654532D01*
X209068Y654103D01*
X208836Y653543D01*
X208836Y641857D01*
X209068Y641297D01*
X209497Y640868D01*
X210057Y640636D01*
G37*
G36*
X184657Y640636D02*
X196343Y640636D01*
X196903Y640868D01*
X197332Y641297D01*
X197564Y641857D01*
X197564Y653543D01*
X197332Y654103D01*
X196903Y654532D01*
X196343Y654764D01*
X184657Y654764D01*
X184097Y654532D01*
X183668Y654103D01*
X183436Y653543D01*
X183436Y641857D01*
X183668Y641297D01*
X184097Y640868D01*
X184657Y640636D01*
G37*
G36*
X32257Y640636D02*
X43943Y640636D01*
X44503Y640868D01*
X44932Y641297D01*
X45164Y641857D01*
X45164Y653543D01*
X44932Y654103D01*
X44503Y654532D01*
X43943Y654764D01*
X32257Y654764D01*
X31697Y654532D01*
X31268Y654103D01*
X31036Y653543D01*
X31036Y641857D01*
X31268Y641297D01*
X31697Y640868D01*
X32257Y640636D01*
G37*
G36*
X133857Y640636D02*
X145543Y640636D01*
X146103Y640868D01*
X146532Y641297D01*
X146764Y641857D01*
X146764Y653543D01*
X146532Y654103D01*
X146103Y654532D01*
X145543Y654764D01*
X133857Y654764D01*
X133297Y654532D01*
X132868Y654103D01*
X132636Y653543D01*
X132636Y641857D01*
X132868Y641297D01*
X133297Y640868D01*
X133857Y640636D01*
G37*
G36*
X108457Y640636D02*
X120143Y640636D01*
X120703Y640868D01*
X121132Y641297D01*
X121364Y641857D01*
X121364Y653543D01*
X121132Y654103D01*
X120703Y654532D01*
X120143Y654764D01*
X108457Y654764D01*
X107897Y654532D01*
X107468Y654103D01*
X107236Y653543D01*
X107236Y641857D01*
X107468Y641297D01*
X107897Y640868D01*
X108457Y640636D01*
G37*
G36*
X83057Y640636D02*
X94743Y640636D01*
X95303Y640868D01*
X95732Y641297D01*
X95964Y641857D01*
X95964Y653543D01*
X95732Y654103D01*
X95303Y654532D01*
X94743Y654764D01*
X83057Y654764D01*
X82497Y654532D01*
X82068Y654103D01*
X81836Y653543D01*
X81836Y641857D01*
X82068Y641297D01*
X82497Y640868D01*
X83057Y640636D01*
G37*
G36*
X159257Y640636D02*
X170943Y640636D01*
X171503Y640868D01*
X171932Y641297D01*
X172164Y641857D01*
X172164Y653543D01*
X171932Y654103D01*
X171503Y654532D01*
X170943Y654764D01*
X159257Y654764D01*
X158697Y654532D01*
X158268Y654103D01*
X158036Y653543D01*
X158036Y641857D01*
X158268Y641297D01*
X158697Y640868D01*
X159257Y640636D01*
G37*
G36*
X616457Y640636D02*
X628143Y640636D01*
X628703Y640868D01*
X629132Y641297D01*
X629364Y641857D01*
X629364Y653543D01*
X629132Y654103D01*
X628703Y654532D01*
X628143Y654764D01*
X616457Y654764D01*
X615897Y654532D01*
X615468Y654103D01*
X615236Y653543D01*
X615236Y641857D01*
X615468Y641297D01*
X615897Y640868D01*
X616457Y640636D01*
G37*
G36*
X413257Y640636D02*
X424943Y640636D01*
X425503Y640868D01*
X425932Y641297D01*
X426164Y641857D01*
X426164Y653543D01*
X425932Y654103D01*
X425503Y654532D01*
X424943Y654764D01*
X413257Y654764D01*
X412697Y654532D01*
X412268Y654103D01*
X412036Y653543D01*
X412036Y641857D01*
X412268Y641297D01*
X412697Y640868D01*
X413257Y640636D01*
G37*
G36*
X565657Y640636D02*
X577343Y640636D01*
X577903Y640868D01*
X578332Y641297D01*
X578564Y641857D01*
X578564Y653543D01*
X578332Y654103D01*
X577903Y654532D01*
X577343Y654764D01*
X565657Y654764D01*
X565097Y654532D01*
X564668Y654103D01*
X564436Y653543D01*
X564436Y641857D01*
X564668Y641297D01*
X565097Y640868D01*
X565657Y640636D01*
G37*
G36*
X540257Y640636D02*
X551943Y640636D01*
X552503Y640868D01*
X552932Y641297D01*
X553164Y641857D01*
X553164Y653543D01*
X552932Y654103D01*
X552503Y654532D01*
X551943Y654764D01*
X540257Y654764D01*
X539697Y654532D01*
X539268Y654103D01*
X539036Y653543D01*
X539036Y641857D01*
X539268Y641297D01*
X539697Y640868D01*
X540257Y640636D01*
G37*
G36*
X514857Y640636D02*
X526543Y640636D01*
X527103Y640868D01*
X527532Y641297D01*
X527764Y641857D01*
X527764Y653543D01*
X527532Y654103D01*
X527103Y654532D01*
X526543Y654764D01*
X514857Y654764D01*
X514297Y654532D01*
X513868Y654103D01*
X513636Y653543D01*
X513636Y641857D01*
X513868Y641297D01*
X514297Y640868D01*
X514857Y640636D01*
G37*
G36*
X489457Y640636D02*
X501143Y640636D01*
X501703Y640868D01*
X502132Y641297D01*
X502364Y641857D01*
X502364Y653543D01*
X502132Y654103D01*
X501703Y654532D01*
X501143Y654764D01*
X489457Y654764D01*
X488897Y654532D01*
X488468Y654103D01*
X488236Y653543D01*
X488236Y641857D01*
X488468Y641297D01*
X488897Y640868D01*
X489457Y640636D01*
G37*
G36*
X464057Y640636D02*
X475743Y640636D01*
X476303Y640868D01*
X476732Y641297D01*
X476964Y641857D01*
X476964Y653543D01*
X476732Y654103D01*
X476303Y654532D01*
X475743Y654764D01*
X464057Y654764D01*
X463497Y654532D01*
X463068Y654103D01*
X462836Y653543D01*
X462836Y641857D01*
X463068Y641297D01*
X463497Y640868D01*
X464057Y640636D01*
G37*
G36*
X438657Y640636D02*
X450343Y640636D01*
X450903Y640868D01*
X451332Y641297D01*
X451564Y641857D01*
X451564Y653543D01*
X451332Y654103D01*
X450903Y654532D01*
X450343Y654764D01*
X438657Y654764D01*
X438097Y654532D01*
X437668Y654103D01*
X437436Y653543D01*
X437436Y641857D01*
X437668Y641297D01*
X438097Y640868D01*
X438657Y640636D01*
G37*
G36*
X57657Y640636D02*
X69343Y640636D01*
X69903Y640868D01*
X70332Y641297D01*
X70564Y641857D01*
X70564Y653543D01*
X70332Y654103D01*
X69903Y654532D01*
X69343Y654764D01*
X57657Y654764D01*
X57097Y654532D01*
X56668Y654103D01*
X56436Y653543D01*
X56436Y641857D01*
X56668Y641297D01*
X57097Y640868D01*
X57657Y640636D01*
G37*
G36*
X667257Y640636D02*
X678943Y640636D01*
X679503Y640868D01*
X679932Y641297D01*
X680164Y641857D01*
X680164Y653543D01*
X679932Y654103D01*
X679503Y654532D01*
X678943Y654764D01*
X667257Y654764D01*
X666697Y654532D01*
X666268Y654103D01*
X666036Y653543D01*
X666036Y641857D01*
X666268Y641297D01*
X666697Y640868D01*
X667257Y640636D01*
G37*
G36*
X641857Y640636D02*
X653543Y640636D01*
X654103Y640868D01*
X654532Y641297D01*
X654764Y641857D01*
X654764Y653543D01*
X654532Y654103D01*
X654103Y654532D01*
X653543Y654764D01*
X641857Y654764D01*
X641297Y654532D01*
X640868Y654103D01*
X640636Y653543D01*
X640636Y641857D01*
X640868Y641297D01*
X641297Y640868D01*
X641857Y640636D01*
G37*
G36*
X591057Y640636D02*
X602743Y640636D01*
X603303Y640868D01*
X603732Y641297D01*
X603964Y641857D01*
X603964Y653543D01*
X603732Y654103D01*
X603303Y654532D01*
X602743Y654764D01*
X591057Y654764D01*
X590497Y654532D01*
X590068Y654103D01*
X589836Y653543D01*
X589836Y641857D01*
X590068Y641297D01*
X590497Y640868D01*
X591057Y640636D01*
G37*
G36*
X387857Y615236D02*
X399543Y615236D01*
X400103Y615468D01*
X400532Y615897D01*
X400764Y616457D01*
X400764Y628143D01*
X400532Y628703D01*
X400103Y629132D01*
X399543Y629364D01*
X387857Y629364D01*
X387297Y629132D01*
X386868Y628703D01*
X386636Y628143D01*
X386636Y616457D01*
X386868Y615897D01*
X387297Y615468D01*
X387857Y615236D01*
G37*
G36*
X413257Y615236D02*
X424943Y615236D01*
X425503Y615468D01*
X425932Y615897D01*
X426164Y616457D01*
X426164Y628143D01*
X425932Y628703D01*
X425503Y629132D01*
X424943Y629364D01*
X413257Y629364D01*
X412697Y629132D01*
X412268Y628703D01*
X412036Y628143D01*
X412036Y616457D01*
X412268Y615897D01*
X412697Y615468D01*
X413257Y615236D01*
G37*
G36*
X438657Y615236D02*
X450343Y615236D01*
X450903Y615468D01*
X451332Y615897D01*
X451564Y616457D01*
X451564Y628143D01*
X451332Y628703D01*
X450903Y629132D01*
X450343Y629364D01*
X438657Y629364D01*
X438097Y629132D01*
X437668Y628703D01*
X437436Y628143D01*
X437436Y616457D01*
X437668Y615897D01*
X438097Y615468D01*
X438657Y615236D01*
G37*
G36*
X464057Y615236D02*
X475743Y615236D01*
X476303Y615468D01*
X476732Y615897D01*
X476964Y616457D01*
X476964Y628143D01*
X476732Y628703D01*
X476303Y629132D01*
X475743Y629364D01*
X464057Y629364D01*
X463497Y629132D01*
X463068Y628703D01*
X462836Y628143D01*
X462836Y616457D01*
X463068Y615897D01*
X463497Y615468D01*
X464057Y615236D01*
G37*
G36*
X489457Y615236D02*
X501143Y615236D01*
X501703Y615468D01*
X502132Y615897D01*
X502364Y616457D01*
X502364Y628143D01*
X502132Y628703D01*
X501703Y629132D01*
X501143Y629364D01*
X489457Y629364D01*
X488897Y629132D01*
X488468Y628703D01*
X488236Y628143D01*
X488236Y616457D01*
X488468Y615897D01*
X488897Y615468D01*
X489457Y615236D01*
G37*
G36*
X514857Y615236D02*
X526543Y615236D01*
X527103Y615468D01*
X527532Y615897D01*
X527764Y616457D01*
X527764Y628143D01*
X527532Y628703D01*
X527103Y629132D01*
X526543Y629364D01*
X514857Y629364D01*
X514297Y629132D01*
X513868Y628703D01*
X513636Y628143D01*
X513636Y616457D01*
X513868Y615897D01*
X514297Y615468D01*
X514857Y615236D01*
G37*
G36*
X591057Y615236D02*
X602743Y615236D01*
X603303Y615468D01*
X603732Y615897D01*
X603964Y616457D01*
X603964Y628143D01*
X603732Y628703D01*
X603303Y629132D01*
X602743Y629364D01*
X591057Y629364D01*
X590497Y629132D01*
X590068Y628703D01*
X589836Y628143D01*
X589836Y616457D01*
X590068Y615897D01*
X590497Y615468D01*
X591057Y615236D01*
G37*
G36*
X616457Y615236D02*
X628143Y615236D01*
X628703Y615468D01*
X629132Y615897D01*
X629364Y616457D01*
X629364Y628143D01*
X629132Y628703D01*
X628703Y629132D01*
X628143Y629364D01*
X616457Y629364D01*
X615897Y629132D01*
X615468Y628703D01*
X615236Y628143D01*
X615236Y616457D01*
X615468Y615897D01*
X615897Y615468D01*
X616457Y615236D01*
G37*
G36*
X641857Y615236D02*
X653543Y615236D01*
X654103Y615468D01*
X654532Y615897D01*
X654764Y616457D01*
X654764Y628143D01*
X654532Y628703D01*
X654103Y629132D01*
X653543Y629364D01*
X641857Y629364D01*
X641297Y629132D01*
X640868Y628703D01*
X640636Y628143D01*
X640636Y616457D01*
X640868Y615897D01*
X641297Y615468D01*
X641857Y615236D01*
G37*
G36*
X540257Y615236D02*
X551943Y615236D01*
X552503Y615468D01*
X552932Y615897D01*
X553164Y616457D01*
X553164Y628143D01*
X552932Y628703D01*
X552503Y629132D01*
X551943Y629364D01*
X540257Y629364D01*
X539697Y629132D01*
X539268Y628703D01*
X539036Y628143D01*
X539036Y616457D01*
X539268Y615897D01*
X539697Y615468D01*
X540257Y615236D01*
G37*
G36*
X565657Y615236D02*
X577343Y615236D01*
X577903Y615468D01*
X578332Y615897D01*
X578564Y616457D01*
X578564Y628143D01*
X578332Y628703D01*
X577903Y629132D01*
X577343Y629364D01*
X565657Y629364D01*
X565097Y629132D01*
X564668Y628703D01*
X564436Y628143D01*
X564436Y616457D01*
X564668Y615897D01*
X565097Y615468D01*
X565657Y615236D01*
G37*
G36*
X362457Y615236D02*
X374143Y615236D01*
X374703Y615468D01*
X375132Y615897D01*
X375364Y616457D01*
X375364Y628143D01*
X375132Y628703D01*
X374703Y629132D01*
X374143Y629364D01*
X362457Y629364D01*
X361897Y629132D01*
X361468Y628703D01*
X361236Y628143D01*
X361236Y616457D01*
X361468Y615897D01*
X361897Y615468D01*
X362457Y615236D01*
G37*
G36*
X337057Y615236D02*
X348743Y615236D01*
X349303Y615468D01*
X349732Y615897D01*
X349964Y616457D01*
X349964Y628143D01*
X349732Y628703D01*
X349303Y629132D01*
X348743Y629364D01*
X337057Y629364D01*
X336497Y629132D01*
X336068Y628703D01*
X335836Y628143D01*
X335836Y616457D01*
X336068Y615897D01*
X336497Y615468D01*
X337057Y615236D01*
G37*
G36*
X667257Y615236D02*
X678943Y615236D01*
X679503Y615468D01*
X679932Y615897D01*
X680164Y616457D01*
X680164Y628143D01*
X679932Y628703D01*
X679503Y629132D01*
X678943Y629364D01*
X667257Y629364D01*
X666697Y629132D01*
X666268Y628703D01*
X666036Y628143D01*
X666036Y616457D01*
X666268Y615897D01*
X666697Y615468D01*
X667257Y615236D01*
G37*
G36*
X286257Y615236D02*
X297943Y615236D01*
X298503Y615468D01*
X298932Y615897D01*
X299164Y616457D01*
X299164Y628143D01*
X298932Y628703D01*
X298503Y629132D01*
X297943Y629364D01*
X286257Y629364D01*
X285697Y629132D01*
X285268Y628703D01*
X285036Y628143D01*
X285036Y616457D01*
X285268Y615897D01*
X285697Y615468D01*
X286257Y615236D01*
G37*
G36*
X260857Y615236D02*
X272543Y615236D01*
X273103Y615468D01*
X273532Y615897D01*
X273764Y616457D01*
X273764Y628143D01*
X273532Y628703D01*
X273103Y629132D01*
X272543Y629364D01*
X260857Y629364D01*
X260297Y629132D01*
X259868Y628703D01*
X259636Y628143D01*
X259636Y616457D01*
X259868Y615897D01*
X260297Y615468D01*
X260857Y615236D01*
G37*
G36*
X235457Y615236D02*
X247143Y615236D01*
X247703Y615468D01*
X248132Y615897D01*
X248364Y616457D01*
X248364Y628143D01*
X248132Y628703D01*
X247703Y629132D01*
X247143Y629364D01*
X235457Y629364D01*
X234897Y629132D01*
X234468Y628703D01*
X234236Y628143D01*
X234236Y616457D01*
X234468Y615897D01*
X234897Y615468D01*
X235457Y615236D01*
G37*
G36*
X210057Y615236D02*
X221743Y615236D01*
X222303Y615468D01*
X222732Y615897D01*
X222964Y616457D01*
X222964Y628143D01*
X222732Y628703D01*
X222303Y629132D01*
X221743Y629364D01*
X210057Y629364D01*
X209497Y629132D01*
X209068Y628703D01*
X208836Y628143D01*
X208836Y616457D01*
X209068Y615897D01*
X209497Y615468D01*
X210057Y615236D01*
G37*
G36*
X184657Y615236D02*
X196343Y615236D01*
X196903Y615468D01*
X197332Y615897D01*
X197564Y616457D01*
X197564Y628143D01*
X197332Y628703D01*
X196903Y629132D01*
X196343Y629364D01*
X184657Y629364D01*
X184097Y629132D01*
X183668Y628703D01*
X183436Y628143D01*
X183436Y616457D01*
X183668Y615897D01*
X184097Y615468D01*
X184657Y615236D01*
G37*
G36*
X159257Y615236D02*
X170943Y615236D01*
X171503Y615468D01*
X171932Y615897D01*
X172164Y616457D01*
X172164Y628143D01*
X171932Y628703D01*
X171503Y629132D01*
X170943Y629364D01*
X159257Y629364D01*
X158697Y629132D01*
X158268Y628703D01*
X158036Y628143D01*
X158036Y616457D01*
X158268Y615897D01*
X158697Y615468D01*
X159257Y615236D01*
G37*
G36*
X133857Y615236D02*
X145543Y615236D01*
X146103Y615468D01*
X146532Y615897D01*
X146764Y616457D01*
X146764Y628143D01*
X146532Y628703D01*
X146103Y629132D01*
X145543Y629364D01*
X133857Y629364D01*
X133297Y629132D01*
X132868Y628703D01*
X132636Y628143D01*
X132636Y616457D01*
X132868Y615897D01*
X133297Y615468D01*
X133857Y615236D01*
G37*
G36*
X108457Y615236D02*
X120143Y615236D01*
X120703Y615468D01*
X121132Y615897D01*
X121364Y616457D01*
X121364Y628143D01*
X121132Y628703D01*
X120703Y629132D01*
X120143Y629364D01*
X108457Y629364D01*
X107897Y629132D01*
X107468Y628703D01*
X107236Y628143D01*
X107236Y616457D01*
X107468Y615897D01*
X107897Y615468D01*
X108457Y615236D01*
G37*
G36*
X83057Y615236D02*
X94743Y615236D01*
X95303Y615468D01*
X95732Y615897D01*
X95964Y616457D01*
X95964Y628143D01*
X95732Y628703D01*
X95303Y629132D01*
X94743Y629364D01*
X83057Y629364D01*
X82497Y629132D01*
X82068Y628703D01*
X81836Y628143D01*
X81836Y616457D01*
X82068Y615897D01*
X82497Y615468D01*
X83057Y615236D01*
G37*
G36*
X57657Y615236D02*
X69343Y615236D01*
X69903Y615468D01*
X70332Y615897D01*
X70564Y616457D01*
X70564Y628143D01*
X70332Y628703D01*
X69903Y629132D01*
X69343Y629364D01*
X57657Y629364D01*
X57097Y629132D01*
X56668Y628703D01*
X56436Y628143D01*
X56436Y616457D01*
X56668Y615897D01*
X57097Y615468D01*
X57657Y615236D01*
G37*
G36*
X32257Y615236D02*
X43943Y615236D01*
X44503Y615468D01*
X44932Y615897D01*
X45164Y616457D01*
X45164Y628143D01*
X44932Y628703D01*
X44503Y629132D01*
X43943Y629364D01*
X32257Y629364D01*
X31697Y629132D01*
X31268Y628703D01*
X31036Y628143D01*
X31036Y616457D01*
X31268Y615897D01*
X31697Y615468D01*
X32257Y615236D01*
G37*
G36*
X311657Y615236D02*
X323343Y615236D01*
X323903Y615468D01*
X324332Y615897D01*
X324564Y616457D01*
X324564Y628143D01*
X324332Y628703D01*
X323903Y629132D01*
X323343Y629364D01*
X311657Y629364D01*
X311097Y629132D01*
X310668Y628703D01*
X310436Y628143D01*
X310436Y616457D01*
X310668Y615897D01*
X311097Y615468D01*
X311657Y615236D01*
G37*
G36*
X235457Y589836D02*
X247143Y589836D01*
X247703Y590068D01*
X248132Y590497D01*
X248364Y591057D01*
X248364Y602743D01*
X248132Y603303D01*
X247703Y603732D01*
X247143Y603964D01*
X235457Y603964D01*
X234897Y603732D01*
X234468Y603303D01*
X234236Y602743D01*
X234236Y591057D01*
X234468Y590497D01*
X234897Y590068D01*
X235457Y589836D01*
G37*
G36*
X260857Y589836D02*
X272543Y589836D01*
X273103Y590068D01*
X273532Y590497D01*
X273764Y591057D01*
X273764Y602743D01*
X273532Y603303D01*
X273103Y603732D01*
X272543Y603964D01*
X260857Y603964D01*
X260297Y603732D01*
X259868Y603303D01*
X259636Y602743D01*
X259636Y591057D01*
X259868Y590497D01*
X260297Y590068D01*
X260857Y589836D01*
G37*
G36*
X667257Y589836D02*
X678943Y589836D01*
X679503Y590068D01*
X679932Y590497D01*
X680164Y591057D01*
X680164Y602743D01*
X679932Y603303D01*
X679503Y603732D01*
X678943Y603964D01*
X667257Y603964D01*
X666697Y603732D01*
X666268Y603303D01*
X666036Y602743D01*
X666036Y591057D01*
X666268Y590497D01*
X666697Y590068D01*
X667257Y589836D01*
G37*
G36*
X641857Y589836D02*
X653543Y589836D01*
X654103Y590068D01*
X654532Y590497D01*
X654764Y591057D01*
X654764Y602743D01*
X654532Y603303D01*
X654103Y603732D01*
X653543Y603964D01*
X641857Y603964D01*
X641297Y603732D01*
X640868Y603303D01*
X640636Y602743D01*
X640636Y591057D01*
X640868Y590497D01*
X641297Y590068D01*
X641857Y589836D01*
G37*
G36*
X616457Y589836D02*
X628143Y589836D01*
X628703Y590068D01*
X629132Y590497D01*
X629364Y591057D01*
X629364Y602743D01*
X629132Y603303D01*
X628703Y603732D01*
X628143Y603964D01*
X616457Y603964D01*
X615897Y603732D01*
X615468Y603303D01*
X615236Y602743D01*
X615236Y591057D01*
X615468Y590497D01*
X615897Y590068D01*
X616457Y589836D01*
G37*
G36*
X591057Y589836D02*
X602743Y589836D01*
X603303Y590068D01*
X603732Y590497D01*
X603964Y591057D01*
X603964Y602743D01*
X603732Y603303D01*
X603303Y603732D01*
X602743Y603964D01*
X591057Y603964D01*
X590497Y603732D01*
X590068Y603303D01*
X589836Y602743D01*
X589836Y591057D01*
X590068Y590497D01*
X590497Y590068D01*
X591057Y589836D01*
G37*
G36*
X565657Y589836D02*
X577343Y589836D01*
X577903Y590068D01*
X578332Y590497D01*
X578564Y591057D01*
X578564Y602743D01*
X578332Y603303D01*
X577903Y603732D01*
X577343Y603964D01*
X565657Y603964D01*
X565097Y603732D01*
X564668Y603303D01*
X564436Y602743D01*
X564436Y591057D01*
X564668Y590497D01*
X565097Y590068D01*
X565657Y589836D01*
G37*
G36*
X540257Y589836D02*
X551943Y589836D01*
X552503Y590068D01*
X552932Y590497D01*
X553164Y591057D01*
X553164Y602743D01*
X552932Y603303D01*
X552503Y603732D01*
X551943Y603964D01*
X540257Y603964D01*
X539697Y603732D01*
X539268Y603303D01*
X539036Y602743D01*
X539036Y591057D01*
X539268Y590497D01*
X539697Y590068D01*
X540257Y589836D01*
G37*
G36*
X514857Y589836D02*
X526543Y589836D01*
X527103Y590068D01*
X527532Y590497D01*
X527764Y591057D01*
X527764Y602743D01*
X527532Y603303D01*
X527103Y603732D01*
X526543Y603964D01*
X514857Y603964D01*
X514297Y603732D01*
X513868Y603303D01*
X513636Y602743D01*
X513636Y591057D01*
X513868Y590497D01*
X514297Y590068D01*
X514857Y589836D01*
G37*
G36*
X489457Y589836D02*
X501143Y589836D01*
X501703Y590068D01*
X502132Y590497D01*
X502364Y591057D01*
X502364Y602743D01*
X502132Y603303D01*
X501703Y603732D01*
X501143Y603964D01*
X489457Y603964D01*
X488897Y603732D01*
X488468Y603303D01*
X488236Y602743D01*
X488236Y591057D01*
X488468Y590497D01*
X488897Y590068D01*
X489457Y589836D01*
G37*
G36*
X159257Y589836D02*
X170943Y589836D01*
X171503Y590068D01*
X171932Y590497D01*
X172164Y591057D01*
X172164Y602743D01*
X171932Y603303D01*
X171503Y603732D01*
X170943Y603964D01*
X159257Y603964D01*
X158697Y603732D01*
X158268Y603303D01*
X158036Y602743D01*
X158036Y591057D01*
X158268Y590497D01*
X158697Y590068D01*
X159257Y589836D01*
G37*
G36*
X108457Y589836D02*
X120143Y589836D01*
X120703Y590068D01*
X121132Y590497D01*
X121364Y591057D01*
X121364Y602743D01*
X121132Y603303D01*
X120703Y603732D01*
X120143Y603964D01*
X108457Y603964D01*
X107897Y603732D01*
X107468Y603303D01*
X107236Y602743D01*
X107236Y591057D01*
X107468Y590497D01*
X107897Y590068D01*
X108457Y589836D01*
G37*
G36*
X387857Y589836D02*
X399543Y589836D01*
X400103Y590068D01*
X400532Y590497D01*
X400764Y591057D01*
X400764Y602743D01*
X400532Y603303D01*
X400103Y603732D01*
X399543Y603964D01*
X387857Y603964D01*
X387297Y603732D01*
X386868Y603303D01*
X386636Y602743D01*
X386636Y591057D01*
X386868Y590497D01*
X387297Y590068D01*
X387857Y589836D01*
G37*
G36*
X362457Y589836D02*
X374143Y589836D01*
X374703Y590068D01*
X375132Y590497D01*
X375364Y591057D01*
X375364Y602743D01*
X375132Y603303D01*
X374703Y603732D01*
X374143Y603964D01*
X362457Y603964D01*
X361897Y603732D01*
X361468Y603303D01*
X361236Y602743D01*
X361236Y591057D01*
X361468Y590497D01*
X361897Y590068D01*
X362457Y589836D01*
G37*
G36*
X337057Y589836D02*
X348743Y589836D01*
X349303Y590068D01*
X349732Y590497D01*
X349964Y591057D01*
X349964Y602743D01*
X349732Y603303D01*
X349303Y603732D01*
X348743Y603964D01*
X337057Y603964D01*
X336497Y603732D01*
X336068Y603303D01*
X335836Y602743D01*
X335836Y591057D01*
X336068Y590497D01*
X336497Y590068D01*
X337057Y589836D01*
G37*
G36*
X311657Y589836D02*
X323343Y589836D01*
X323903Y590068D01*
X324332Y590497D01*
X324564Y591057D01*
X324564Y602743D01*
X324332Y603303D01*
X323903Y603732D01*
X323343Y603964D01*
X311657Y603964D01*
X311097Y603732D01*
X310668Y603303D01*
X310436Y602743D01*
X310436Y591057D01*
X310668Y590497D01*
X311097Y590068D01*
X311657Y589836D01*
G37*
G36*
X286257Y589836D02*
X297943Y589836D01*
X298503Y590068D01*
X298932Y590497D01*
X299164Y591057D01*
X299164Y602743D01*
X298932Y603303D01*
X298503Y603732D01*
X297943Y603964D01*
X286257Y603964D01*
X285697Y603732D01*
X285268Y603303D01*
X285036Y602743D01*
X285036Y591057D01*
X285268Y590497D01*
X285697Y590068D01*
X286257Y589836D01*
G37*
G36*
X438657Y589836D02*
X450343Y589836D01*
X450903Y590068D01*
X451332Y590497D01*
X451564Y591057D01*
X451564Y602743D01*
X451332Y603303D01*
X450903Y603732D01*
X450343Y603964D01*
X438657Y603964D01*
X438097Y603732D01*
X437668Y603303D01*
X437436Y602743D01*
X437436Y591057D01*
X437668Y590497D01*
X438097Y590068D01*
X438657Y589836D01*
G37*
G36*
X413257Y589836D02*
X424943Y589836D01*
X425503Y590068D01*
X425932Y590497D01*
X426164Y591057D01*
X426164Y602743D01*
X425932Y603303D01*
X425503Y603732D01*
X424943Y603964D01*
X413257Y603964D01*
X412697Y603732D01*
X412268Y603303D01*
X412036Y602743D01*
X412036Y591057D01*
X412268Y590497D01*
X412697Y590068D01*
X413257Y589836D01*
G37*
G36*
X32257Y589836D02*
X43943Y589836D01*
X44503Y590068D01*
X44932Y590497D01*
X45164Y591057D01*
X45164Y602743D01*
X44932Y603303D01*
X44503Y603732D01*
X43943Y603964D01*
X32257Y603964D01*
X31697Y603732D01*
X31268Y603303D01*
X31036Y602743D01*
X31036Y591057D01*
X31268Y590497D01*
X31697Y590068D01*
X32257Y589836D01*
G37*
G36*
X57657Y589836D02*
X69343Y589836D01*
X69903Y590068D01*
X70332Y590497D01*
X70564Y591057D01*
X70564Y602743D01*
X70332Y603303D01*
X69903Y603732D01*
X69343Y603964D01*
X57657Y603964D01*
X57097Y603732D01*
X56668Y603303D01*
X56436Y602743D01*
X56436Y591057D01*
X56668Y590497D01*
X57097Y590068D01*
X57657Y589836D01*
G37*
G36*
X83057Y589836D02*
X94743Y589836D01*
X95303Y590068D01*
X95732Y590497D01*
X95964Y591057D01*
X95964Y602743D01*
X95732Y603303D01*
X95303Y603732D01*
X94743Y603964D01*
X83057Y603964D01*
X82497Y603732D01*
X82068Y603303D01*
X81836Y602743D01*
X81836Y591057D01*
X82068Y590497D01*
X82497Y590068D01*
X83057Y589836D01*
G37*
G36*
X464057Y589836D02*
X475743Y589836D01*
X476303Y590068D01*
X476732Y590497D01*
X476964Y591057D01*
X476964Y602743D01*
X476732Y603303D01*
X476303Y603732D01*
X475743Y603964D01*
X464057Y603964D01*
X463497Y603732D01*
X463068Y603303D01*
X462836Y602743D01*
X462836Y591057D01*
X463068Y590497D01*
X463497Y590068D01*
X464057Y589836D01*
G37*
G36*
X133857Y589836D02*
X145543Y589836D01*
X146103Y590068D01*
X146532Y590497D01*
X146764Y591057D01*
X146764Y602743D01*
X146532Y603303D01*
X146103Y603732D01*
X145543Y603964D01*
X133857Y603964D01*
X133297Y603732D01*
X132868Y603303D01*
X132636Y602743D01*
X132636Y591057D01*
X132868Y590497D01*
X133297Y590068D01*
X133857Y589836D01*
G37*
G36*
X184657Y589836D02*
X196343Y589836D01*
X196903Y590068D01*
X197332Y590497D01*
X197564Y591057D01*
X197564Y602743D01*
X197332Y603303D01*
X196903Y603732D01*
X196343Y603964D01*
X184657Y603964D01*
X184097Y603732D01*
X183668Y603303D01*
X183436Y602743D01*
X183436Y591057D01*
X183668Y590497D01*
X184097Y590068D01*
X184657Y589836D01*
G37*
G36*
X210057Y589836D02*
X221743Y589836D01*
X222303Y590068D01*
X222732Y590497D01*
X222964Y591057D01*
X222964Y602743D01*
X222732Y603303D01*
X222303Y603732D01*
X221743Y603964D01*
X210057Y603964D01*
X209497Y603732D01*
X209068Y603303D01*
X208836Y602743D01*
X208836Y591057D01*
X209068Y590497D01*
X209497Y590068D01*
X210057Y589836D01*
G37*
G36*
X641857Y564436D02*
X653543Y564436D01*
X654103Y564668D01*
X654532Y565097D01*
X654764Y565657D01*
X654764Y577343D01*
X654532Y577903D01*
X654103Y578332D01*
X653543Y578564D01*
X641857Y578564D01*
X641297Y578332D01*
X640868Y577903D01*
X640636Y577343D01*
X640636Y565657D01*
X640868Y565097D01*
X641297Y564668D01*
X641857Y564436D01*
G37*
G36*
X616457Y564436D02*
X628143Y564436D01*
X628703Y564668D01*
X629132Y565097D01*
X629364Y565657D01*
X629364Y577343D01*
X629132Y577903D01*
X628703Y578332D01*
X628143Y578564D01*
X616457Y578564D01*
X615897Y578332D01*
X615468Y577903D01*
X615236Y577343D01*
X615236Y565657D01*
X615468Y565097D01*
X615897Y564668D01*
X616457Y564436D01*
G37*
G36*
X591057Y564436D02*
X602743Y564436D01*
X603303Y564668D01*
X603732Y565097D01*
X603964Y565657D01*
X603964Y577343D01*
X603732Y577903D01*
X603303Y578332D01*
X602743Y578564D01*
X591057Y578564D01*
X590497Y578332D01*
X590068Y577903D01*
X589836Y577343D01*
X589836Y565657D01*
X590068Y565097D01*
X590497Y564668D01*
X591057Y564436D01*
G37*
G36*
X565657Y564436D02*
X577343Y564436D01*
X577903Y564668D01*
X578332Y565097D01*
X578564Y565657D01*
X578564Y577343D01*
X578332Y577903D01*
X577903Y578332D01*
X577343Y578564D01*
X565657Y578564D01*
X565097Y578332D01*
X564668Y577903D01*
X564436Y577343D01*
X564436Y565657D01*
X564668Y565097D01*
X565097Y564668D01*
X565657Y564436D01*
G37*
G36*
X540257Y564436D02*
X551943Y564436D01*
X552503Y564668D01*
X552932Y565097D01*
X553164Y565657D01*
X553164Y577343D01*
X552932Y577903D01*
X552503Y578332D01*
X551943Y578564D01*
X540257Y578564D01*
X539697Y578332D01*
X539268Y577903D01*
X539036Y577343D01*
X539036Y565657D01*
X539268Y565097D01*
X539697Y564668D01*
X540257Y564436D01*
G37*
G36*
X514857Y564436D02*
X526543Y564436D01*
X527103Y564668D01*
X527532Y565097D01*
X527764Y565657D01*
X527764Y577343D01*
X527532Y577903D01*
X527103Y578332D01*
X526543Y578564D01*
X514857Y578564D01*
X514297Y578332D01*
X513868Y577903D01*
X513636Y577343D01*
X513636Y565657D01*
X513868Y565097D01*
X514297Y564668D01*
X514857Y564436D01*
G37*
G36*
X489457Y564436D02*
X501143Y564436D01*
X501703Y564668D01*
X502132Y565097D01*
X502364Y565657D01*
X502364Y577343D01*
X502132Y577903D01*
X501703Y578332D01*
X501143Y578564D01*
X489457Y578564D01*
X488897Y578332D01*
X488468Y577903D01*
X488236Y577343D01*
X488236Y565657D01*
X488468Y565097D01*
X488897Y564668D01*
X489457Y564436D01*
G37*
G36*
X464057Y564436D02*
X475743Y564436D01*
X476303Y564668D01*
X476732Y565097D01*
X476964Y565657D01*
X476964Y577343D01*
X476732Y577903D01*
X476303Y578332D01*
X475743Y578564D01*
X464057Y578564D01*
X463497Y578332D01*
X463068Y577903D01*
X462836Y577343D01*
X462836Y565657D01*
X463068Y565097D01*
X463497Y564668D01*
X464057Y564436D01*
G37*
G36*
X438657Y564436D02*
X450343Y564436D01*
X450903Y564668D01*
X451332Y565097D01*
X451564Y565657D01*
X451564Y577343D01*
X451332Y577903D01*
X450903Y578332D01*
X450343Y578564D01*
X438657Y578564D01*
X438097Y578332D01*
X437668Y577903D01*
X437436Y577343D01*
X437436Y565657D01*
X437668Y565097D01*
X438097Y564668D01*
X438657Y564436D01*
G37*
G36*
X413257Y564436D02*
X424943Y564436D01*
X425503Y564668D01*
X425932Y565097D01*
X426164Y565657D01*
X426164Y577343D01*
X425932Y577903D01*
X425503Y578332D01*
X424943Y578564D01*
X413257Y578564D01*
X412697Y578332D01*
X412268Y577903D01*
X412036Y577343D01*
X412036Y565657D01*
X412268Y565097D01*
X412697Y564668D01*
X413257Y564436D01*
G37*
G36*
X387857Y564436D02*
X399543Y564436D01*
X400103Y564668D01*
X400532Y565097D01*
X400764Y565657D01*
X400764Y577343D01*
X400532Y577903D01*
X400103Y578332D01*
X399543Y578564D01*
X387857Y578564D01*
X387297Y578332D01*
X386868Y577903D01*
X386636Y577343D01*
X386636Y565657D01*
X386868Y565097D01*
X387297Y564668D01*
X387857Y564436D01*
G37*
G36*
X362457Y564436D02*
X374143Y564436D01*
X374703Y564668D01*
X375132Y565097D01*
X375364Y565657D01*
X375364Y577343D01*
X375132Y577903D01*
X374703Y578332D01*
X374143Y578564D01*
X362457Y578564D01*
X361897Y578332D01*
X361468Y577903D01*
X361236Y577343D01*
X361236Y565657D01*
X361468Y565097D01*
X361897Y564668D01*
X362457Y564436D01*
G37*
G36*
X311657Y564436D02*
X323343Y564436D01*
X323903Y564668D01*
X324332Y565097D01*
X324564Y565657D01*
X324564Y577343D01*
X324332Y577903D01*
X323903Y578332D01*
X323343Y578564D01*
X311657Y578564D01*
X311097Y578332D01*
X310668Y577903D01*
X310436Y577343D01*
X310436Y565657D01*
X310668Y565097D01*
X311097Y564668D01*
X311657Y564436D01*
G37*
G36*
X286257Y564436D02*
X297943Y564436D01*
X298503Y564668D01*
X298932Y565097D01*
X299164Y565657D01*
X299164Y577343D01*
X298932Y577903D01*
X298503Y578332D01*
X297943Y578564D01*
X286257Y578564D01*
X285697Y578332D01*
X285268Y577903D01*
X285036Y577343D01*
X285036Y565657D01*
X285268Y565097D01*
X285697Y564668D01*
X286257Y564436D01*
G37*
G36*
X337057Y564436D02*
X348743Y564436D01*
X349303Y564668D01*
X349732Y565097D01*
X349964Y565657D01*
X349964Y577343D01*
X349732Y577903D01*
X349303Y578332D01*
X348743Y578564D01*
X337057Y578564D01*
X336497Y578332D01*
X336068Y577903D01*
X335836Y577343D01*
X335836Y565657D01*
X336068Y565097D01*
X336497Y564668D01*
X337057Y564436D01*
G37*
G36*
X260857Y564436D02*
X272543Y564436D01*
X273103Y564668D01*
X273532Y565097D01*
X273764Y565657D01*
X273764Y577343D01*
X273532Y577903D01*
X273103Y578332D01*
X272543Y578564D01*
X260857Y578564D01*
X260297Y578332D01*
X259868Y577903D01*
X259636Y577343D01*
X259636Y565657D01*
X259868Y565097D01*
X260297Y564668D01*
X260857Y564436D01*
G37*
G36*
X235457Y564436D02*
X247143Y564436D01*
X247703Y564668D01*
X248132Y565097D01*
X248364Y565657D01*
X248364Y577343D01*
X248132Y577903D01*
X247703Y578332D01*
X247143Y578564D01*
X235457Y578564D01*
X234897Y578332D01*
X234468Y577903D01*
X234236Y577343D01*
X234236Y565657D01*
X234468Y565097D01*
X234897Y564668D01*
X235457Y564436D01*
G37*
G36*
X210057Y564436D02*
X221743Y564436D01*
X222303Y564668D01*
X222732Y565097D01*
X222964Y565657D01*
X222964Y577343D01*
X222732Y577903D01*
X222303Y578332D01*
X221743Y578564D01*
X210057Y578564D01*
X209497Y578332D01*
X209068Y577903D01*
X208836Y577343D01*
X208836Y565657D01*
X209068Y565097D01*
X209497Y564668D01*
X210057Y564436D01*
G37*
G36*
X184657Y564436D02*
X196343Y564436D01*
X196903Y564668D01*
X197332Y565097D01*
X197564Y565657D01*
X197564Y577343D01*
X197332Y577903D01*
X196903Y578332D01*
X196343Y578564D01*
X184657Y578564D01*
X184097Y578332D01*
X183668Y577903D01*
X183436Y577343D01*
X183436Y565657D01*
X183668Y565097D01*
X184097Y564668D01*
X184657Y564436D01*
G37*
G36*
X159257Y564436D02*
X170943Y564436D01*
X171503Y564668D01*
X171932Y565097D01*
X172164Y565657D01*
X172164Y577343D01*
X171932Y577903D01*
X171503Y578332D01*
X170943Y578564D01*
X159257Y578564D01*
X158697Y578332D01*
X158268Y577903D01*
X158036Y577343D01*
X158036Y565657D01*
X158268Y565097D01*
X158697Y564668D01*
X159257Y564436D01*
G37*
G36*
X133857Y564436D02*
X145543Y564436D01*
X146103Y564668D01*
X146532Y565097D01*
X146764Y565657D01*
X146764Y577343D01*
X146532Y577903D01*
X146103Y578332D01*
X145543Y578564D01*
X133857Y578564D01*
X133297Y578332D01*
X132868Y577903D01*
X132636Y577343D01*
X132636Y565657D01*
X132868Y565097D01*
X133297Y564668D01*
X133857Y564436D01*
G37*
G36*
X108457Y564436D02*
X120143Y564436D01*
X120703Y564668D01*
X121132Y565097D01*
X121364Y565657D01*
X121364Y577343D01*
X121132Y577903D01*
X120703Y578332D01*
X120143Y578564D01*
X108457Y578564D01*
X107897Y578332D01*
X107468Y577903D01*
X107236Y577343D01*
X107236Y565657D01*
X107468Y565097D01*
X107897Y564668D01*
X108457Y564436D01*
G37*
G36*
X83057Y564436D02*
X94743Y564436D01*
X95303Y564668D01*
X95732Y565097D01*
X95964Y565657D01*
X95964Y577343D01*
X95732Y577903D01*
X95303Y578332D01*
X94743Y578564D01*
X83057Y578564D01*
X82497Y578332D01*
X82068Y577903D01*
X81836Y577343D01*
X81836Y565657D01*
X82068Y565097D01*
X82497Y564668D01*
X83057Y564436D01*
G37*
G36*
X57657Y564436D02*
X69343Y564436D01*
X69903Y564668D01*
X70332Y565097D01*
X70564Y565657D01*
X70564Y577343D01*
X70332Y577903D01*
X69903Y578332D01*
X69343Y578564D01*
X57657Y578564D01*
X57097Y578332D01*
X56668Y577903D01*
X56436Y577343D01*
X56436Y565657D01*
X56668Y565097D01*
X57097Y564668D01*
X57657Y564436D01*
G37*
G36*
X32257Y564436D02*
X43943Y564436D01*
X44503Y564668D01*
X44932Y565097D01*
X45164Y565657D01*
X45164Y577343D01*
X44932Y577903D01*
X44503Y578332D01*
X43943Y578564D01*
X32257Y578564D01*
X31697Y578332D01*
X31268Y577903D01*
X31036Y577343D01*
X31036Y565657D01*
X31268Y565097D01*
X31697Y564668D01*
X32257Y564436D01*
G37*
G36*
X667257Y564436D02*
X678943Y564436D01*
X679503Y564668D01*
X679932Y565097D01*
X680164Y565657D01*
X680164Y577343D01*
X679932Y577903D01*
X679503Y578332D01*
X678943Y578564D01*
X667257Y578564D01*
X666697Y578332D01*
X666268Y577903D01*
X666036Y577343D01*
X666036Y565657D01*
X666268Y565097D01*
X666697Y564668D01*
X667257Y564436D01*
G37*
G36*
X489457Y539036D02*
X501143Y539036D01*
X501703Y539268D01*
X502132Y539697D01*
X502364Y540257D01*
X502364Y551943D01*
X502132Y552503D01*
X501703Y552932D01*
X501143Y553164D01*
X489457Y553164D01*
X488897Y552932D01*
X488468Y552503D01*
X488236Y551943D01*
X488236Y540257D01*
X488468Y539697D01*
X488897Y539268D01*
X489457Y539036D01*
G37*
G36*
X514857Y539036D02*
X526543Y539036D01*
X527103Y539268D01*
X527532Y539697D01*
X527764Y540257D01*
X527764Y551943D01*
X527532Y552503D01*
X527103Y552932D01*
X526543Y553164D01*
X514857Y553164D01*
X514297Y552932D01*
X513868Y552503D01*
X513636Y551943D01*
X513636Y540257D01*
X513868Y539697D01*
X514297Y539268D01*
X514857Y539036D01*
G37*
G36*
X362457Y539036D02*
X374143Y539036D01*
X374703Y539268D01*
X375132Y539697D01*
X375364Y540257D01*
X375364Y551943D01*
X375132Y552503D01*
X374703Y552932D01*
X374143Y553164D01*
X362457Y553164D01*
X361897Y552932D01*
X361468Y552503D01*
X361236Y551943D01*
X361236Y540257D01*
X361468Y539697D01*
X361897Y539268D01*
X362457Y539036D01*
G37*
G36*
X32257Y539036D02*
X43943Y539036D01*
X44503Y539268D01*
X44932Y539697D01*
X45164Y540257D01*
X45164Y551943D01*
X44932Y552503D01*
X44503Y552932D01*
X43943Y553164D01*
X32257Y553164D01*
X31697Y552932D01*
X31268Y552503D01*
X31036Y551943D01*
X31036Y540257D01*
X31268Y539697D01*
X31697Y539268D01*
X32257Y539036D01*
G37*
G36*
X387857Y539036D02*
X399543Y539036D01*
X400103Y539268D01*
X400532Y539697D01*
X400764Y540257D01*
X400764Y551943D01*
X400532Y552503D01*
X400103Y552932D01*
X399543Y553164D01*
X387857Y553164D01*
X387297Y552932D01*
X386868Y552503D01*
X386636Y551943D01*
X386636Y540257D01*
X386868Y539697D01*
X387297Y539268D01*
X387857Y539036D01*
G37*
G36*
X464057Y539036D02*
X475743Y539036D01*
X476303Y539268D01*
X476732Y539697D01*
X476964Y540257D01*
X476964Y551943D01*
X476732Y552503D01*
X476303Y552932D01*
X475743Y553164D01*
X464057Y553164D01*
X463497Y552932D01*
X463068Y552503D01*
X462836Y551943D01*
X462836Y540257D01*
X463068Y539697D01*
X463497Y539268D01*
X464057Y539036D01*
G37*
G36*
X438657Y539036D02*
X450343Y539036D01*
X450903Y539268D01*
X451332Y539697D01*
X451564Y540257D01*
X451564Y551943D01*
X451332Y552503D01*
X450903Y552932D01*
X450343Y553164D01*
X438657Y553164D01*
X438097Y552932D01*
X437668Y552503D01*
X437436Y551943D01*
X437436Y540257D01*
X437668Y539697D01*
X438097Y539268D01*
X438657Y539036D01*
G37*
G36*
X159257Y539036D02*
X170943Y539036D01*
X171503Y539268D01*
X171932Y539697D01*
X172164Y540257D01*
X172164Y551943D01*
X171932Y552503D01*
X171503Y552932D01*
X170943Y553164D01*
X159257Y553164D01*
X158697Y552932D01*
X158268Y552503D01*
X158036Y551943D01*
X158036Y540257D01*
X158268Y539697D01*
X158697Y539268D01*
X159257Y539036D01*
G37*
G36*
X210057Y539036D02*
X221743Y539036D01*
X222303Y539268D01*
X222732Y539697D01*
X222964Y540257D01*
X222964Y551943D01*
X222732Y552503D01*
X222303Y552932D01*
X221743Y553164D01*
X210057Y553164D01*
X209497Y552932D01*
X209068Y552503D01*
X208836Y551943D01*
X208836Y540257D01*
X209068Y539697D01*
X209497Y539268D01*
X210057Y539036D01*
G37*
G36*
X184657Y539036D02*
X196343Y539036D01*
X196903Y539268D01*
X197332Y539697D01*
X197564Y540257D01*
X197564Y551943D01*
X197332Y552503D01*
X196903Y552932D01*
X196343Y553164D01*
X184657Y553164D01*
X184097Y552932D01*
X183668Y552503D01*
X183436Y551943D01*
X183436Y540257D01*
X183668Y539697D01*
X184097Y539268D01*
X184657Y539036D01*
G37*
G36*
X413257Y539036D02*
X424943Y539036D01*
X425503Y539268D01*
X425932Y539697D01*
X426164Y540257D01*
X426164Y551943D01*
X425932Y552503D01*
X425503Y552932D01*
X424943Y553164D01*
X413257Y553164D01*
X412697Y552932D01*
X412268Y552503D01*
X412036Y551943D01*
X412036Y540257D01*
X412268Y539697D01*
X412697Y539268D01*
X413257Y539036D01*
G37*
G36*
X616457Y539036D02*
X628143Y539036D01*
X628703Y539268D01*
X629132Y539697D01*
X629364Y540257D01*
X629364Y551943D01*
X629132Y552503D01*
X628703Y552932D01*
X628143Y553164D01*
X616457Y553164D01*
X615897Y552932D01*
X615468Y552503D01*
X615236Y551943D01*
X615236Y540257D01*
X615468Y539697D01*
X615897Y539268D01*
X616457Y539036D01*
G37*
G36*
X133857Y539036D02*
X145543Y539036D01*
X146103Y539268D01*
X146532Y539697D01*
X146764Y540257D01*
X146764Y551943D01*
X146532Y552503D01*
X146103Y552932D01*
X145543Y553164D01*
X133857Y553164D01*
X133297Y552932D01*
X132868Y552503D01*
X132636Y551943D01*
X132636Y540257D01*
X132868Y539697D01*
X133297Y539268D01*
X133857Y539036D01*
G37*
G36*
X108457Y539036D02*
X120143Y539036D01*
X120703Y539268D01*
X121132Y539697D01*
X121364Y540257D01*
X121364Y551943D01*
X121132Y552503D01*
X120703Y552932D01*
X120143Y553164D01*
X108457Y553164D01*
X107897Y552932D01*
X107468Y552503D01*
X107236Y551943D01*
X107236Y540257D01*
X107468Y539697D01*
X107897Y539268D01*
X108457Y539036D01*
G37*
G36*
X83057Y539036D02*
X94743Y539036D01*
X95303Y539268D01*
X95732Y539697D01*
X95964Y540257D01*
X95964Y551943D01*
X95732Y552503D01*
X95303Y552932D01*
X94743Y553164D01*
X83057Y553164D01*
X82497Y552932D01*
X82068Y552503D01*
X81836Y551943D01*
X81836Y540257D01*
X82068Y539697D01*
X82497Y539268D01*
X83057Y539036D01*
G37*
G36*
X57657Y539036D02*
X69343Y539036D01*
X69903Y539268D01*
X70332Y539697D01*
X70564Y540257D01*
X70564Y551943D01*
X70332Y552503D01*
X69903Y552932D01*
X69343Y553164D01*
X57657Y553164D01*
X57097Y552932D01*
X56668Y552503D01*
X56436Y551943D01*
X56436Y540257D01*
X56668Y539697D01*
X57097Y539268D01*
X57657Y539036D01*
G37*
G36*
X667257Y539036D02*
X678943Y539036D01*
X679503Y539268D01*
X679932Y539697D01*
X680164Y540257D01*
X680164Y551943D01*
X679932Y552503D01*
X679503Y552932D01*
X678943Y553164D01*
X667257Y553164D01*
X666697Y552932D01*
X666268Y552503D01*
X666036Y551943D01*
X666036Y540257D01*
X666268Y539697D01*
X666697Y539268D01*
X667257Y539036D01*
G37*
G36*
X641857Y539036D02*
X653543Y539036D01*
X654103Y539268D01*
X654532Y539697D01*
X654764Y540257D01*
X654764Y551943D01*
X654532Y552503D01*
X654103Y552932D01*
X653543Y553164D01*
X641857Y553164D01*
X641297Y552932D01*
X640868Y552503D01*
X640636Y551943D01*
X640636Y540257D01*
X640868Y539697D01*
X641297Y539268D01*
X641857Y539036D01*
G37*
G36*
X591057Y539036D02*
X602743Y539036D01*
X603303Y539268D01*
X603732Y539697D01*
X603964Y540257D01*
X603964Y551943D01*
X603732Y552503D01*
X603303Y552932D01*
X602743Y553164D01*
X591057Y553164D01*
X590497Y552932D01*
X590068Y552503D01*
X589836Y551943D01*
X589836Y540257D01*
X590068Y539697D01*
X590497Y539268D01*
X591057Y539036D01*
G37*
G36*
X565657Y539036D02*
X577343Y539036D01*
X577903Y539268D01*
X578332Y539697D01*
X578564Y540257D01*
X578564Y551943D01*
X578332Y552503D01*
X577903Y552932D01*
X577343Y553164D01*
X565657Y553164D01*
X565097Y552932D01*
X564668Y552503D01*
X564436Y551943D01*
X564436Y540257D01*
X564668Y539697D01*
X565097Y539268D01*
X565657Y539036D01*
G37*
G36*
X540257Y539036D02*
X551943Y539036D01*
X552503Y539268D01*
X552932Y539697D01*
X553164Y540257D01*
X553164Y551943D01*
X552932Y552503D01*
X552503Y552932D01*
X551943Y553164D01*
X540257Y553164D01*
X539697Y552932D01*
X539268Y552503D01*
X539036Y551943D01*
X539036Y540257D01*
X539268Y539697D01*
X539697Y539268D01*
X540257Y539036D01*
G37*
G36*
X337057Y539036D02*
X348743Y539036D01*
X349303Y539268D01*
X349732Y539697D01*
X349964Y540257D01*
X349964Y551943D01*
X349732Y552503D01*
X349303Y552932D01*
X348743Y553164D01*
X337057Y553164D01*
X336497Y552932D01*
X336068Y552503D01*
X335836Y551943D01*
X335836Y540257D01*
X336068Y539697D01*
X336497Y539268D01*
X337057Y539036D01*
G37*
G36*
X311657Y539036D02*
X323343Y539036D01*
X323903Y539268D01*
X324332Y539697D01*
X324564Y540257D01*
X324564Y551943D01*
X324332Y552503D01*
X323903Y552932D01*
X323343Y553164D01*
X311657Y553164D01*
X311097Y552932D01*
X310668Y552503D01*
X310436Y551943D01*
X310436Y540257D01*
X310668Y539697D01*
X311097Y539268D01*
X311657Y539036D01*
G37*
G36*
X286257Y539036D02*
X297943Y539036D01*
X298503Y539268D01*
X298932Y539697D01*
X299164Y540257D01*
X299164Y551943D01*
X298932Y552503D01*
X298503Y552932D01*
X297943Y553164D01*
X286257Y553164D01*
X285697Y552932D01*
X285268Y552503D01*
X285036Y551943D01*
X285036Y540257D01*
X285268Y539697D01*
X285697Y539268D01*
X286257Y539036D01*
G37*
G36*
X260857Y539036D02*
X272543Y539036D01*
X273103Y539268D01*
X273532Y539697D01*
X273764Y540257D01*
X273764Y551943D01*
X273532Y552503D01*
X273103Y552932D01*
X272543Y553164D01*
X260857Y553164D01*
X260297Y552932D01*
X259868Y552503D01*
X259636Y551943D01*
X259636Y540257D01*
X259868Y539697D01*
X260297Y539268D01*
X260857Y539036D01*
G37*
G36*
X235457Y539036D02*
X247143Y539036D01*
X247703Y539268D01*
X248132Y539697D01*
X248364Y540257D01*
X248364Y551943D01*
X248132Y552503D01*
X247703Y552932D01*
X247143Y553164D01*
X235457Y553164D01*
X234897Y552932D01*
X234468Y552503D01*
X234236Y551943D01*
X234236Y540257D01*
X234468Y539697D01*
X234897Y539268D01*
X235457Y539036D01*
G37*
G36*
X32257Y513636D02*
X43943Y513636D01*
X44503Y513868D01*
X44932Y514297D01*
X45164Y514857D01*
X45164Y526543D01*
X44932Y527103D01*
X44503Y527532D01*
X43943Y527764D01*
X32257Y527764D01*
X31697Y527532D01*
X31268Y527103D01*
X31036Y526543D01*
X31036Y514857D01*
X31268Y514297D01*
X31697Y513868D01*
X32257Y513636D01*
G37*
G36*
X83057Y513636D02*
X94743Y513636D01*
X95303Y513868D01*
X95732Y514297D01*
X95964Y514857D01*
X95964Y526543D01*
X95732Y527103D01*
X95303Y527532D01*
X94743Y527764D01*
X83057Y527764D01*
X82497Y527532D01*
X82068Y527103D01*
X81836Y526543D01*
X81836Y514857D01*
X82068Y514297D01*
X82497Y513868D01*
X83057Y513636D01*
G37*
G36*
X108457Y513636D02*
X120143Y513636D01*
X120703Y513868D01*
X121132Y514297D01*
X121364Y514857D01*
X121364Y526543D01*
X121132Y527103D01*
X120703Y527532D01*
X120143Y527764D01*
X108457Y527764D01*
X107897Y527532D01*
X107468Y527103D01*
X107236Y526543D01*
X107236Y514857D01*
X107468Y514297D01*
X107897Y513868D01*
X108457Y513636D01*
G37*
G36*
X57657Y513636D02*
X69343Y513636D01*
X69903Y513868D01*
X70332Y514297D01*
X70564Y514857D01*
X70564Y526543D01*
X70332Y527103D01*
X69903Y527532D01*
X69343Y527764D01*
X57657Y527764D01*
X57097Y527532D01*
X56668Y527103D01*
X56436Y526543D01*
X56436Y514857D01*
X56668Y514297D01*
X57097Y513868D01*
X57657Y513636D01*
G37*
G36*
X133857Y513636D02*
X145543Y513636D01*
X146103Y513868D01*
X146532Y514297D01*
X146764Y514857D01*
X146764Y526543D01*
X146532Y527103D01*
X146103Y527532D01*
X145543Y527764D01*
X133857Y527764D01*
X133297Y527532D01*
X132868Y527103D01*
X132636Y526543D01*
X132636Y514857D01*
X132868Y514297D01*
X133297Y513868D01*
X133857Y513636D01*
G37*
G36*
X235457Y513636D02*
X247143Y513636D01*
X247703Y513868D01*
X248132Y514297D01*
X248364Y514857D01*
X248364Y526543D01*
X248132Y527103D01*
X247703Y527532D01*
X247143Y527764D01*
X235457Y527764D01*
X234897Y527532D01*
X234468Y527103D01*
X234236Y526543D01*
X234236Y514857D01*
X234468Y514297D01*
X234897Y513868D01*
X235457Y513636D01*
G37*
G36*
X260857Y513636D02*
X272543Y513636D01*
X273103Y513868D01*
X273532Y514297D01*
X273764Y514857D01*
X273764Y526543D01*
X273532Y527103D01*
X273103Y527532D01*
X272543Y527764D01*
X260857Y527764D01*
X260297Y527532D01*
X259868Y527103D01*
X259636Y526543D01*
X259636Y514857D01*
X259868Y514297D01*
X260297Y513868D01*
X260857Y513636D01*
G37*
G36*
X286257Y513636D02*
X297943Y513636D01*
X298503Y513868D01*
X298932Y514297D01*
X299164Y514857D01*
X299164Y526543D01*
X298932Y527103D01*
X298503Y527532D01*
X297943Y527764D01*
X286257Y527764D01*
X285697Y527532D01*
X285268Y527103D01*
X285036Y526543D01*
X285036Y514857D01*
X285268Y514297D01*
X285697Y513868D01*
X286257Y513636D01*
G37*
G36*
X311657Y513636D02*
X323343Y513636D01*
X323903Y513868D01*
X324332Y514297D01*
X324564Y514857D01*
X324564Y526543D01*
X324332Y527103D01*
X323903Y527532D01*
X323343Y527764D01*
X311657Y527764D01*
X311097Y527532D01*
X310668Y527103D01*
X310436Y526543D01*
X310436Y514857D01*
X310668Y514297D01*
X311097Y513868D01*
X311657Y513636D01*
G37*
G36*
X641857Y513636D02*
X653543Y513636D01*
X654103Y513868D01*
X654532Y514297D01*
X654764Y514857D01*
X654764Y526543D01*
X654532Y527103D01*
X654103Y527532D01*
X653543Y527764D01*
X641857Y527764D01*
X641297Y527532D01*
X640868Y527103D01*
X640636Y526543D01*
X640636Y514857D01*
X640868Y514297D01*
X641297Y513868D01*
X641857Y513636D01*
G37*
G36*
X667257Y513636D02*
X678943Y513636D01*
X679503Y513868D01*
X679932Y514297D01*
X680164Y514857D01*
X680164Y526543D01*
X679932Y527103D01*
X679503Y527532D01*
X678943Y527764D01*
X667257Y527764D01*
X666697Y527532D01*
X666268Y527103D01*
X666036Y526543D01*
X666036Y514857D01*
X666268Y514297D01*
X666697Y513868D01*
X667257Y513636D01*
G37*
G36*
X159257Y513636D02*
X170943Y513636D01*
X171503Y513868D01*
X171932Y514297D01*
X172164Y514857D01*
X172164Y526543D01*
X171932Y527103D01*
X171503Y527532D01*
X170943Y527764D01*
X159257Y527764D01*
X158697Y527532D01*
X158268Y527103D01*
X158036Y526543D01*
X158036Y514857D01*
X158268Y514297D01*
X158697Y513868D01*
X159257Y513636D01*
G37*
G36*
X423656Y30036D02*
X439944Y30036D01*
X442908Y31264D01*
X445176Y33532D01*
X446404Y36496D01*
X446404Y39704D01*
X445176Y42668D01*
X442908Y44936D01*
X440082Y46107D01*
X438580Y47068D01*
X437397Y48707D01*
X436948Y50679D01*
X437303Y52669D01*
X438406Y54363D01*
X440082Y55493D01*
X442908Y56664D01*
X445176Y58932D01*
X446404Y61896D01*
X446404Y65104D01*
X445176Y68068D01*
X442908Y70336D01*
X440082Y71507D01*
X438580Y72468D01*
X437397Y74107D01*
X436948Y76079D01*
X437303Y78069D01*
X438406Y79763D01*
X440082Y80893D01*
X442908Y82064D01*
X445176Y84332D01*
X446404Y87296D01*
X446404Y90504D01*
X445176Y93468D01*
X442908Y95736D01*
X440082Y96907D01*
X438580Y97868D01*
X437397Y99507D01*
X436948Y101479D01*
X437303Y103469D01*
X438406Y105163D01*
X440082Y106293D01*
X442908Y107464D01*
X445176Y109732D01*
X446404Y112696D01*
X446404Y116101D01*
X446109Y117472D01*
X446448Y119465D01*
X447537Y121168D01*
X449205Y122312D01*
X451186Y122714D01*
X452634Y122714D01*
X454465Y122372D01*
X456168Y121283D01*
X457312Y119615D01*
X457714Y117634D01*
X457714Y109545D01*
X458062Y108705D01*
X528705Y38062D01*
X529545Y37714D01*
X565697Y37714D01*
X567566Y37358D01*
X569260Y36255D01*
X570390Y34578D01*
X570824Y33532D01*
X573092Y31264D01*
X576056Y30036D01*
X592344Y30036D01*
X595308Y31264D01*
X597576Y33532D01*
X598804Y36496D01*
X598804Y39704D01*
X597576Y42668D01*
X595308Y44936D01*
X592482Y46107D01*
X590980Y47068D01*
X589797Y48707D01*
X589348Y50679D01*
X589703Y52669D01*
X590806Y54363D01*
X592482Y55493D01*
X595308Y56664D01*
X597576Y58932D01*
X598804Y61896D01*
X598804Y65104D01*
X597576Y68068D01*
X595308Y70336D01*
X592482Y71507D01*
X590980Y72468D01*
X589797Y74107D01*
X589348Y76079D01*
X589703Y78069D01*
X590806Y79763D01*
X592482Y80893D01*
X595308Y82064D01*
X597576Y84332D01*
X598804Y87296D01*
X598804Y90504D01*
X597369Y93968D01*
X596922Y94627D01*
X596503Y96605D01*
X596890Y98589D01*
X597286Y99545D01*
X597286Y101949D01*
X597657Y103855D01*
X598774Y105541D01*
X611938Y118705D01*
X612286Y119545D01*
X612286Y307678D01*
X612657Y309585D01*
X613774Y311270D01*
X614498Y311994D01*
X615306Y313945D01*
X615306Y316055D01*
X614498Y318006D01*
X614447Y318057D01*
X613444Y319483D01*
X613189Y320522D01*
X612126Y320297D01*
X612066Y320309D01*
X612066Y320306D01*
X608945Y320306D01*
X606994Y319498D01*
X606463Y318967D01*
X604964Y317930D01*
X602993Y317481D01*
X601002Y317836D01*
X599308Y318939D01*
X598178Y320615D01*
X597576Y322068D01*
X595308Y324336D01*
X592482Y325507D01*
X590980Y326468D01*
X589797Y328107D01*
X589348Y330079D01*
X589703Y332069D01*
X590806Y333763D01*
X592482Y334893D01*
X595308Y336064D01*
X597576Y338332D01*
X598804Y341296D01*
X598804Y344504D01*
X597576Y347468D01*
X595308Y349736D01*
X593810Y350357D01*
X592308Y351318D01*
X591125Y352957D01*
X590675Y354929D01*
X591030Y356919D01*
X592133Y358613D01*
X593810Y359743D01*
X595883Y360602D01*
X598438Y363157D01*
X598508Y363326D01*
X599496Y364858D01*
X601145Y366027D01*
X603120Y366461D01*
X605108Y366090D01*
X606793Y364974D01*
X612593Y359174D01*
X613663Y357601D01*
X614081Y355623D01*
X613694Y353638D01*
X613156Y352339D01*
X613156Y333461D01*
X614548Y330100D01*
X615679Y328969D01*
X616683Y327542D01*
X616936Y326504D01*
X617999Y326729D01*
X619983Y326342D01*
X620481Y326136D01*
X624119Y326136D01*
X627480Y327528D01*
X630052Y330100D01*
X630307Y330715D01*
X631268Y332218D01*
X632907Y333400D01*
X634879Y333850D01*
X636869Y333495D01*
X638563Y332392D01*
X639693Y330715D01*
X639948Y330100D01*
X642520Y327528D01*
X645881Y326136D01*
X647634Y326136D01*
X649465Y325794D01*
X651168Y324705D01*
X652312Y323037D01*
X652714Y321056D01*
X652714Y280719D01*
X652415Y279001D01*
X651485Y277468D01*
X652312Y276263D01*
X652714Y274281D01*
X652714Y233051D01*
X652343Y231145D01*
X651226Y229459D01*
X645958Y224191D01*
X644495Y223171D01*
X642528Y222706D01*
X640535Y223045D01*
X638832Y224134D01*
X637688Y225802D01*
X637286Y227783D01*
X637286Y266617D01*
X637657Y268524D01*
X638774Y270209D01*
X641633Y273068D01*
X642941Y276225D01*
X643774Y277539D01*
X642941Y278775D01*
X641633Y281932D01*
X639432Y284133D01*
X636556Y285324D01*
X633444Y285324D01*
X630568Y284133D01*
X628367Y281932D01*
X627176Y279056D01*
X627176Y275944D01*
X628367Y273068D01*
X631226Y270209D01*
X632312Y268598D01*
X632714Y266617D01*
X632714Y223051D01*
X632343Y221145D01*
X631226Y219459D01*
X623062Y211295D01*
X622714Y210455D01*
X622714Y134545D01*
X623062Y133705D01*
X623705Y133062D01*
X624545Y132714D01*
X636949Y132714D01*
X638855Y132343D01*
X640541Y131226D01*
X656226Y115541D01*
X657312Y113930D01*
X657714Y111949D01*
X657714Y109306D01*
X657415Y107588D01*
X656366Y105860D01*
X654727Y104677D01*
X652755Y104227D01*
X650765Y104582D01*
X649071Y105685D01*
X647941Y107362D01*
X647005Y109621D01*
X643021Y113605D01*
X637817Y115761D01*
X635762Y115761D01*
X635762Y87440D01*
X637817Y87440D01*
X642192Y89252D01*
X643934Y89635D01*
X645930Y89311D01*
X647641Y88236D01*
X648798Y86577D01*
X649216Y84599D01*
X648829Y82615D01*
X647256Y78815D01*
X647256Y73585D01*
X648829Y69786D01*
X649212Y68044D01*
X648889Y66048D01*
X647813Y64336D01*
X646155Y63180D01*
X644177Y62762D01*
X642192Y63148D01*
X637817Y64961D01*
X635762Y64961D01*
X635762Y51562D01*
X649161Y51562D01*
X649161Y53617D01*
X647348Y57992D01*
X646966Y59734D01*
X647289Y61730D01*
X648365Y63441D01*
X650023Y64598D01*
X652001Y65016D01*
X653986Y64629D01*
X657785Y63056D01*
X663015Y63056D01*
X666815Y64629D01*
X668556Y65012D01*
X670552Y64689D01*
X672264Y63613D01*
X673420Y61955D01*
X673838Y59977D01*
X673452Y57992D01*
X671640Y53617D01*
X671640Y51562D01*
X685038Y51562D01*
X685038Y64961D01*
X682983Y64961D01*
X678608Y63148D01*
X676866Y62766D01*
X674870Y63089D01*
X673159Y64165D01*
X672002Y65823D01*
X671584Y67801D01*
X671971Y69786D01*
X673545Y73585D01*
X673545Y78815D01*
X671971Y82615D01*
X671588Y84356D01*
X671911Y86352D01*
X672987Y88064D01*
X674645Y89220D01*
X676623Y89638D01*
X678608Y89252D01*
X682983Y87440D01*
X685038Y87440D01*
X685038Y115761D01*
X682983Y115761D01*
X677779Y113605D01*
X673795Y109621D01*
X672059Y105430D01*
X671126Y103958D01*
X669495Y102762D01*
X667528Y102297D01*
X665535Y102636D01*
X663832Y103725D01*
X662688Y105393D01*
X662286Y107374D01*
X662286Y115455D01*
X661938Y116295D01*
X641295Y136938D01*
X640455Y137286D01*
X632366Y137286D01*
X630535Y137628D01*
X628832Y138717D01*
X627688Y140385D01*
X627286Y142366D01*
X627286Y192224D01*
X627613Y194017D01*
X628689Y195728D01*
X630347Y196885D01*
X632325Y197304D01*
X632467Y197276D01*
X636556Y197276D01*
X639432Y198467D01*
X641633Y200668D01*
X642824Y203544D01*
X642824Y206656D01*
X641799Y209131D01*
X641413Y210994D01*
X641784Y212982D01*
X642900Y214667D01*
X647529Y219296D01*
X648955Y220299D01*
X650919Y220780D01*
X652914Y220457D01*
X654626Y219381D01*
X655783Y217722D01*
X656201Y215744D01*
X655814Y213760D01*
X654694Y211055D01*
X654694Y208945D01*
X655502Y206994D01*
X656994Y205502D01*
X658945Y204694D01*
X661055Y204694D01*
X663006Y205502D01*
X664498Y206994D01*
X665306Y208945D01*
X665306Y211055D01*
X664498Y213006D01*
X663774Y213730D01*
X662688Y215341D01*
X662286Y217322D01*
X662286Y322259D01*
X662613Y324053D01*
X663689Y325764D01*
X665347Y326921D01*
X667326Y327339D01*
X669310Y326952D01*
X671281Y326136D01*
X674919Y326136D01*
X675690Y326455D01*
X677472Y326840D01*
X679465Y326501D01*
X681168Y325411D01*
X682312Y323743D01*
X682714Y321762D01*
X682714Y297322D01*
X682343Y295415D01*
X681226Y293730D01*
X680502Y293006D01*
X679694Y291055D01*
X679694Y288945D01*
X680502Y286994D01*
X681994Y285502D01*
X683945Y284694D01*
X686055Y284694D01*
X688006Y285502D01*
X689498Y286994D01*
X690306Y288945D01*
X690306Y291055D01*
X689498Y293006D01*
X688774Y293730D01*
X687688Y295341D01*
X687286Y297322D01*
X687286Y385455D01*
X686938Y386295D01*
X619069Y454164D01*
X618049Y455627D01*
X617584Y457594D01*
X617923Y459587D01*
X619012Y461290D01*
X620680Y462434D01*
X622661Y462836D01*
X628143Y462836D01*
X628703Y463068D01*
X629132Y463497D01*
X629364Y464057D01*
X629364Y475743D01*
X629132Y476303D01*
X628703Y476732D01*
X628143Y476964D01*
X617366Y476964D01*
X615535Y477306D01*
X613832Y478395D01*
X612688Y480063D01*
X612286Y482044D01*
X612286Y483156D01*
X612628Y484987D01*
X613717Y486690D01*
X615385Y487834D01*
X617366Y488236D01*
X628143Y488236D01*
X628703Y488468D01*
X629132Y488897D01*
X629364Y489457D01*
X629364Y501143D01*
X629132Y501703D01*
X628703Y502132D01*
X628143Y502364D01*
X617366Y502364D01*
X615535Y502706D01*
X613832Y503795D01*
X612688Y505463D01*
X612286Y507444D01*
X612286Y508556D01*
X612628Y510387D01*
X613717Y512090D01*
X615385Y513234D01*
X617366Y513636D01*
X628143Y513636D01*
X628703Y513868D01*
X629132Y514297D01*
X629364Y514857D01*
X629364Y526543D01*
X629132Y527103D01*
X628703Y527532D01*
X628143Y527764D01*
X616457Y527764D01*
X615897Y527532D01*
X615468Y527103D01*
X615236Y526543D01*
X615236Y517366D01*
X614894Y515535D01*
X613805Y513832D01*
X612137Y512688D01*
X610156Y512286D01*
X609044Y512286D01*
X607213Y512628D01*
X605510Y513717D01*
X604366Y515385D01*
X603964Y517366D01*
X603964Y526543D01*
X603732Y527103D01*
X603303Y527532D01*
X602743Y527764D01*
X591057Y527764D01*
X590497Y527532D01*
X590068Y527103D01*
X589836Y526543D01*
X589836Y517366D01*
X589494Y515535D01*
X588405Y513832D01*
X586737Y512688D01*
X584756Y512286D01*
X583644Y512286D01*
X581813Y512628D01*
X580110Y513717D01*
X578966Y515385D01*
X578564Y517366D01*
X578564Y526543D01*
X578332Y527103D01*
X577903Y527532D01*
X577343Y527764D01*
X565657Y527764D01*
X565097Y527532D01*
X564668Y527103D01*
X564436Y526543D01*
X564436Y517366D01*
X564094Y515535D01*
X563005Y513832D01*
X561337Y512688D01*
X559356Y512286D01*
X558244Y512286D01*
X556413Y512628D01*
X554710Y513717D01*
X553566Y515385D01*
X553164Y517366D01*
X553164Y526543D01*
X552932Y527103D01*
X552503Y527532D01*
X551943Y527764D01*
X540257Y527764D01*
X539697Y527532D01*
X539268Y527103D01*
X539036Y526543D01*
X539036Y517366D01*
X538694Y515535D01*
X537605Y513832D01*
X535937Y512688D01*
X533956Y512286D01*
X532844Y512286D01*
X531013Y512628D01*
X529310Y513717D01*
X528166Y515385D01*
X527764Y517366D01*
X527764Y526543D01*
X527532Y527103D01*
X527103Y527532D01*
X526543Y527764D01*
X514857Y527764D01*
X514297Y527532D01*
X513868Y527103D01*
X513636Y526543D01*
X513636Y517366D01*
X513294Y515535D01*
X512205Y513832D01*
X510537Y512688D01*
X508556Y512286D01*
X507444Y512286D01*
X505613Y512628D01*
X503910Y513717D01*
X502766Y515385D01*
X502364Y517366D01*
X502364Y526543D01*
X502132Y527103D01*
X501703Y527532D01*
X501143Y527764D01*
X489457Y527764D01*
X488897Y527532D01*
X488468Y527103D01*
X488236Y526543D01*
X488236Y517366D01*
X487894Y515535D01*
X486805Y513832D01*
X485137Y512688D01*
X483156Y512286D01*
X482044Y512286D01*
X480213Y512628D01*
X478510Y513717D01*
X477366Y515385D01*
X476964Y517366D01*
X476964Y526543D01*
X476732Y527103D01*
X476303Y527532D01*
X475743Y527764D01*
X464057Y527764D01*
X463497Y527532D01*
X463068Y527103D01*
X462836Y526543D01*
X462836Y517366D01*
X462494Y515535D01*
X461405Y513832D01*
X459737Y512688D01*
X457756Y512286D01*
X456644Y512286D01*
X454813Y512628D01*
X453110Y513717D01*
X451966Y515385D01*
X451564Y517366D01*
X451564Y526543D01*
X451332Y527103D01*
X450903Y527532D01*
X450343Y527764D01*
X438657Y527764D01*
X438097Y527532D01*
X437668Y527103D01*
X437436Y526543D01*
X437436Y517366D01*
X437094Y515535D01*
X436005Y513832D01*
X434337Y512688D01*
X432356Y512286D01*
X431244Y512286D01*
X429413Y512628D01*
X427710Y513717D01*
X426566Y515385D01*
X426164Y517366D01*
X426164Y526543D01*
X425932Y527103D01*
X425503Y527532D01*
X424943Y527764D01*
X413257Y527764D01*
X412697Y527532D01*
X412268Y527103D01*
X412036Y526543D01*
X412036Y517366D01*
X411694Y515535D01*
X410605Y513832D01*
X408937Y512688D01*
X406956Y512286D01*
X405844Y512286D01*
X404013Y512628D01*
X402310Y513717D01*
X401166Y515385D01*
X400764Y517366D01*
X400764Y526543D01*
X400532Y527103D01*
X400103Y527532D01*
X399543Y527764D01*
X387857Y527764D01*
X387297Y527532D01*
X386868Y527103D01*
X386636Y526543D01*
X386636Y517366D01*
X386294Y515535D01*
X385205Y513832D01*
X383537Y512688D01*
X381556Y512286D01*
X380444Y512286D01*
X378613Y512628D01*
X376910Y513717D01*
X375766Y515385D01*
X375364Y517366D01*
X375364Y526543D01*
X375132Y527103D01*
X374703Y527532D01*
X374143Y527764D01*
X362457Y527764D01*
X361897Y527532D01*
X361468Y527103D01*
X361236Y526543D01*
X361236Y517366D01*
X360894Y515535D01*
X359805Y513832D01*
X358137Y512688D01*
X356156Y512286D01*
X355044Y512286D01*
X353213Y512628D01*
X351510Y513717D01*
X350366Y515385D01*
X349964Y517366D01*
X349964Y526543D01*
X349732Y527103D01*
X349303Y527532D01*
X348743Y527764D01*
X337057Y527764D01*
X336497Y527532D01*
X336068Y527103D01*
X335836Y526543D01*
X335836Y514857D01*
X336232Y513900D01*
X336618Y512037D01*
X336248Y510050D01*
X335131Y508364D01*
X329836Y503069D01*
X328262Y501999D01*
X326284Y501581D01*
X324300Y501968D01*
X323343Y502364D01*
X311657Y502364D01*
X311097Y502132D01*
X310668Y501703D01*
X310436Y501143D01*
X310436Y492366D01*
X310094Y490535D01*
X309005Y488832D01*
X307337Y487688D01*
X305356Y487286D01*
X304244Y487286D01*
X302413Y487628D01*
X300710Y488717D01*
X299566Y490385D01*
X299164Y492366D01*
X299164Y501143D01*
X298932Y501703D01*
X298503Y502132D01*
X297943Y502364D01*
X286257Y502364D01*
X285697Y502132D01*
X285268Y501703D01*
X285036Y501143D01*
X285036Y492366D01*
X284694Y490535D01*
X283605Y488832D01*
X281937Y487688D01*
X279956Y487286D01*
X278844Y487286D01*
X277013Y487628D01*
X275310Y488717D01*
X274166Y490385D01*
X273764Y492366D01*
X273764Y501143D01*
X273532Y501703D01*
X273103Y502132D01*
X272543Y502364D01*
X260857Y502364D01*
X260297Y502132D01*
X259868Y501703D01*
X259636Y501143D01*
X259636Y492366D01*
X259294Y490535D01*
X258205Y488832D01*
X256537Y487688D01*
X254556Y487286D01*
X253444Y487286D01*
X251613Y487628D01*
X249910Y488717D01*
X248766Y490385D01*
X248364Y492366D01*
X248364Y501143D01*
X248132Y501703D01*
X247703Y502132D01*
X247143Y502364D01*
X235457Y502364D01*
X234897Y502132D01*
X234468Y501703D01*
X234236Y501143D01*
X234236Y492366D01*
X233894Y490535D01*
X232805Y488832D01*
X231137Y487688D01*
X229156Y487286D01*
X228044Y487286D01*
X226213Y487628D01*
X224510Y488717D01*
X223366Y490385D01*
X222964Y492366D01*
X222964Y501143D01*
X222732Y501703D01*
X222303Y502132D01*
X221743Y502364D01*
X210057Y502364D01*
X209497Y502132D01*
X209068Y501703D01*
X208836Y501143D01*
X208836Y492366D01*
X208494Y490535D01*
X207405Y488832D01*
X205737Y487688D01*
X203756Y487286D01*
X202644Y487286D01*
X200813Y487628D01*
X199110Y488717D01*
X197966Y490385D01*
X197564Y492366D01*
X197564Y501143D01*
X197332Y501703D01*
X196903Y502132D01*
X196343Y502364D01*
X184657Y502364D01*
X184097Y502132D01*
X183668Y501703D01*
X183436Y501143D01*
X183436Y488773D01*
X183065Y486867D01*
X181948Y485181D01*
X180281Y483514D01*
X178855Y482511D01*
X178100Y482326D01*
X178003Y481805D01*
X176886Y480119D01*
X175219Y478452D01*
X173608Y477366D01*
X171627Y476964D01*
X159257Y476964D01*
X158697Y476732D01*
X158268Y476303D01*
X158036Y475743D01*
X158036Y464057D01*
X158063Y463991D01*
X158276Y463041D01*
X159191Y462863D01*
X159257Y462836D01*
X170943Y462836D01*
X171503Y463068D01*
X171932Y463497D01*
X172164Y464057D01*
X172164Y466827D01*
X172535Y468733D01*
X173652Y470419D01*
X174764Y471531D01*
X176227Y472551D01*
X178194Y473016D01*
X180187Y472677D01*
X181890Y471588D01*
X183034Y469920D01*
X183436Y467939D01*
X183436Y464057D01*
X183668Y463497D01*
X184097Y463068D01*
X184657Y462836D01*
X196343Y462836D01*
X196903Y463068D01*
X197332Y463497D01*
X197564Y464057D01*
X197564Y467227D01*
X197935Y469133D01*
X199052Y470819D01*
X200164Y471931D01*
X201627Y472951D01*
X203594Y473416D01*
X205587Y473077D01*
X207290Y471988D01*
X208434Y470320D01*
X208836Y468339D01*
X208836Y464057D01*
X209068Y463497D01*
X209497Y463068D01*
X210057Y462836D01*
X216827Y462836D01*
X218733Y462465D01*
X220419Y461348D01*
X323206Y358561D01*
X324292Y356950D01*
X324694Y354969D01*
X324694Y353945D01*
X325502Y351994D01*
X326994Y350502D01*
X328945Y349694D01*
X331055Y349694D01*
X333006Y350502D01*
X334498Y351994D01*
X335306Y353945D01*
X335306Y356055D01*
X334186Y358760D01*
X334106Y359118D01*
X333760Y359186D01*
X331055Y360306D01*
X330031Y360306D01*
X328125Y360677D01*
X326439Y361794D01*
X234069Y454164D01*
X233049Y455627D01*
X232584Y457594D01*
X232923Y459587D01*
X234012Y461290D01*
X235680Y462434D01*
X237661Y462836D01*
X241827Y462836D01*
X243733Y462465D01*
X245419Y461348D01*
X339296Y367471D01*
X340299Y366045D01*
X340438Y365477D01*
X340786Y365412D01*
X342471Y364296D01*
X351226Y355541D01*
X352312Y353930D01*
X352714Y351949D01*
X352714Y220151D01*
X352387Y218357D01*
X351311Y216646D01*
X349653Y215489D01*
X347675Y215071D01*
X346467Y215306D01*
X345031Y215306D01*
X343125Y215677D01*
X341439Y216794D01*
X215704Y342529D01*
X214701Y343955D01*
X214562Y344523D01*
X214214Y344588D01*
X212529Y345704D01*
X104069Y454164D01*
X103049Y455627D01*
X102584Y457594D01*
X102701Y458284D01*
X102237Y458182D01*
X100249Y458552D01*
X98564Y459669D01*
X97452Y460781D01*
X96366Y462392D01*
X95964Y464373D01*
X95964Y475743D01*
X95732Y476303D01*
X95303Y476732D01*
X94743Y476964D01*
X83057Y476964D01*
X82497Y476732D01*
X82068Y476303D01*
X81836Y475743D01*
X81836Y463661D01*
X81652Y462631D01*
X82661Y462836D01*
X86827Y462836D01*
X88733Y462465D01*
X90419Y461348D01*
X284296Y267471D01*
X285299Y266045D01*
X285438Y265477D01*
X285786Y265412D01*
X287471Y264296D01*
X338206Y213561D01*
X339292Y211950D01*
X339694Y209969D01*
X339694Y208945D01*
X340502Y206994D01*
X341994Y205502D01*
X343945Y204694D01*
X346392Y204694D01*
X347472Y204927D01*
X349465Y204588D01*
X351168Y203498D01*
X352312Y201831D01*
X352714Y199849D01*
X352714Y157783D01*
X352401Y156028D01*
X351339Y154307D01*
X349690Y153138D01*
X347715Y152704D01*
X345727Y153074D01*
X344042Y154191D01*
X321295Y176938D01*
X320455Y177286D01*
X222366Y177286D01*
X220535Y177628D01*
X218832Y178717D01*
X217688Y180385D01*
X217286Y182366D01*
X217286Y220962D01*
X217642Y222831D01*
X218745Y224526D01*
X220422Y225656D01*
X221080Y225928D01*
X223652Y228500D01*
X225044Y231861D01*
X225044Y250739D01*
X223652Y254100D01*
X221080Y256672D01*
X217719Y258064D01*
X214081Y258064D01*
X210720Y256672D01*
X208148Y254100D01*
X207893Y253485D01*
X206932Y251982D01*
X205293Y250800D01*
X203321Y250350D01*
X201331Y250705D01*
X199637Y251808D01*
X198507Y253485D01*
X198252Y254100D01*
X195680Y256672D01*
X192319Y258064D01*
X188681Y258064D01*
X185320Y256672D01*
X182748Y254100D01*
X182493Y253485D01*
X181532Y251982D01*
X179893Y250800D01*
X177921Y250350D01*
X175931Y250705D01*
X174237Y251808D01*
X173107Y253485D01*
X172852Y254100D01*
X170280Y256672D01*
X166919Y258064D01*
X163281Y258064D01*
X159920Y256672D01*
X157348Y254100D01*
X157093Y253485D01*
X156132Y251982D01*
X154493Y250800D01*
X152521Y250350D01*
X150531Y250705D01*
X148837Y251808D01*
X147707Y253485D01*
X147452Y254100D01*
X144880Y256672D01*
X141519Y258064D01*
X137881Y258064D01*
X134520Y256672D01*
X131948Y254100D01*
X131693Y253485D01*
X130732Y251982D01*
X129093Y250800D01*
X127121Y250350D01*
X125131Y250705D01*
X123437Y251808D01*
X122307Y253485D01*
X122052Y254100D01*
X119480Y256672D01*
X116119Y258064D01*
X112481Y258064D01*
X109120Y256672D01*
X106548Y254100D01*
X106293Y253485D01*
X105332Y251982D01*
X103693Y250800D01*
X101721Y250350D01*
X99731Y250705D01*
X98037Y251808D01*
X96907Y253485D01*
X96652Y254100D01*
X94080Y256672D01*
X90719Y258064D01*
X87081Y258064D01*
X83720Y256672D01*
X80702Y253654D01*
X80482Y253310D01*
X78842Y252127D01*
X76871Y251678D01*
X74881Y252032D01*
X73186Y253136D01*
X72222Y254566D01*
X69255Y257533D01*
X65521Y259080D01*
X64262Y259080D01*
X64262Y223520D01*
X65521Y223520D01*
X69255Y225067D01*
X72199Y228010D01*
X73017Y229290D01*
X74657Y230473D01*
X76628Y230922D01*
X78619Y230568D01*
X80313Y229465D01*
X80581Y229068D01*
X83720Y225928D01*
X87081Y224536D01*
X90719Y224536D01*
X94326Y226030D01*
X95404Y226769D01*
X97378Y227203D01*
X99366Y226832D01*
X101051Y225716D01*
X183705Y143062D01*
X184545Y142714D01*
X302217Y142714D01*
X303972Y142401D01*
X305693Y141339D01*
X306862Y139690D01*
X307296Y137715D01*
X306926Y135727D01*
X305809Y134042D01*
X298314Y126547D01*
X296740Y125477D01*
X294762Y125059D01*
X292778Y125445D01*
X290693Y126309D01*
X287307Y126309D01*
X284180Y125014D01*
X283111Y123944D01*
X281574Y122891D01*
X279599Y122457D01*
X277612Y122828D01*
X275926Y123944D01*
X273995Y125875D01*
X270495Y127325D01*
X269362Y127325D01*
X269362Y117038D01*
X259075Y117038D01*
X259075Y115905D01*
X260525Y112405D01*
X263205Y109725D01*
X266461Y108376D01*
X268022Y107360D01*
X269179Y105702D01*
X269597Y103723D01*
X269275Y102070D01*
X269275Y100762D01*
X279562Y100762D01*
X279562Y90475D01*
X280695Y90475D01*
X284196Y91925D01*
X286126Y93856D01*
X287663Y94909D01*
X289638Y95343D01*
X291625Y94972D01*
X293311Y93856D01*
X294380Y92786D01*
X297507Y91491D01*
X300893Y91491D01*
X304020Y92786D01*
X305808Y94574D01*
X307344Y95628D01*
X309319Y96062D01*
X311307Y95691D01*
X312992Y94574D01*
X314780Y92786D01*
X317907Y91491D01*
X321293Y91491D01*
X324420Y92786D01*
X326208Y94574D01*
X327744Y95628D01*
X329719Y96062D01*
X331707Y95691D01*
X333392Y94574D01*
X335180Y92786D01*
X338320Y91486D01*
X339851Y90497D01*
X341021Y88848D01*
X341455Y86874D01*
X341084Y84886D01*
X339968Y83201D01*
X338062Y81295D01*
X337714Y80455D01*
X337714Y64545D01*
X338062Y63705D01*
X368705Y33062D01*
X369545Y32714D01*
X417138Y32714D01*
X419044Y32343D01*
X420641Y31285D01*
X423656Y30036D01*
G37*
G36*
X184657Y513636D02*
X196343Y513636D01*
X196903Y513868D01*
X197332Y514297D01*
X197564Y514857D01*
X197564Y526543D01*
X197332Y527103D01*
X196903Y527532D01*
X196343Y527764D01*
X184657Y527764D01*
X184097Y527532D01*
X183668Y527103D01*
X183436Y526543D01*
X183436Y514857D01*
X183668Y514297D01*
X184097Y513868D01*
X184657Y513636D01*
G37*
G36*
X210057Y513636D02*
X221743Y513636D01*
X222303Y513868D01*
X222732Y514297D01*
X222964Y514857D01*
X222964Y526543D01*
X222732Y527103D01*
X222303Y527532D01*
X221743Y527764D01*
X210057Y527764D01*
X209497Y527532D01*
X209068Y527103D01*
X208836Y526543D01*
X208836Y514857D01*
X209068Y514297D01*
X209497Y513868D01*
X210057Y513636D01*
G37*
G36*
X83057Y488236D02*
X94743Y488236D01*
X95303Y488468D01*
X95732Y488897D01*
X95964Y489457D01*
X95964Y501143D01*
X95732Y501703D01*
X95303Y502132D01*
X94743Y502364D01*
X83057Y502364D01*
X82497Y502132D01*
X82068Y501703D01*
X81836Y501143D01*
X81836Y489457D01*
X82068Y488897D01*
X82497Y488468D01*
X83057Y488236D01*
G37*
G36*
X32257Y488236D02*
X43943Y488236D01*
X44503Y488468D01*
X44932Y488897D01*
X45164Y489457D01*
X45164Y501143D01*
X44932Y501703D01*
X44503Y502132D01*
X43943Y502364D01*
X32257Y502364D01*
X31697Y502132D01*
X31268Y501703D01*
X31036Y501143D01*
X31036Y489457D01*
X31268Y488897D01*
X31697Y488468D01*
X32257Y488236D01*
G37*
G36*
X667257Y488236D02*
X678943Y488236D01*
X679503Y488468D01*
X679932Y488897D01*
X680164Y489457D01*
X680164Y501143D01*
X679932Y501703D01*
X679503Y502132D01*
X678943Y502364D01*
X667257Y502364D01*
X666697Y502132D01*
X666268Y501703D01*
X666036Y501143D01*
X666036Y489457D01*
X666268Y488897D01*
X666697Y488468D01*
X667257Y488236D01*
G37*
G36*
X57657Y488236D02*
X69343Y488236D01*
X69903Y488468D01*
X70332Y488897D01*
X70564Y489457D01*
X70564Y501143D01*
X70332Y501703D01*
X69903Y502132D01*
X69343Y502364D01*
X57657Y502364D01*
X57097Y502132D01*
X56668Y501703D01*
X56436Y501143D01*
X56436Y489457D01*
X56668Y488897D01*
X57097Y488468D01*
X57657Y488236D01*
G37*
G36*
X108457Y488236D02*
X120143Y488236D01*
X120703Y488468D01*
X121132Y488897D01*
X121364Y489457D01*
X121364Y501143D01*
X121132Y501703D01*
X120703Y502132D01*
X120143Y502364D01*
X108457Y502364D01*
X107897Y502132D01*
X107468Y501703D01*
X107236Y501143D01*
X107236Y489457D01*
X107468Y488897D01*
X107897Y488468D01*
X108457Y488236D01*
G37*
G36*
X133857Y488236D02*
X145543Y488236D01*
X146103Y488468D01*
X146532Y488897D01*
X146764Y489457D01*
X146764Y501143D01*
X146532Y501703D01*
X146103Y502132D01*
X145543Y502364D01*
X133857Y502364D01*
X133297Y502132D01*
X132868Y501703D01*
X132636Y501143D01*
X132636Y489457D01*
X132868Y488897D01*
X133297Y488468D01*
X133857Y488236D01*
G37*
G36*
X159257Y488236D02*
X170943Y488236D01*
X171350Y488405D01*
X171893Y488526D01*
X171995Y489050D01*
X172164Y489457D01*
X172164Y501143D01*
X171932Y501703D01*
X171503Y502132D01*
X170943Y502364D01*
X159257Y502364D01*
X158697Y502132D01*
X158268Y501703D01*
X158036Y501143D01*
X158036Y489457D01*
X158268Y488897D01*
X158697Y488468D01*
X159257Y488236D01*
G37*
G36*
X641857Y488236D02*
X653543Y488236D01*
X654103Y488468D01*
X654532Y488897D01*
X654764Y489457D01*
X654764Y501143D01*
X654532Y501703D01*
X654103Y502132D01*
X653543Y502364D01*
X641857Y502364D01*
X641297Y502132D01*
X640868Y501703D01*
X640636Y501143D01*
X640636Y489457D01*
X640868Y488897D01*
X641297Y488468D01*
X641857Y488236D01*
G37*
G36*
X639620Y470662D02*
X646938Y470662D01*
X646938Y477980D01*
X641655Y477980D01*
X640721Y477593D01*
X640007Y476879D01*
X639620Y475945D01*
X639620Y470662D01*
G37*
G36*
X648462Y470662D02*
X655780Y470662D01*
X655780Y475945D01*
X655393Y476879D01*
X654679Y477593D01*
X653745Y477980D01*
X648462Y477980D01*
X648462Y470662D01*
G37*
G36*
X223945Y349694D02*
X226055Y349694D01*
X228006Y350502D01*
X229498Y351994D01*
X230306Y353945D01*
X230306Y356055D01*
X229186Y358760D01*
X229106Y359118D01*
X228760Y359186D01*
X226055Y360306D01*
X225031Y360306D01*
X223125Y360677D01*
X221439Y361794D01*
X128938Y454295D01*
X127935Y455721D01*
X127454Y457685D01*
X127458Y457709D01*
X125780Y458021D01*
X124095Y459138D01*
X122852Y460381D01*
X121766Y461992D01*
X121364Y463973D01*
X121364Y475743D01*
X121132Y476303D01*
X120703Y476732D01*
X120143Y476964D01*
X108457Y476964D01*
X107897Y476732D01*
X107468Y476303D01*
X107236Y475743D01*
X107236Y463261D01*
X107141Y462730D01*
X107661Y462836D01*
X111827Y462836D01*
X113733Y462465D01*
X115419Y461348D01*
X218206Y358561D01*
X219292Y356950D01*
X219694Y354969D01*
X219694Y353945D01*
X220814Y351240D01*
X220895Y350882D01*
X221240Y350814D01*
X223945Y349694D01*
G37*
G36*
X32257Y462836D02*
X43943Y462836D01*
X44503Y463068D01*
X44932Y463497D01*
X45164Y464057D01*
X45164Y475743D01*
X44932Y476303D01*
X44503Y476732D01*
X43943Y476964D01*
X32257Y476964D01*
X31697Y476732D01*
X31268Y476303D01*
X31036Y475743D01*
X31036Y464057D01*
X31268Y463497D01*
X31697Y463068D01*
X32257Y462836D01*
G37*
G36*
X273945Y249694D02*
X276055Y249694D01*
X278006Y250502D01*
X279498Y251994D01*
X280306Y253945D01*
X280306Y256055D01*
X279186Y258760D01*
X279106Y259118D01*
X278760Y259186D01*
X276055Y260306D01*
X275031Y260306D01*
X273125Y260677D01*
X271439Y261794D01*
X79069Y454164D01*
X78049Y455627D01*
X77584Y457594D01*
X77787Y458791D01*
X76837Y458582D01*
X74849Y458952D01*
X73164Y460069D01*
X72052Y461181D01*
X70966Y462792D01*
X70564Y464773D01*
X70564Y475743D01*
X70332Y476303D01*
X69903Y476732D01*
X69343Y476964D01*
X57657Y476964D01*
X57097Y476732D01*
X56668Y476303D01*
X56436Y475743D01*
X56436Y464057D01*
X56668Y463497D01*
X57097Y463068D01*
X57657Y462836D01*
X61827Y462836D01*
X63733Y462465D01*
X65419Y461348D01*
X268206Y258561D01*
X269292Y256950D01*
X269694Y254969D01*
X269694Y253945D01*
X270502Y251994D01*
X271994Y250502D01*
X273945Y249694D01*
G37*
G36*
X323945Y274694D02*
X326055Y274694D01*
X328006Y275502D01*
X329498Y276994D01*
X330306Y278945D01*
X330306Y281055D01*
X329498Y283006D01*
X328006Y284498D01*
X326055Y285306D01*
X325031Y285306D01*
X323125Y285677D01*
X321439Y286794D01*
X153655Y454578D01*
X152652Y456004D01*
X152367Y457170D01*
X151463Y457339D01*
X149778Y458455D01*
X148252Y459981D01*
X147166Y461592D01*
X146764Y463573D01*
X146764Y475743D01*
X146532Y476303D01*
X146103Y476732D01*
X145543Y476964D01*
X133857Y476964D01*
X133297Y476732D01*
X132868Y476303D01*
X132636Y475743D01*
X132636Y463532D01*
X132761Y462973D01*
X132752Y462916D01*
X133161Y462836D01*
X136827Y462836D01*
X138733Y462465D01*
X140419Y461348D01*
X234296Y367471D01*
X235299Y366045D01*
X235438Y365477D01*
X235786Y365412D01*
X237471Y364296D01*
X318206Y283561D01*
X319292Y281950D01*
X319694Y279969D01*
X319694Y278945D01*
X320502Y276994D01*
X321994Y275502D01*
X323945Y274694D01*
G37*
G36*
X667257Y462836D02*
X678943Y462836D01*
X679503Y463068D01*
X679932Y463497D01*
X680164Y464057D01*
X680164Y475743D01*
X679932Y476303D01*
X679503Y476732D01*
X678943Y476964D01*
X667257Y476964D01*
X666697Y476732D01*
X666268Y476303D01*
X666036Y475743D01*
X666036Y464057D01*
X666268Y463497D01*
X666697Y463068D01*
X667257Y462836D01*
G37*
G36*
X648462Y461820D02*
X653745Y461820D01*
X654679Y462207D01*
X655393Y462921D01*
X655780Y463855D01*
X655780Y469138D01*
X648462Y469138D01*
X648462Y461820D01*
G37*
G36*
X641655Y461820D02*
X646938Y461820D01*
X646938Y469138D01*
X639620Y469138D01*
X639620Y463855D01*
X640007Y462921D01*
X640721Y462207D01*
X641655Y461820D01*
G37*
G36*
X13462Y461820D02*
X18745Y461820D01*
X19679Y462207D01*
X20393Y462921D01*
X20780Y463855D01*
X20780Y469138D01*
X13462Y469138D01*
X13462Y461820D01*
G37*
G36*
X39302Y384302D02*
X48080Y384302D01*
X48080Y385438D01*
X46628Y388944D01*
X43944Y391628D01*
X40438Y393080D01*
X39302Y393080D01*
X39302Y384302D01*
G37*
G36*
X29000Y384302D02*
X37778Y384302D01*
X37778Y393080D01*
X36642Y393080D01*
X33136Y391628D01*
X30452Y388944D01*
X29000Y385438D01*
X29000Y384302D01*
G37*
G36*
X91845Y375016D02*
X95236Y375016D01*
X98369Y376314D01*
X100766Y378712D01*
X102064Y381845D01*
X102064Y385236D01*
X100766Y388369D01*
X98369Y390766D01*
X95236Y392064D01*
X91845Y392064D01*
X88712Y390766D01*
X86314Y388369D01*
X85016Y385236D01*
X85016Y381845D01*
X86314Y378712D01*
X88712Y376314D01*
X91845Y375016D01*
G37*
G36*
X36642Y374000D02*
X37778Y374000D01*
X37778Y382778D01*
X29000Y382778D01*
X29000Y381642D01*
X30452Y378136D01*
X33136Y375452D01*
X36642Y374000D01*
G37*
G36*
X39302Y374000D02*
X40438Y374000D01*
X43944Y375452D01*
X46628Y378136D01*
X48080Y381642D01*
X48080Y382778D01*
X39302Y382778D01*
X39302Y374000D01*
G37*
G36*
X41402Y297942D02*
X52578Y297942D01*
X52578Y309118D01*
X50965Y309118D01*
X46578Y307301D01*
X43219Y303942D01*
X41402Y299555D01*
X41402Y297942D01*
G37*
G36*
X54102Y285242D02*
X55715Y285242D01*
X60102Y287059D01*
X63166Y290123D01*
X64703Y291177D01*
X66678Y291611D01*
X68665Y291240D01*
X70351Y290123D01*
X72553Y287921D01*
X76567Y286258D01*
X80913Y286258D01*
X84927Y287921D01*
X87999Y290993D01*
X89662Y295007D01*
X89662Y299353D01*
X87999Y303367D01*
X84927Y306439D01*
X80913Y308102D01*
X76567Y308102D01*
X72553Y306439D01*
X70351Y304237D01*
X68814Y303183D01*
X66839Y302749D01*
X64852Y303120D01*
X63166Y304237D01*
X60102Y307301D01*
X55715Y309118D01*
X54102Y309118D01*
X54102Y285242D01*
G37*
G36*
X50965Y285242D02*
X52578Y285242D01*
X52578Y296418D01*
X41402Y296418D01*
X41402Y294805D01*
X43219Y290418D01*
X46578Y287059D01*
X50965Y285242D01*
G37*
G36*
X27940Y242062D02*
X37338Y242062D01*
X37338Y259080D01*
X36079Y259080D01*
X32345Y257533D01*
X29487Y254675D01*
X27940Y250941D01*
X27940Y242062D01*
G37*
G36*
X38862Y223520D02*
X40121Y223520D01*
X43855Y225067D01*
X47208Y228419D01*
X48744Y229473D01*
X50719Y229907D01*
X52707Y229536D01*
X54392Y228419D01*
X57745Y225067D01*
X61479Y223520D01*
X62738Y223520D01*
X62738Y259080D01*
X61479Y259080D01*
X57745Y257533D01*
X54392Y254181D01*
X52856Y253127D01*
X50881Y252693D01*
X48893Y253064D01*
X47208Y254181D01*
X43855Y257533D01*
X40121Y259080D01*
X38862Y259080D01*
X38862Y223520D01*
G37*
G36*
X36079Y223520D02*
X37338Y223520D01*
X37338Y240538D01*
X27940Y240538D01*
X27940Y231659D01*
X29487Y227925D01*
X32345Y225067D01*
X36079Y223520D01*
G37*
G36*
X164824Y51994D02*
X170776Y51994D01*
X176526Y53535D01*
X181680Y56511D01*
X185889Y60720D01*
X188865Y65874D01*
X190406Y71624D01*
X190406Y77576D01*
X188865Y83326D01*
X186094Y88127D01*
X185414Y90545D01*
X185769Y92536D01*
X186872Y94230D01*
X188549Y95360D01*
X193575Y97442D01*
X197808Y101675D01*
X199607Y106017D01*
X200568Y107519D01*
X202207Y108702D01*
X204179Y109151D01*
X206169Y108796D01*
X207863Y107693D01*
X208993Y106017D01*
X210792Y101675D01*
X215025Y97442D01*
X220051Y95360D01*
X222062Y93855D01*
X222992Y92059D01*
X223149Y90044D01*
X222506Y88127D01*
X219735Y83326D01*
X218194Y77576D01*
X218194Y71624D01*
X219735Y65874D01*
X222711Y60720D01*
X226920Y56511D01*
X232074Y53535D01*
X237824Y51994D01*
X243776Y51994D01*
X249526Y53535D01*
X254680Y56511D01*
X258889Y60720D01*
X261865Y65874D01*
X263406Y71624D01*
X263406Y77576D01*
X261865Y83326D01*
X258889Y88480D01*
X254680Y92689D01*
X249526Y95665D01*
X243776Y97206D01*
X242060Y97206D01*
X240267Y97533D01*
X238555Y98609D01*
X237398Y100267D01*
X236980Y102246D01*
X237367Y104230D01*
X238600Y107206D01*
X238600Y113194D01*
X236308Y118725D01*
X232075Y122958D01*
X226544Y125250D01*
X220557Y125250D01*
X215025Y122958D01*
X210792Y118725D01*
X208993Y114383D01*
X208032Y112881D01*
X206393Y111698D01*
X204421Y111249D01*
X202431Y111604D01*
X200737Y112707D01*
X199607Y114383D01*
X197808Y118725D01*
X193575Y122958D01*
X188044Y125250D01*
X182057Y125250D01*
X176525Y122958D01*
X172292Y118725D01*
X170001Y113194D01*
X170001Y107206D01*
X171233Y104230D01*
X171617Y102448D01*
X171279Y100455D01*
X170189Y98752D01*
X168521Y97608D01*
X166540Y97206D01*
X164824Y97206D01*
X159074Y95665D01*
X156129Y93965D01*
X153751Y93287D01*
X151758Y93626D01*
X150055Y94715D01*
X148911Y96383D01*
X148509Y98364D01*
X148509Y101693D01*
X147214Y104820D01*
X144820Y107214D01*
X140811Y108874D01*
X139250Y109890D01*
X138094Y111549D01*
X137676Y113527D01*
X138062Y115511D01*
X138309Y116107D01*
X138309Y119493D01*
X137014Y122620D01*
X134620Y125014D01*
X131493Y126309D01*
X128107Y126309D01*
X124980Y125014D01*
X123192Y123226D01*
X121656Y122172D01*
X119681Y121738D01*
X117693Y122109D01*
X116008Y123226D01*
X114220Y125014D01*
X111093Y126309D01*
X107707Y126309D01*
X104580Y125014D01*
X102792Y123226D01*
X101256Y122172D01*
X99281Y121738D01*
X97293Y122109D01*
X95608Y123226D01*
X93820Y125014D01*
X90693Y126309D01*
X87307Y126309D01*
X84180Y125014D01*
X83111Y123944D01*
X81574Y122891D01*
X79599Y122457D01*
X77612Y122828D01*
X75926Y123944D01*
X73995Y125875D01*
X70495Y127325D01*
X69362Y127325D01*
X69362Y117038D01*
X59075Y117038D01*
X59075Y115905D01*
X60525Y112405D01*
X63205Y109725D01*
X66461Y108376D01*
X68022Y107360D01*
X69179Y105702D01*
X69597Y103723D01*
X69275Y102070D01*
X69275Y100762D01*
X79562Y100762D01*
X79562Y90475D01*
X80695Y90475D01*
X84196Y91925D01*
X86126Y93856D01*
X87663Y94909D01*
X89638Y95343D01*
X91625Y94972D01*
X93311Y93856D01*
X94380Y92786D01*
X97507Y91491D01*
X100893Y91491D01*
X104020Y92786D01*
X105808Y94574D01*
X107344Y95628D01*
X109319Y96062D01*
X111307Y95691D01*
X112992Y94574D01*
X114780Y92786D01*
X117907Y91491D01*
X121293Y91491D01*
X124420Y92786D01*
X126208Y94574D01*
X127744Y95628D01*
X129719Y96062D01*
X131707Y95691D01*
X133392Y94574D01*
X135180Y92786D01*
X138307Y91491D01*
X142650Y91491D01*
X145049Y90889D01*
X146605Y89599D01*
X147535Y87804D01*
X147692Y85788D01*
X147049Y83871D01*
X146735Y83326D01*
X145194Y77576D01*
X145194Y71624D01*
X146735Y65874D01*
X149711Y60720D01*
X153920Y56511D01*
X159074Y53535D01*
X164824Y51994D01*
G37*
G36*
X59075Y118562D02*
X67838Y118562D01*
X67838Y127325D01*
X66705Y127325D01*
X63205Y125875D01*
X60525Y123196D01*
X59075Y119695D01*
X59075Y118562D01*
G37*
G36*
X259075Y118562D02*
X267838Y118562D01*
X267838Y127325D01*
X266705Y127325D01*
X263205Y125875D01*
X260525Y123196D01*
X259075Y119695D01*
X259075Y118562D01*
G37*
G36*
X37824Y51994D02*
X43776Y51994D01*
X49526Y53535D01*
X54680Y56511D01*
X58889Y60720D01*
X61865Y65874D01*
X63406Y71624D01*
X63406Y77576D01*
X61865Y83326D01*
X58889Y88480D01*
X54680Y92689D01*
X49526Y95665D01*
X43776Y97206D01*
X42060Y97206D01*
X40267Y97533D01*
X38555Y98609D01*
X37398Y100267D01*
X36980Y102246D01*
X37367Y104230D01*
X38600Y107206D01*
X38600Y113194D01*
X36308Y118725D01*
X32075Y122958D01*
X26544Y125250D01*
X20557Y125250D01*
X15025Y122958D01*
X10792Y118725D01*
X8501Y113194D01*
X8501Y107207D01*
X10792Y101675D01*
X15025Y97442D01*
X20051Y95360D01*
X22062Y93855D01*
X22992Y92059D01*
X23149Y90044D01*
X22506Y88127D01*
X19735Y83326D01*
X18194Y77576D01*
X18194Y71624D01*
X19735Y65874D01*
X22711Y60720D01*
X26920Y56511D01*
X32074Y53535D01*
X37824Y51994D01*
G37*
G36*
X620840Y102362D02*
X634238Y102362D01*
X634238Y115761D01*
X632183Y115761D01*
X626979Y113605D01*
X622995Y109621D01*
X620840Y104417D01*
X620840Y102362D01*
G37*
G36*
X686562Y102362D02*
X699961Y102362D01*
X699961Y104417D01*
X697805Y109621D01*
X693821Y113605D01*
X688617Y115761D01*
X686562Y115761D01*
X686562Y102362D01*
G37*
G36*
X686562Y87440D02*
X688617Y87440D01*
X693821Y89595D01*
X697805Y93579D01*
X699961Y98783D01*
X699961Y100838D01*
X686562Y100838D01*
X686562Y87440D01*
G37*
G36*
X632183Y87440D02*
X634238Y87440D01*
X634238Y100838D01*
X620840Y100838D01*
X620840Y98783D01*
X622995Y93579D01*
X626979Y89595D01*
X632183Y87440D01*
G37*
G36*
X276905Y90475D02*
X278038Y90475D01*
X278038Y99238D01*
X269275Y99238D01*
X269275Y98105D01*
X270725Y94605D01*
X273405Y91925D01*
X276905Y90475D01*
G37*
G36*
X76905Y90475D02*
X78038Y90475D01*
X78038Y99238D01*
X69275Y99238D01*
X69275Y98105D01*
X70725Y94605D01*
X73405Y91925D01*
X76905Y90475D01*
G37*
G36*
X620840Y51562D02*
X634238Y51562D01*
X634238Y64961D01*
X632183Y64961D01*
X626979Y62805D01*
X622995Y58821D01*
X620840Y53617D01*
X620840Y51562D01*
G37*
G36*
X686562Y51562D02*
X699961Y51562D01*
X699961Y53617D01*
X697805Y58821D01*
X693821Y62805D01*
X688617Y64961D01*
X686562Y64961D01*
X686562Y51562D01*
G37*
G36*
X686562Y36640D02*
X688617Y36640D01*
X693821Y38795D01*
X697805Y42779D01*
X699961Y47983D01*
X699961Y50038D01*
X686562Y50038D01*
X686562Y36640D01*
G37*
G36*
X682983Y36640D02*
X685038Y36640D01*
X685038Y50038D01*
X671640Y50038D01*
X671640Y47983D01*
X673795Y42779D01*
X677779Y38795D01*
X682983Y36640D01*
G37*
G36*
X635762Y36640D02*
X637817Y36640D01*
X643021Y38795D01*
X647005Y42779D01*
X649161Y47983D01*
X649161Y50038D01*
X635762Y50038D01*
X635762Y36640D01*
G37*
G36*
X632183Y36640D02*
X634238Y36640D01*
X634238Y50038D01*
X620840Y50038D01*
X620840Y47983D01*
X622995Y42779D01*
X626979Y38795D01*
X632183Y36640D01*
G37*
%LPD*%
G36*
X489690Y285652D02*
X487715Y285218D01*
X485727Y285589D01*
X484042Y286705D01*
X477263Y293484D01*
X476210Y295021D01*
X475776Y296995D01*
X476147Y298983D01*
X476524Y299553D01*
X478028Y303183D01*
X478028Y306417D01*
X476791Y309404D01*
X474504Y311691D01*
X473137Y312257D01*
X471635Y313218D01*
X470452Y314857D01*
X470003Y316829D01*
X470357Y318819D01*
X471461Y320513D01*
X473137Y321643D01*
X475080Y322448D01*
X477652Y325020D01*
X479044Y328381D01*
X479044Y329438D01*
X469138Y329438D01*
X469138Y339344D01*
X467651Y339344D01*
X466766Y339153D01*
X464773Y339492D01*
X463070Y340582D01*
X461926Y342249D01*
X461524Y344231D01*
X461524Y393672D01*
X461895Y395579D01*
X463012Y397265D01*
X468080Y402332D01*
X469616Y403386D01*
X471591Y403819D01*
X473578Y403449D01*
X475264Y402332D01*
X478032Y399564D01*
X480858Y398393D01*
X482360Y397432D01*
X482578Y397129D01*
X482666Y397263D01*
X484342Y398393D01*
X485690Y398952D01*
X487472Y399336D01*
X489465Y398997D01*
X491168Y397907D01*
X492312Y396240D01*
X492714Y394258D01*
X492714Y393142D01*
X492387Y391348D01*
X491311Y389637D01*
X489653Y388480D01*
X487675Y388062D01*
X485690Y388449D01*
X484342Y389007D01*
X482840Y389968D01*
X482622Y390271D01*
X482534Y390137D01*
X480858Y389007D01*
X478032Y387836D01*
X475764Y385568D01*
X474536Y382604D01*
X474536Y379396D01*
X475764Y376432D01*
X478032Y374164D01*
X480996Y372936D01*
X484204Y372936D01*
X485690Y373552D01*
X487472Y373936D01*
X489465Y373597D01*
X491168Y372507D01*
X492312Y370840D01*
X492714Y368858D01*
X492714Y290298D01*
X492401Y288542D01*
X491339Y286822D01*
X489690Y285652D01*
G37*
%LPC*%
G36*
X470662Y330962D02*
X479044Y330962D01*
X479044Y332019D01*
X477652Y335380D01*
X475080Y337952D01*
X471719Y339344D01*
X470662Y339344D01*
X470662Y330962D01*
G37*
%LPD*%
G36*
X570319Y42688D02*
X568338Y42286D01*
X533051Y42286D01*
X531145Y42657D01*
X529459Y43774D01*
X473742Y99491D01*
X472705Y100991D01*
X472255Y102962D01*
X472610Y104952D01*
X473714Y106647D01*
X473799Y106704D01*
X476791Y109696D01*
X478045Y112724D01*
X478370Y114465D01*
X479459Y116168D01*
X481127Y117312D01*
X483108Y117714D01*
X531876Y117714D01*
X533707Y117372D01*
X535410Y116283D01*
X536554Y114615D01*
X536575Y114510D01*
X536575Y115062D01*
X555244Y115062D01*
X555244Y116119D01*
X553852Y119480D01*
X551280Y122052D01*
X549337Y122857D01*
X547835Y123818D01*
X546652Y125457D01*
X546203Y127428D01*
X546557Y129419D01*
X547661Y131113D01*
X549337Y132243D01*
X550704Y132809D01*
X552991Y135096D01*
X554228Y138083D01*
X554228Y141317D01*
X552991Y144304D01*
X550704Y146591D01*
X548010Y147707D01*
X546508Y148668D01*
X545325Y150307D01*
X544875Y152279D01*
X545230Y154269D01*
X546333Y155963D01*
X548010Y157093D01*
X550704Y158209D01*
X552991Y160496D01*
X554228Y163483D01*
X554228Y166717D01*
X552697Y170412D01*
X552633Y170505D01*
X552168Y172472D01*
X552506Y174465D01*
X553596Y176168D01*
X555264Y177312D01*
X557245Y177714D01*
X566045Y177714D01*
X566462Y177807D01*
X566772Y177760D01*
X566972Y178788D01*
X567648Y180420D01*
X568665Y181981D01*
X570323Y183138D01*
X572301Y183556D01*
X574286Y183169D01*
X575918Y182493D01*
X577420Y181532D01*
X578603Y179893D01*
X579052Y177922D01*
X578697Y175931D01*
X577594Y174237D01*
X575918Y173107D01*
X573610Y172151D01*
X571868Y171768D01*
X571597Y171812D01*
X571414Y170827D01*
X571120Y170384D01*
X569596Y166704D01*
X569596Y163496D01*
X570824Y160532D01*
X573092Y158264D01*
X575918Y157093D01*
X577420Y156132D01*
X578603Y154493D01*
X579052Y152521D01*
X578697Y150531D01*
X577594Y148837D01*
X575918Y147707D01*
X573092Y146536D01*
X570824Y144268D01*
X569596Y141304D01*
X569596Y138096D01*
X570824Y135132D01*
X573092Y132864D01*
X575918Y131693D01*
X577420Y130732D01*
X578603Y129093D01*
X579052Y127121D01*
X578697Y125131D01*
X577594Y123437D01*
X575918Y122307D01*
X573092Y121136D01*
X570824Y118868D01*
X569596Y115904D01*
X569596Y112696D01*
X570824Y109732D01*
X573092Y107464D01*
X575918Y106293D01*
X577420Y105332D01*
X578603Y103693D01*
X579052Y101721D01*
X578697Y99731D01*
X577594Y98037D01*
X575918Y96907D01*
X573092Y95736D01*
X570824Y93468D01*
X569596Y90504D01*
X569596Y87296D01*
X570824Y84332D01*
X573092Y82064D01*
X575918Y80893D01*
X577420Y79932D01*
X578603Y78293D01*
X579052Y76321D01*
X578697Y74331D01*
X577594Y72637D01*
X575918Y71507D01*
X573092Y70336D01*
X570824Y68068D01*
X569596Y65104D01*
X569596Y61896D01*
X570824Y58932D01*
X573092Y56664D01*
X575918Y55493D01*
X577420Y54532D01*
X578603Y52893D01*
X579052Y50921D01*
X578697Y48931D01*
X577594Y47237D01*
X575918Y46107D01*
X573092Y44936D01*
X571930Y43774D01*
X570319Y42688D01*
G37*
%LPC*%
G36*
X546862Y105156D02*
X547919Y105156D01*
X551280Y106548D01*
X553852Y109120D01*
X555244Y112481D01*
X555244Y113538D01*
X546862Y113538D01*
X546862Y105156D01*
G37*
G36*
X544281Y105156D02*
X545338Y105156D01*
X545338Y113538D01*
X536772Y113538D01*
X536956Y112634D01*
X536956Y112481D01*
X538348Y109120D01*
X540920Y106548D01*
X544281Y105156D01*
G37*
%LPD*%
D10*
X93540Y383540D03*
X38540Y383540D03*
D11*
X215900Y248920D02*
X215900Y233680D01*
X190500Y233680D02*
X190500Y248920D01*
X165100Y248920D02*
X165100Y233680D01*
X139700Y233680D02*
X139700Y248920D01*
X114300Y248920D02*
X114300Y233680D01*
X88900Y233680D02*
X88900Y248920D01*
X63500Y248920D02*
X63500Y233680D01*
X38100Y233680D02*
X38100Y248920D01*
X673100Y335280D02*
X673100Y350520D01*
X647700Y350520D02*
X647700Y335280D01*
X622300Y335280D02*
X622300Y350520D01*
D12*
X635000Y205100D03*
X635000Y277500D03*
D13*
X438340Y393700D02*
X425260Y393700D01*
X425260Y368300D02*
X438340Y368300D01*
X438340Y342900D02*
X425260Y342900D01*
X425260Y317500D02*
X438340Y317500D01*
X438340Y292100D02*
X425260Y292100D01*
X425260Y266700D02*
X438340Y266700D01*
X438340Y241300D02*
X425260Y241300D01*
X425260Y215900D02*
X438340Y215900D01*
X438340Y190500D02*
X425260Y190500D01*
X425260Y165100D02*
X438340Y165100D01*
X438340Y139700D02*
X425260Y139700D01*
X425260Y114300D02*
X438340Y114300D01*
X577660Y393700D02*
X590740Y393700D01*
X590740Y368300D02*
X577660Y368300D01*
X577660Y342900D02*
X590740Y342900D01*
X590740Y190500D02*
X577660Y190500D01*
X577660Y165100D02*
X590740Y165100D01*
X590740Y139700D02*
X577660Y139700D01*
X577660Y114300D02*
X590740Y114300D01*
X590740Y38100D02*
X577660Y38100D01*
X438340Y38100D02*
X425260Y38100D01*
X425260Y63500D02*
X438340Y63500D01*
X438340Y88900D02*
X425260Y88900D01*
X577660Y63500D02*
X590740Y63500D01*
X590740Y88900D02*
X577660Y88900D01*
X577660Y317500D02*
X590740Y317500D01*
D14*
X533400Y381000D03*
X508000Y381000D03*
X482600Y381000D03*
D13*
X577660Y215900D02*
X590740Y215900D01*
X590740Y241300D02*
X577660Y241300D01*
X577660Y266700D02*
X590740Y266700D01*
X590740Y292100D02*
X577660Y292100D01*
D14*
X533400Y406400D03*
X508000Y406400D03*
X482600Y406400D03*
D15*
X546100Y254000D03*
D16*
X546100Y279400D03*
X546100Y304800D03*
X546100Y330200D03*
X469900Y330200D03*
X469900Y304800D03*
X469900Y279400D03*
X469900Y254000D03*
D15*
X469900Y190500D03*
D16*
X469900Y165100D03*
X469900Y139700D03*
X469900Y114300D03*
X546100Y114300D03*
X546100Y139700D03*
X546100Y165100D03*
X546100Y190500D03*
D17*
X12700Y469900D03*
X38100Y469900D03*
X63500Y469900D03*
X88900Y469900D03*
X114300Y469900D03*
X139700Y469900D03*
X165100Y469900D03*
X190500Y469900D03*
X215900Y469900D03*
X241300Y469900D03*
X266700Y469900D03*
X292100Y469900D03*
X317500Y469900D03*
X342900Y469900D03*
X368300Y469900D03*
X393700Y469900D03*
X419100Y469900D03*
X444500Y469900D03*
X469900Y469900D03*
X495300Y469900D03*
X520700Y469900D03*
X546100Y469900D03*
X571500Y469900D03*
X596900Y469900D03*
X622300Y469900D03*
X647700Y469900D03*
X673100Y469900D03*
X698500Y469900D03*
X12700Y546100D03*
X38100Y546100D03*
X63500Y546100D03*
X88900Y546100D03*
X114300Y546100D03*
X139700Y546100D03*
X165100Y546100D03*
X190500Y546100D03*
X215900Y546100D03*
X241300Y546100D03*
X266700Y546100D03*
X292100Y546100D03*
X317500Y546100D03*
X342900Y546100D03*
X368300Y546100D03*
X393700Y546100D03*
X419100Y546100D03*
X444500Y546100D03*
X469900Y546100D03*
X495300Y546100D03*
X520700Y546100D03*
X546100Y546100D03*
X571500Y546100D03*
X596900Y546100D03*
X622300Y546100D03*
X647700Y546100D03*
X673100Y546100D03*
X698500Y546100D03*
X12700Y520700D03*
X38100Y520700D03*
X63500Y520700D03*
X88900Y520700D03*
X114300Y520700D03*
X139700Y520700D03*
X165100Y520700D03*
X190500Y520700D03*
X215900Y520700D03*
X241300Y520700D03*
X266700Y520700D03*
X292100Y520700D03*
X317500Y520700D03*
X342900Y520700D03*
X368300Y520700D03*
X393700Y520700D03*
X419100Y520700D03*
X444500Y520700D03*
X469900Y520700D03*
X495300Y520700D03*
X520700Y520700D03*
X546100Y520700D03*
X571500Y520700D03*
X596900Y520700D03*
X622300Y520700D03*
X647700Y520700D03*
X673100Y520700D03*
X698500Y520700D03*
X12700Y495300D03*
X38100Y495300D03*
X63500Y495300D03*
X88900Y495300D03*
X114300Y495300D03*
X139700Y495300D03*
X165100Y495300D03*
X190500Y495300D03*
X215900Y495300D03*
X241300Y495300D03*
X266700Y495300D03*
X292100Y495300D03*
X317500Y495300D03*
X342900Y495300D03*
X368300Y495300D03*
X393700Y495300D03*
X419100Y495300D03*
X444500Y495300D03*
X469900Y495300D03*
X495300Y495300D03*
X520700Y495300D03*
X546100Y495300D03*
X571500Y495300D03*
X596900Y495300D03*
X622300Y495300D03*
X647700Y495300D03*
X673100Y495300D03*
X698500Y495300D03*
X12700Y571500D03*
X38100Y571500D03*
X63500Y571500D03*
X88900Y571500D03*
X114300Y571500D03*
X139700Y571500D03*
X165100Y571500D03*
X190500Y571500D03*
X215900Y571500D03*
X241300Y571500D03*
X266700Y571500D03*
X292100Y571500D03*
X317500Y571500D03*
X342900Y571500D03*
X368300Y571500D03*
X393700Y571500D03*
X419100Y571500D03*
X444500Y571500D03*
X469900Y571500D03*
X495300Y571500D03*
X520700Y571500D03*
X546100Y571500D03*
X571500Y571500D03*
X596900Y571500D03*
X622300Y571500D03*
X647700Y571500D03*
X673100Y571500D03*
X698500Y571500D03*
X12700Y596900D03*
X38100Y596900D03*
X63500Y596900D03*
X88900Y596900D03*
X114300Y596900D03*
X139700Y596900D03*
X165100Y596900D03*
X190500Y596900D03*
X215900Y596900D03*
X241300Y596900D03*
X266700Y596900D03*
X292100Y596900D03*
X317500Y596900D03*
X342900Y596900D03*
X368300Y596900D03*
X393700Y596900D03*
X419100Y596900D03*
X444500Y596900D03*
X469900Y596900D03*
X495300Y596900D03*
X520700Y596900D03*
X546100Y596900D03*
X571500Y596900D03*
X596900Y596900D03*
X622300Y596900D03*
X647700Y596900D03*
X673100Y596900D03*
X698500Y596900D03*
X12700Y622300D03*
X38100Y622300D03*
X63500Y622300D03*
X88900Y622300D03*
X114300Y622300D03*
X139700Y622300D03*
X165100Y622300D03*
X190500Y622300D03*
X215900Y622300D03*
X241300Y622300D03*
X266700Y622300D03*
X292100Y622300D03*
X317500Y622300D03*
X342900Y622300D03*
X368300Y622300D03*
X393700Y622300D03*
X419100Y622300D03*
X444500Y622300D03*
X469900Y622300D03*
X495300Y622300D03*
X520700Y622300D03*
X546100Y622300D03*
X571500Y622300D03*
X596900Y622300D03*
X622300Y622300D03*
X647700Y622300D03*
X673100Y622300D03*
X698500Y622300D03*
X12700Y647700D03*
X38100Y647700D03*
X63500Y647700D03*
X88900Y647700D03*
X114300Y647700D03*
X139700Y647700D03*
X165100Y647700D03*
X190500Y647700D03*
X215900Y647700D03*
X241300Y647700D03*
X266700Y647700D03*
X292100Y647700D03*
X317500Y647700D03*
X342900Y647700D03*
X368300Y647700D03*
X393700Y647700D03*
X419100Y647700D03*
X444500Y647700D03*
X469900Y647700D03*
X495300Y647700D03*
X520700Y647700D03*
X546100Y647700D03*
X571500Y647700D03*
X596900Y647700D03*
X622300Y647700D03*
X647700Y647700D03*
X673100Y647700D03*
X698500Y647700D03*
X12700Y673100D03*
X38100Y673100D03*
X63500Y673100D03*
X88900Y673100D03*
X114300Y673100D03*
X139700Y673100D03*
X165100Y673100D03*
X190500Y673100D03*
X215900Y673100D03*
X241300Y673100D03*
X266700Y673100D03*
X292100Y673100D03*
X317500Y673100D03*
X342900Y673100D03*
X368300Y673100D03*
X393700Y673100D03*
X419100Y673100D03*
X444500Y673100D03*
X469900Y673100D03*
X495300Y673100D03*
X520700Y673100D03*
X546100Y673100D03*
X571500Y673100D03*
X596900Y673100D03*
X622300Y673100D03*
X647700Y673100D03*
X673100Y673100D03*
X698500Y673100D03*
X12700Y698500D03*
X38100Y698500D03*
X63500Y698500D03*
X88900Y698500D03*
X114300Y698500D03*
X139700Y698500D03*
X165100Y698500D03*
X190500Y698500D03*
X215900Y698500D03*
X241300Y698500D03*
X266700Y698500D03*
X292100Y698500D03*
X317500Y698500D03*
X342900Y698500D03*
X368300Y698500D03*
X393700Y698500D03*
X419100Y698500D03*
X444500Y698500D03*
X469900Y698500D03*
X495300Y698500D03*
X520700Y698500D03*
X546100Y698500D03*
X571500Y698500D03*
X596900Y698500D03*
X622300Y698500D03*
X647700Y698500D03*
X673100Y698500D03*
X698500Y698500D03*
D18*
X340000Y100000D03*
X329800Y117800D03*
X319600Y100000D03*
X309400Y117800D03*
X299200Y100000D03*
X289000Y117800D03*
X278800Y100000D03*
X268600Y117800D03*
D19*
X223550Y110200D03*
X385050Y110200D03*
D20*
X240800Y74600D03*
X367800Y74600D03*
D18*
X140000Y100000D03*
X129800Y117800D03*
X119600Y100000D03*
X109400Y117800D03*
X99200Y100000D03*
X89000Y117800D03*
X78800Y100000D03*
X68600Y117800D03*
D19*
X23550Y110200D03*
X185050Y110200D03*
D20*
X40800Y74600D03*
X167800Y74600D03*
D21*
X660400Y76200D03*
X635000Y101600D03*
X635000Y50800D03*
X685800Y50800D03*
X685800Y101600D03*
D22*
X53340Y297180D03*
X78740Y297180D03*
D23*
X290000Y115000D02*
X320000Y145000D01*
X330000Y155000D01*
X289000Y117800D02*
X290000Y115000D01*
X185000Y145000D02*
X90000Y240000D01*
X185000Y145000D02*
X320000Y145000D01*
X90000Y240000D02*
X88900Y241300D01*
D24*
X330000Y155000D03*
D23*
X460000Y270000D02*
X465000Y275000D01*
X460000Y270000D02*
X460000Y235000D01*
X465000Y230000D01*
X465000Y275000D02*
X469900Y279400D01*
D24*
X465000Y230000D03*
D25*
X585000Y365000D02*
X610000Y340000D01*
X610000Y330080D01*
X620000Y320080D01*
X620000Y105000D01*
X585000Y365000D02*
X584200Y368300D01*
X22540Y687460D02*
X15000Y695000D01*
X707540Y687460D02*
X710000Y685000D01*
X702540Y610000D02*
X710000Y602540D01*
X612540Y74920D02*
X572540Y74920D01*
X15000Y695000D02*
X12700Y698500D01*
X70000Y140000D02*
X70000Y120000D01*
X68600Y117800D01*
X470000Y335000D02*
X470000Y390000D01*
X470000Y335000D02*
X469900Y330200D01*
D24*
X470000Y390000D03*
D25*
X269240Y118440D02*
X268600Y117800D01*
X269240Y118440D02*
X269240Y129540D01*
X268600Y128900D01*
X268600Y117800D01*
X267640Y116840D01*
X254000Y116840D01*
X277200Y101600D02*
X278800Y100000D01*
X277200Y101600D02*
X261620Y101600D01*
X278800Y100000D02*
X279400Y99400D01*
X279400Y83820D01*
X68600Y117800D02*
X67640Y116840D01*
X55880Y116840D01*
X67640Y100000D02*
X78800Y100000D01*
X67640Y100000D02*
X66040Y101600D01*
X77200Y101600D01*
X78800Y100000D01*
X78740Y99940D01*
X78740Y86360D01*
X38100Y215900D02*
X38100Y241300D01*
X38100Y264160D01*
X38100Y241300D02*
X22860Y241300D01*
X63500Y241300D02*
X63500Y218440D01*
X63500Y241300D02*
X63500Y264160D01*
X38540Y383540D02*
X38100Y383980D01*
X38100Y396240D01*
X38540Y383540D02*
X53340Y383540D01*
X38540Y383540D02*
X38540Y368740D01*
X38100Y368300D01*
X38540Y383540D02*
X22860Y383540D01*
X619760Y101600D02*
X635000Y101600D01*
X619760Y101600D02*
X617220Y99060D01*
X617220Y102220D01*
X620000Y105000D01*
X635000Y101600D02*
X635000Y119380D01*
X635000Y101600D02*
X635000Y81280D01*
X685800Y101600D02*
X685800Y119380D01*
X688340Y121920D01*
X685800Y101600D02*
X706120Y101600D01*
X685800Y101600D02*
X685800Y81280D01*
X685800Y71120D02*
X685800Y50800D01*
X703580Y50800D01*
X685800Y50800D02*
X660400Y50800D01*
X685800Y50800D02*
X685800Y27940D01*
X652780Y50800D02*
X635000Y50800D01*
X635000Y71120D01*
X635000Y50800D02*
X614680Y50800D01*
X635000Y50800D02*
X635000Y33020D01*
X632460Y30480D01*
X482600Y330200D02*
X469900Y330200D01*
X647700Y457200D02*
X647700Y469900D01*
X657860Y469900D01*
X647700Y469900D02*
X647700Y482600D01*
X647700Y469900D02*
X632460Y469900D01*
X12700Y469900D02*
X12700Y459740D01*
X12700Y469900D02*
X22860Y469900D01*
X25400Y495300D02*
X12700Y495300D01*
X12700Y520700D02*
X25400Y520700D01*
X22860Y546100D02*
X12700Y546100D01*
X12700Y571500D02*
X25400Y571500D01*
X25400Y596900D02*
X12700Y596900D01*
X12700Y622300D02*
X25400Y622300D01*
X22860Y647700D02*
X12700Y647700D01*
X12700Y673100D02*
X22860Y673100D01*
X25400Y698500D02*
X12700Y698500D01*
X12700Y708660D01*
X559950Y94190D02*
X559950Y90050D01*
X556260Y114300D02*
X546100Y114300D01*
X556260Y114300D02*
X558800Y111760D01*
X535940Y111760D02*
X528320Y111760D01*
X530860Y114300D01*
X546100Y114300D01*
X546100Y99060D01*
D26*
X53340Y297180D02*
X38100Y297180D01*
X53340Y297180D02*
X53340Y312420D01*
X53340Y297180D02*
X53340Y279400D01*
X50800Y276860D01*
D23*
X635000Y210000D02*
X655000Y230000D01*
X655000Y325000D01*
X650000Y330000D01*
X650000Y340000D01*
X635000Y210000D02*
X635000Y205100D01*
X650000Y340000D02*
X647700Y342900D01*
X395000Y330000D02*
X395000Y135000D01*
X395000Y330000D02*
X395000Y465000D01*
X395000Y135000D02*
X415000Y115000D01*
X415000Y105000D01*
X430000Y90000D01*
X395000Y465000D02*
X393700Y469900D01*
X430000Y90000D02*
X431800Y88900D01*
X395000Y330000D02*
X390000Y330000D01*
D24*
X390000Y330000D03*
D23*
X520000Y450000D02*
X560000Y410000D01*
X560000Y325000D01*
X545000Y310000D01*
X545000Y305000D01*
X546100Y304800D01*
X535000Y190000D02*
X485000Y140000D01*
X535000Y190000D02*
X535000Y220000D01*
X560000Y245000D01*
X560000Y290000D01*
X550000Y300000D01*
X546100Y304800D01*
D24*
X520000Y450000D03*
X485000Y140000D03*
D23*
X450000Y275000D02*
X435000Y290000D01*
X450000Y275000D02*
X450000Y250000D01*
X455000Y245000D01*
X455000Y205000D01*
X465000Y195000D01*
X435000Y290000D02*
X431800Y292100D01*
X465000Y195000D02*
X469900Y190500D01*
X665000Y400000D02*
X600000Y465000D01*
X665000Y400000D02*
X665000Y360000D01*
X670000Y355000D01*
X670000Y345000D01*
X600000Y465000D02*
X596900Y469900D01*
X670000Y345000D02*
X673100Y342900D01*
X455000Y440000D02*
X415000Y400000D01*
X415000Y280000D01*
X430000Y265000D01*
X431800Y266700D01*
X455000Y185000D02*
X470000Y170000D01*
X455000Y185000D02*
X455000Y200000D01*
X450000Y205000D01*
X450000Y245000D01*
X435000Y260000D01*
X435000Y265000D01*
X470000Y170000D02*
X469900Y165100D01*
X435000Y265000D02*
X431800Y266700D01*
D24*
X455000Y440000D03*
D23*
X530000Y470000D02*
X545000Y470000D01*
X530000Y470000D02*
X530000Y475000D01*
X525000Y480000D01*
X510000Y480000D01*
X510000Y420000D01*
X520000Y410000D01*
X520000Y240000D02*
X520000Y195000D01*
X520000Y240000D02*
X520000Y410000D01*
X520000Y195000D02*
X470000Y145000D01*
X470000Y140000D01*
X545000Y470000D02*
X546100Y469900D01*
X470000Y140000D02*
X469900Y139700D01*
X515000Y240000D02*
X520000Y240000D01*
D24*
X515000Y240000D03*
D23*
X450000Y200000D02*
X435000Y215000D01*
X450000Y200000D02*
X450000Y140000D01*
X470000Y120000D01*
X470000Y115000D01*
X435000Y215000D02*
X431800Y215900D01*
X470000Y115000D02*
X469900Y114300D01*
X585000Y405000D02*
X565000Y425000D01*
X525000Y465000D01*
X585000Y405000D02*
X605000Y405000D01*
X605000Y370000D01*
X620000Y355000D01*
X620000Y345000D01*
X525000Y465000D02*
X520700Y469900D01*
X620000Y345000D02*
X622300Y342900D01*
X535000Y120000D02*
X470000Y120000D01*
X535000Y120000D02*
X535000Y170000D01*
X545000Y180000D01*
X565000Y180000D01*
X565000Y425000D01*
X470000Y120000D02*
X469900Y114300D01*
X215000Y175000D02*
X215000Y240000D01*
X215900Y241300D01*
X345000Y105000D02*
X340000Y100000D01*
X345000Y105000D02*
X345000Y150000D01*
X320000Y175000D01*
X215000Y175000D01*
D24*
X215000Y175000D03*
D23*
X275000Y255000D02*
X65000Y465000D01*
X63500Y469900D01*
D24*
X275000Y255000D03*
D23*
X345000Y210000D02*
X90000Y465000D01*
X505000Y170000D02*
X525000Y190000D01*
X90000Y465000D02*
X88900Y469900D01*
D24*
X345000Y210000D03*
X505000Y170000D03*
X525000Y190000D03*
D23*
X225000Y355000D02*
X115000Y465000D01*
X114300Y469900D01*
D24*
X225000Y355000D03*
D23*
X325000Y280000D02*
X140000Y465000D01*
X139700Y469900D01*
D24*
X325000Y280000D03*
D23*
X170000Y470000D02*
X185000Y485000D01*
X330000Y485000D01*
X330000Y500000D01*
X340000Y510000D01*
X610000Y510000D01*
X610000Y460000D01*
X685000Y385000D01*
X685000Y290000D01*
X170000Y470000D02*
X165100Y469900D01*
D24*
X685000Y290000D03*
D23*
X205000Y480000D02*
X195000Y470000D01*
X205000Y480000D02*
X330000Y480000D01*
X335000Y485000D01*
X560000Y485000D01*
X560000Y455000D01*
X660000Y355000D01*
X660000Y210000D01*
X195000Y470000D02*
X190500Y469900D01*
D24*
X660000Y210000D03*
D23*
X330000Y355000D02*
X220000Y465000D01*
X595000Y280000D02*
X605000Y270000D01*
X605000Y160000D01*
X585000Y140000D01*
X220000Y465000D02*
X215900Y469900D01*
X584200Y139700D02*
X585000Y140000D01*
D24*
X330000Y355000D03*
X595000Y280000D03*
D23*
X355000Y355000D02*
X245000Y465000D01*
X355000Y355000D02*
X355000Y145000D01*
X245000Y465000D02*
X241300Y469900D01*
D24*
X355000Y145000D03*
D23*
X335000Y400000D02*
X270000Y465000D01*
X610000Y315000D02*
X610000Y120000D01*
X595000Y105000D01*
X595000Y100000D01*
X585000Y90000D01*
X270000Y465000D02*
X266700Y469900D01*
X585000Y90000D02*
X584200Y88900D01*
D24*
X335000Y400000D03*
X610000Y315000D03*
D23*
X365000Y395000D02*
X295000Y465000D01*
X365000Y395000D02*
X365000Y215000D01*
X295000Y465000D02*
X292100Y469900D01*
D24*
X365000Y215000D03*
D23*
X330000Y470000D02*
X320000Y470000D01*
X330000Y470000D02*
X330000Y475000D01*
X335000Y480000D01*
X405000Y480000D01*
X405000Y435000D01*
X400000Y430000D01*
X400000Y150000D01*
X425000Y125000D01*
X460000Y125000D01*
X460000Y110000D01*
X530000Y40000D01*
X580000Y40000D01*
X320000Y470000D02*
X317500Y469900D01*
X580000Y40000D02*
X584200Y38100D01*
X375000Y435000D02*
X345000Y465000D01*
X375000Y435000D02*
X375000Y130000D01*
X355000Y110000D01*
X355000Y95000D01*
X340000Y80000D01*
X340000Y65000D01*
X370000Y35000D01*
X430000Y35000D01*
X345000Y465000D02*
X342900Y469900D01*
X431800Y38100D02*
X430000Y35000D01*
X380000Y455000D02*
X370000Y465000D01*
X380000Y455000D02*
X380000Y145000D01*
X405000Y120000D01*
X405000Y90000D01*
X430000Y65000D01*
X370000Y465000D02*
X368300Y469900D01*
X430000Y65000D02*
X431800Y63500D01*
X405000Y430000D02*
X440000Y465000D01*
X405000Y430000D02*
X405000Y165000D01*
X430000Y140000D01*
X440000Y465000D02*
X444500Y469900D01*
X430000Y140000D02*
X431800Y139700D01*
X410000Y410000D02*
X469900Y469900D01*
X410000Y410000D02*
X410000Y185000D01*
X430000Y165000D01*
X431800Y165100D01*
X495000Y250000D02*
X495000Y465000D01*
X495000Y250000D02*
X465000Y220000D01*
X495000Y465000D02*
X495300Y469900D01*
D24*
X465000Y220000D03*
D23*
X450000Y415000D02*
X465000Y430000D01*
X450000Y415000D02*
X450000Y365000D01*
X435000Y350000D01*
X435000Y345000D01*
X431800Y342900D01*
D24*
X465000Y430000D03*
D23*
X530000Y300000D02*
X535000Y295000D01*
X535000Y270000D01*
X545000Y260000D01*
X545000Y255000D01*
X546100Y254000D01*
D24*
X530000Y300000D03*
D25*
X485000Y420000D02*
X485000Y460000D01*
X485000Y420000D02*
X480000Y420000D01*
X457460Y397460D01*
X457460Y292540D01*
X472460Y292540D01*
X482540Y282460D01*
X482540Y255000D01*
X470000Y255000D01*
X469900Y254000D01*
X510080Y329920D02*
X510000Y330000D01*
X510080Y329920D02*
X510080Y265080D01*
X505000Y260000D01*
D24*
X485000Y460000D03*
X505000Y260000D03*
X510000Y330000D03*
D26*
X185420Y190500D02*
X139700Y236220D01*
X139700Y241300D01*
X185420Y190500D02*
X190500Y190500D01*
D24*
X190500Y190500D03*
D23*
X635000Y220000D02*
X635000Y277500D01*
X635000Y220000D02*
X625000Y210000D01*
X625000Y135000D01*
X640000Y135000D01*
X660000Y115000D01*
X660000Y77300D01*
X660400Y76200D01*
M02*
