G04 EAGLE Gerber RS-274X export*
G75*
%MOMM*%
%FSLAX34Y34*%
%LPD*%
%INSilkscreen Top*%
%IPPOS*%
%AMOC8*
5,1,8,0,0,1.08239X$1,22.5*%
G01*
G04 Define Apertures*
%ADD10C,0.127000*%
%ADD11C,0.152400*%
G36*
X61499Y311815D02*
X61041Y311827D01*
X60598Y311863D01*
X60171Y311924D01*
X59760Y312009D01*
X59364Y312118D01*
X58984Y312251D01*
X58620Y312408D01*
X58272Y312590D01*
X57941Y312794D01*
X57631Y313019D01*
X57341Y313265D01*
X57072Y313532D01*
X56822Y313819D01*
X56593Y314127D01*
X56385Y314456D01*
X56196Y314806D01*
X56029Y315174D01*
X55884Y315559D01*
X55761Y315961D01*
X55661Y316379D01*
X55583Y316814D01*
X55527Y317265D01*
X55493Y317733D01*
X55482Y318217D01*
X55488Y318581D01*
X55507Y318935D01*
X55538Y319279D01*
X55582Y319613D01*
X55638Y319937D01*
X55706Y320251D01*
X55787Y320555D01*
X55881Y320849D01*
X55987Y321133D01*
X56105Y321407D01*
X56379Y321925D01*
X56703Y322404D01*
X57076Y322842D01*
X57494Y323234D01*
X57950Y323574D01*
X58192Y323724D01*
X58444Y323861D01*
X58706Y323985D01*
X58977Y324096D01*
X59257Y324195D01*
X59548Y324279D01*
X59848Y324351D01*
X60157Y324410D01*
X60476Y324456D01*
X60805Y324489D01*
X61143Y324508D01*
X61491Y324515D01*
X61973Y324503D01*
X62435Y324467D01*
X62877Y324406D01*
X63299Y324322D01*
X63701Y324214D01*
X64082Y324081D01*
X64443Y323925D01*
X64784Y323744D01*
X65103Y323540D01*
X65401Y323312D01*
X65677Y323061D01*
X65931Y322787D01*
X66163Y322490D01*
X66373Y322169D01*
X66562Y321825D01*
X66728Y321458D01*
X65143Y320932D01*
X65027Y321194D01*
X64896Y321439D01*
X64748Y321669D01*
X64583Y321883D01*
X64403Y322081D01*
X64206Y322263D01*
X63993Y322429D01*
X63763Y322579D01*
X63520Y322713D01*
X63266Y322828D01*
X63001Y322926D01*
X62724Y323006D01*
X62437Y323068D01*
X62138Y323113D01*
X61829Y323139D01*
X61508Y323148D01*
X61010Y323128D01*
X60540Y323066D01*
X60099Y322963D01*
X59686Y322819D01*
X59302Y322633D01*
X58946Y322407D01*
X58619Y322139D01*
X58320Y321830D01*
X58053Y321485D01*
X57822Y321110D01*
X57626Y320704D01*
X57466Y320268D01*
X57341Y319801D01*
X57252Y319304D01*
X57199Y318776D01*
X57181Y318217D01*
X57200Y317664D01*
X57255Y317139D01*
X57348Y316641D01*
X57478Y316171D01*
X57645Y315729D01*
X57849Y315315D01*
X58090Y314928D01*
X58368Y314569D01*
X58678Y314246D01*
X59014Y313966D01*
X59376Y313729D01*
X59764Y313535D01*
X60178Y313384D01*
X60619Y313276D01*
X61085Y313211D01*
X61578Y313190D01*
X61897Y313200D01*
X62206Y313230D01*
X62505Y313280D01*
X62794Y313350D01*
X63073Y313441D01*
X63341Y313551D01*
X63600Y313681D01*
X63849Y313831D01*
X64087Y314002D01*
X64316Y314192D01*
X64534Y314403D01*
X64743Y314633D01*
X64941Y314884D01*
X65129Y315155D01*
X65307Y315445D01*
X65476Y315756D01*
X66842Y315073D01*
X66642Y314686D01*
X66422Y314324D01*
X66184Y313985D01*
X65926Y313669D01*
X65648Y313378D01*
X65352Y313111D01*
X65036Y312867D01*
X64701Y312647D01*
X64349Y312452D01*
X63983Y312283D01*
X63604Y312140D01*
X63210Y312023D01*
X62803Y311932D01*
X62383Y311867D01*
X61948Y311828D01*
X61499Y311815D01*
G37*
G36*
X76640Y311990D02*
X68906Y311990D01*
X68906Y313330D01*
X72051Y313330D01*
X72051Y322824D01*
X69265Y320836D01*
X69265Y322325D01*
X72182Y324331D01*
X73636Y324331D01*
X73636Y313330D01*
X76640Y313330D01*
X76640Y311990D01*
G37*
G36*
X123660Y209550D02*
X121987Y209550D01*
X121987Y221891D01*
X127181Y221891D01*
X127685Y221876D01*
X128160Y221830D01*
X128606Y221754D01*
X129022Y221648D01*
X129410Y221511D01*
X129767Y221344D01*
X130096Y221146D01*
X130395Y220919D01*
X130662Y220663D01*
X130893Y220383D01*
X131089Y220077D01*
X131249Y219747D01*
X131374Y219392D01*
X131463Y219012D01*
X131516Y218607D01*
X131534Y218177D01*
X131516Y217750D01*
X131462Y217346D01*
X131373Y216964D01*
X131248Y216605D01*
X131087Y216268D01*
X130891Y215954D01*
X130659Y215662D01*
X130391Y215392D01*
X130092Y215150D01*
X129768Y214940D01*
X129418Y214762D01*
X129043Y214617D01*
X128642Y214504D01*
X128216Y214423D01*
X127764Y214375D01*
X127286Y214358D01*
X123660Y214358D01*
X123660Y209550D01*
G37*
%LPC*%
G36*
X127049Y215681D02*
X127389Y215691D01*
X127706Y215720D01*
X128002Y215768D01*
X128276Y215836D01*
X128528Y215923D01*
X128757Y216030D01*
X128965Y216155D01*
X129152Y216301D01*
X129316Y216465D01*
X129458Y216649D01*
X129579Y216853D01*
X129677Y217075D01*
X129754Y217317D01*
X129808Y217579D01*
X129841Y217859D01*
X129852Y218160D01*
X129841Y218449D01*
X129807Y218720D01*
X129751Y218972D01*
X129673Y219206D01*
X129572Y219421D01*
X129448Y219617D01*
X129302Y219794D01*
X129134Y219953D01*
X128943Y220093D01*
X128730Y220214D01*
X128494Y220317D01*
X128236Y220401D01*
X127956Y220467D01*
X127653Y220513D01*
X127327Y220541D01*
X126979Y220551D01*
X123660Y220551D01*
X123660Y215681D01*
X127049Y215681D01*
G37*
%LPD*%
G36*
X141585Y209550D02*
X133851Y209550D01*
X133851Y210890D01*
X136995Y210890D01*
X136995Y220384D01*
X134210Y218396D01*
X134210Y219885D01*
X137126Y221891D01*
X138580Y221891D01*
X138580Y210890D01*
X141585Y210890D01*
X141585Y209550D01*
G37*
G36*
X115550Y209375D02*
X115168Y209388D01*
X114805Y209425D01*
X114463Y209489D01*
X114141Y209577D01*
X113839Y209691D01*
X113556Y209831D01*
X113294Y209995D01*
X113051Y210185D01*
X112828Y210400D01*
X112626Y210641D01*
X112443Y210907D01*
X112280Y211198D01*
X112137Y211514D01*
X112014Y211856D01*
X111910Y212223D01*
X111827Y212615D01*
X113465Y212887D01*
X113511Y212640D01*
X113568Y212407D01*
X113639Y212188D01*
X113721Y211983D01*
X113816Y211792D01*
X113923Y211614D01*
X114043Y211451D01*
X114174Y211302D01*
X114317Y211168D01*
X114468Y211053D01*
X114628Y210955D01*
X114796Y210875D01*
X114974Y210812D01*
X115160Y210768D01*
X115355Y210741D01*
X115558Y210732D01*
X115780Y210742D01*
X115990Y210772D01*
X116187Y210820D01*
X116373Y210889D01*
X116546Y210977D01*
X116708Y211085D01*
X116857Y211212D01*
X116995Y211359D01*
X117118Y211524D01*
X117225Y211708D01*
X117315Y211910D01*
X117389Y212130D01*
X117446Y212369D01*
X117487Y212626D01*
X117512Y212900D01*
X117520Y213194D01*
X117520Y220524D01*
X115147Y220524D01*
X115147Y221891D01*
X119184Y221891D01*
X119184Y213229D01*
X119169Y212792D01*
X119124Y212379D01*
X119048Y211990D01*
X118941Y211625D01*
X118805Y211284D01*
X118637Y210966D01*
X118440Y210673D01*
X118212Y210404D01*
X117958Y210163D01*
X117681Y209954D01*
X117382Y209777D01*
X117060Y209632D01*
X116716Y209520D01*
X116350Y209439D01*
X115961Y209391D01*
X115550Y209375D01*
G37*
G36*
X644360Y311150D02*
X642687Y311150D01*
X642687Y323491D01*
X647881Y323491D01*
X648385Y323476D01*
X648860Y323430D01*
X649306Y323354D01*
X649722Y323248D01*
X650110Y323111D01*
X650467Y322944D01*
X650796Y322746D01*
X651095Y322519D01*
X651362Y322263D01*
X651593Y321983D01*
X651789Y321677D01*
X651949Y321347D01*
X652074Y320992D01*
X652163Y320612D01*
X652216Y320207D01*
X652234Y319777D01*
X652216Y319350D01*
X652162Y318946D01*
X652073Y318564D01*
X651948Y318205D01*
X651787Y317868D01*
X651591Y317554D01*
X651359Y317262D01*
X651091Y316992D01*
X650792Y316750D01*
X650468Y316540D01*
X650118Y316362D01*
X649743Y316217D01*
X649342Y316104D01*
X648916Y316023D01*
X648464Y315975D01*
X647986Y315958D01*
X644360Y315958D01*
X644360Y311150D01*
G37*
%LPC*%
G36*
X647749Y317281D02*
X648089Y317291D01*
X648406Y317320D01*
X648702Y317368D01*
X648976Y317436D01*
X649228Y317523D01*
X649457Y317630D01*
X649665Y317755D01*
X649852Y317901D01*
X650016Y318065D01*
X650158Y318249D01*
X650279Y318453D01*
X650377Y318675D01*
X650454Y318917D01*
X650508Y319179D01*
X650541Y319459D01*
X650552Y319760D01*
X650541Y320049D01*
X650507Y320320D01*
X650451Y320572D01*
X650373Y320806D01*
X650272Y321021D01*
X650148Y321217D01*
X650002Y321394D01*
X649834Y321553D01*
X649643Y321693D01*
X649430Y321814D01*
X649194Y321917D01*
X648936Y322001D01*
X648656Y322067D01*
X648353Y322113D01*
X648027Y322141D01*
X647679Y322151D01*
X644360Y322151D01*
X644360Y317281D01*
X647749Y317281D01*
G37*
%LPD*%
G36*
X662258Y311150D02*
X654087Y311150D01*
X654087Y312262D01*
X654322Y312760D01*
X654582Y313227D01*
X654867Y313664D01*
X655177Y314071D01*
X655503Y314454D01*
X655837Y314818D01*
X656180Y315163D01*
X656530Y315490D01*
X657236Y316102D01*
X657936Y316668D01*
X658598Y317211D01*
X659193Y317754D01*
X659460Y318029D01*
X659700Y318310D01*
X659913Y318598D01*
X660099Y318893D01*
X660251Y319200D01*
X660359Y319528D01*
X660424Y319875D01*
X660445Y320241D01*
X660436Y320488D01*
X660408Y320721D01*
X660361Y320939D01*
X660296Y321143D01*
X660213Y321333D01*
X660110Y321509D01*
X659989Y321671D01*
X659850Y321818D01*
X659693Y321949D01*
X659523Y322063D01*
X659338Y322159D01*
X659138Y322238D01*
X658924Y322300D01*
X658695Y322343D01*
X658452Y322370D01*
X658194Y322378D01*
X657948Y322370D01*
X657713Y322344D01*
X657489Y322301D01*
X657276Y322242D01*
X657074Y322165D01*
X656883Y322071D01*
X656703Y321959D01*
X656535Y321831D01*
X656380Y321687D01*
X656242Y321530D01*
X656121Y321358D01*
X656017Y321173D01*
X655929Y320974D01*
X655859Y320761D01*
X655805Y320534D01*
X655768Y320294D01*
X654157Y320443D01*
X654215Y320803D01*
X654301Y321145D01*
X654415Y321468D01*
X654558Y321772D01*
X654730Y322057D01*
X654929Y322323D01*
X655157Y322570D01*
X655413Y322799D01*
X655693Y323004D01*
X655993Y323182D01*
X656312Y323333D01*
X656649Y323456D01*
X657007Y323552D01*
X657383Y323620D01*
X657779Y323661D01*
X658194Y323675D01*
X658647Y323661D01*
X659073Y323620D01*
X659472Y323551D01*
X659844Y323455D01*
X660189Y323331D01*
X660507Y323180D01*
X660798Y323001D01*
X661063Y322794D01*
X661298Y322563D01*
X661501Y322308D01*
X661674Y322030D01*
X661815Y321729D01*
X661925Y321405D01*
X662003Y321058D01*
X662050Y320687D01*
X662066Y320294D01*
X662045Y319935D01*
X661983Y319578D01*
X661881Y319222D01*
X661737Y318866D01*
X661553Y318512D01*
X661329Y318157D01*
X661065Y317802D01*
X660761Y317447D01*
X660363Y317044D01*
X659817Y316543D01*
X659123Y315945D01*
X658282Y315249D01*
X657804Y314847D01*
X657378Y314466D01*
X657003Y314105D01*
X656679Y313764D01*
X656402Y313437D01*
X656167Y313115D01*
X655973Y312800D01*
X655821Y312490D01*
X662258Y312490D01*
X662258Y311150D01*
G37*
G36*
X636250Y310975D02*
X635868Y310988D01*
X635505Y311025D01*
X635163Y311089D01*
X634841Y311177D01*
X634539Y311291D01*
X634256Y311431D01*
X633994Y311595D01*
X633751Y311785D01*
X633528Y312000D01*
X633326Y312241D01*
X633143Y312507D01*
X632980Y312798D01*
X632837Y313114D01*
X632714Y313456D01*
X632610Y313823D01*
X632527Y314215D01*
X634165Y314487D01*
X634211Y314240D01*
X634268Y314007D01*
X634339Y313788D01*
X634421Y313583D01*
X634516Y313392D01*
X634623Y313214D01*
X634743Y313051D01*
X634874Y312902D01*
X635017Y312768D01*
X635168Y312653D01*
X635328Y312555D01*
X635496Y312475D01*
X635674Y312412D01*
X635860Y312368D01*
X636055Y312341D01*
X636258Y312332D01*
X636480Y312342D01*
X636690Y312372D01*
X636887Y312420D01*
X637073Y312489D01*
X637246Y312577D01*
X637408Y312685D01*
X637557Y312812D01*
X637695Y312959D01*
X637818Y313124D01*
X637925Y313308D01*
X638015Y313510D01*
X638089Y313730D01*
X638146Y313969D01*
X638187Y314226D01*
X638212Y314500D01*
X638220Y314794D01*
X638220Y322124D01*
X635847Y322124D01*
X635847Y323491D01*
X639884Y323491D01*
X639884Y314829D01*
X639869Y314392D01*
X639824Y313979D01*
X639748Y313590D01*
X639641Y313225D01*
X639505Y312884D01*
X639337Y312566D01*
X639140Y312273D01*
X638912Y312004D01*
X638658Y311763D01*
X638381Y311554D01*
X638082Y311377D01*
X637760Y311232D01*
X637416Y311120D01*
X637050Y311039D01*
X636661Y310991D01*
X636250Y310975D01*
G37*
G36*
X615950Y231303D02*
X603609Y231303D01*
X603609Y237110D01*
X603624Y237616D01*
X603668Y238092D01*
X603740Y238539D01*
X603842Y238957D01*
X603974Y239344D01*
X604134Y239702D01*
X604323Y240030D01*
X604542Y240328D01*
X604787Y240594D01*
X605054Y240825D01*
X605344Y241020D01*
X605658Y241179D01*
X605994Y241303D01*
X606353Y241392D01*
X606734Y241445D01*
X607139Y241463D01*
X607476Y241450D01*
X607799Y241413D01*
X608109Y241350D01*
X608405Y241262D01*
X608687Y241150D01*
X608955Y241012D01*
X609210Y240849D01*
X609451Y240661D01*
X609675Y240451D01*
X609877Y240222D01*
X610057Y239975D01*
X610123Y239864D01*
X610215Y239708D01*
X610352Y239422D01*
X610468Y239117D01*
X610561Y238793D01*
X610634Y238450D01*
X612897Y239941D01*
X615950Y241953D01*
X615950Y240026D01*
X610826Y236821D01*
X610826Y232976D01*
X615950Y232976D01*
X615950Y231303D01*
G37*
%LPC*%
G36*
X609504Y232976D02*
X609504Y237013D01*
X609494Y237335D01*
X609465Y237637D01*
X609417Y237921D01*
X609349Y238186D01*
X609263Y238432D01*
X609156Y238660D01*
X609031Y238868D01*
X608886Y239058D01*
X608724Y239228D01*
X608547Y239375D01*
X608354Y239499D01*
X608145Y239600D01*
X607921Y239679D01*
X607682Y239736D01*
X607427Y239770D01*
X607156Y239781D01*
X606895Y239770D01*
X606650Y239735D01*
X606421Y239678D01*
X606207Y239598D01*
X606010Y239495D01*
X605829Y239370D01*
X605663Y239221D01*
X605514Y239050D01*
X605382Y238857D01*
X605267Y238644D01*
X605170Y238411D01*
X605091Y238157D01*
X605029Y237884D01*
X604985Y237590D01*
X604958Y237277D01*
X604949Y236943D01*
X604949Y232976D01*
X609504Y232976D01*
G37*
%LPD*%
G36*
X615950Y244166D02*
X614610Y244166D01*
X614610Y247311D01*
X605116Y247311D01*
X607104Y244525D01*
X605615Y244525D01*
X603609Y247442D01*
X603609Y248896D01*
X614610Y248896D01*
X614610Y251900D01*
X615950Y251900D01*
X615950Y244166D01*
G37*
G36*
X549703Y239469D02*
X548389Y241729D01*
X547023Y239487D01*
X545980Y240118D01*
X547636Y242290D01*
X545183Y242929D01*
X545577Y244103D01*
X547916Y243166D01*
X547811Y245767D01*
X549002Y245767D01*
X548888Y243183D01*
X551200Y244085D01*
X551595Y242929D01*
X549125Y242290D01*
X550745Y240100D01*
X549703Y239469D01*
G37*
G36*
X468945Y204417D02*
X467632Y206677D01*
X466265Y204435D01*
X465223Y205066D01*
X466878Y207238D01*
X464426Y207877D01*
X464820Y209051D01*
X467159Y208114D01*
X467054Y210715D01*
X468245Y210715D01*
X468131Y208131D01*
X470443Y209033D01*
X470837Y207877D01*
X468367Y207238D01*
X469988Y205048D01*
X468945Y204417D01*
G37*
G36*
X61499Y312245D02*
X61041Y312257D01*
X60598Y312293D01*
X60171Y312354D01*
X59760Y312439D01*
X59364Y312548D01*
X58984Y312681D01*
X58620Y312838D01*
X58272Y313020D01*
X57941Y313224D01*
X57631Y313449D01*
X57341Y313695D01*
X57072Y313962D01*
X56822Y314249D01*
X56593Y314557D01*
X56385Y314886D01*
X56196Y315236D01*
X56029Y315604D01*
X55884Y315989D01*
X55761Y316391D01*
X55661Y316809D01*
X55583Y317244D01*
X55527Y317695D01*
X55493Y318163D01*
X55482Y318647D01*
X55488Y319011D01*
X55507Y319365D01*
X55538Y319709D01*
X55582Y320043D01*
X55638Y320367D01*
X55706Y320681D01*
X55787Y320985D01*
X55881Y321279D01*
X55987Y321563D01*
X56105Y321837D01*
X56379Y322355D01*
X56703Y322834D01*
X57076Y323272D01*
X57494Y323664D01*
X57950Y324004D01*
X58192Y324154D01*
X58444Y324291D01*
X58706Y324415D01*
X58977Y324526D01*
X59257Y324625D01*
X59548Y324709D01*
X59848Y324781D01*
X60157Y324840D01*
X60476Y324886D01*
X60805Y324919D01*
X61143Y324938D01*
X61491Y324945D01*
X61973Y324933D01*
X62435Y324897D01*
X62877Y324836D01*
X63299Y324752D01*
X63701Y324644D01*
X64082Y324511D01*
X64443Y324355D01*
X64784Y324174D01*
X65103Y323970D01*
X65401Y323742D01*
X65677Y323491D01*
X65931Y323217D01*
X66163Y322920D01*
X66373Y322599D01*
X66562Y322255D01*
X66728Y321888D01*
X65143Y321362D01*
X65027Y321624D01*
X64896Y321869D01*
X64748Y322099D01*
X64583Y322313D01*
X64403Y322511D01*
X64206Y322693D01*
X63993Y322859D01*
X63763Y323009D01*
X63520Y323143D01*
X63266Y323258D01*
X63001Y323356D01*
X62724Y323436D01*
X62437Y323498D01*
X62138Y323543D01*
X61829Y323569D01*
X61508Y323578D01*
X61010Y323558D01*
X60540Y323496D01*
X60099Y323393D01*
X59686Y323249D01*
X59302Y323063D01*
X58946Y322837D01*
X58619Y322569D01*
X58320Y322260D01*
X58053Y321915D01*
X57822Y321540D01*
X57626Y321134D01*
X57466Y320698D01*
X57341Y320231D01*
X57252Y319734D01*
X57199Y319206D01*
X57181Y318647D01*
X57200Y318094D01*
X57255Y317569D01*
X57348Y317071D01*
X57478Y316601D01*
X57645Y316159D01*
X57849Y315745D01*
X58090Y315358D01*
X58368Y314999D01*
X58678Y314676D01*
X59014Y314396D01*
X59376Y314159D01*
X59764Y313965D01*
X60178Y313814D01*
X60619Y313706D01*
X61085Y313641D01*
X61578Y313620D01*
X61897Y313630D01*
X62206Y313660D01*
X62505Y313710D01*
X62794Y313780D01*
X63073Y313871D01*
X63341Y313981D01*
X63600Y314111D01*
X63849Y314261D01*
X64087Y314432D01*
X64316Y314622D01*
X64534Y314833D01*
X64743Y315063D01*
X64941Y315314D01*
X65129Y315585D01*
X65307Y315875D01*
X65476Y316186D01*
X66842Y315503D01*
X66642Y315116D01*
X66422Y314754D01*
X66184Y314415D01*
X65926Y314099D01*
X65648Y313808D01*
X65352Y313541D01*
X65036Y313297D01*
X64701Y313077D01*
X64349Y312882D01*
X63983Y312713D01*
X63604Y312570D01*
X63210Y312453D01*
X62803Y312362D01*
X62383Y312297D01*
X61948Y312258D01*
X61499Y312245D01*
G37*
G36*
X76614Y312420D02*
X68442Y312420D01*
X68442Y313532D01*
X68678Y314030D01*
X68938Y314497D01*
X69223Y314934D01*
X69533Y315341D01*
X69859Y315724D01*
X70193Y316088D01*
X70535Y316433D01*
X70886Y316760D01*
X71592Y317372D01*
X72292Y317938D01*
X72954Y318481D01*
X73548Y319024D01*
X73815Y319299D01*
X74055Y319580D01*
X74268Y319868D01*
X74455Y320163D01*
X74606Y320470D01*
X74714Y320798D01*
X74779Y321145D01*
X74801Y321511D01*
X74792Y321758D01*
X74764Y321991D01*
X74717Y322209D01*
X74652Y322413D01*
X74568Y322603D01*
X74466Y322779D01*
X74345Y322941D01*
X74205Y323088D01*
X74049Y323219D01*
X73878Y323333D01*
X73693Y323429D01*
X73494Y323508D01*
X73279Y323570D01*
X73051Y323613D01*
X72808Y323640D01*
X72550Y323648D01*
X72304Y323640D01*
X72068Y323614D01*
X71844Y323571D01*
X71631Y323512D01*
X71429Y323435D01*
X71239Y323341D01*
X71059Y323229D01*
X70890Y323101D01*
X70735Y322957D01*
X70598Y322800D01*
X70477Y322628D01*
X70372Y322443D01*
X70285Y322244D01*
X70214Y322031D01*
X70161Y321804D01*
X70124Y321564D01*
X68512Y321713D01*
X68570Y322073D01*
X68656Y322415D01*
X68771Y322738D01*
X68914Y323042D01*
X69085Y323327D01*
X69285Y323593D01*
X69513Y323840D01*
X69769Y324069D01*
X70049Y324274D01*
X70348Y324452D01*
X70667Y324603D01*
X71005Y324726D01*
X71362Y324822D01*
X71739Y324890D01*
X72135Y324931D01*
X72550Y324945D01*
X73003Y324931D01*
X73429Y324890D01*
X73828Y324821D01*
X74200Y324725D01*
X74545Y324601D01*
X74863Y324450D01*
X75154Y324271D01*
X75418Y324064D01*
X75653Y323833D01*
X75857Y323578D01*
X76029Y323300D01*
X76170Y322999D01*
X76280Y322675D01*
X76358Y322328D01*
X76405Y321957D01*
X76421Y321564D01*
X76401Y321205D01*
X76339Y320848D01*
X76236Y320492D01*
X76093Y320136D01*
X75909Y319782D01*
X75684Y319427D01*
X75420Y319072D01*
X75116Y318717D01*
X74718Y318314D01*
X74172Y317813D01*
X73479Y317215D01*
X72637Y316519D01*
X72160Y316117D01*
X71733Y315736D01*
X71358Y315375D01*
X71035Y315034D01*
X70758Y314707D01*
X70522Y314385D01*
X70329Y314070D01*
X70176Y313760D01*
X76614Y313760D01*
X76614Y312420D01*
G37*
D10*
X13540Y383540D02*
X13556Y384828D01*
X13603Y386116D01*
X13682Y387402D01*
X13793Y388686D01*
X13935Y389967D01*
X14108Y391243D01*
X14313Y392515D01*
X14549Y393782D01*
X14816Y395043D01*
X15113Y396296D01*
X15442Y397542D01*
X15801Y398780D01*
X16190Y400008D01*
X16609Y401227D01*
X17058Y402434D01*
X17536Y403631D01*
X18044Y404815D01*
X18581Y405987D01*
X19146Y407145D01*
X19739Y408288D01*
X20360Y409417D01*
X21009Y410530D01*
X21685Y411627D01*
X22388Y412707D01*
X23117Y413770D01*
X23872Y414814D01*
X24652Y415840D01*
X25457Y416846D01*
X26287Y417832D01*
X27140Y418797D01*
X28017Y419741D01*
X28917Y420663D01*
X29839Y421563D01*
X30783Y422440D01*
X31748Y423293D01*
X32734Y424123D01*
X33740Y424928D01*
X34766Y425708D01*
X35810Y426463D01*
X36873Y427192D01*
X37953Y427895D01*
X39050Y428571D01*
X40163Y429220D01*
X41292Y429841D01*
X42435Y430434D01*
X43593Y430999D01*
X44765Y431536D01*
X45949Y432044D01*
X47146Y432522D01*
X48353Y432971D01*
X49572Y433390D01*
X50800Y433779D01*
X52038Y434138D01*
X53284Y434467D01*
X54537Y434764D01*
X55798Y435031D01*
X57065Y435267D01*
X58337Y435472D01*
X59613Y435645D01*
X60894Y435787D01*
X62178Y435898D01*
X63464Y435977D01*
X64752Y436024D01*
X66040Y436040D01*
X67328Y436024D01*
X68616Y435977D01*
X69902Y435898D01*
X71186Y435787D01*
X72467Y435645D01*
X73743Y435472D01*
X75015Y435267D01*
X76282Y435031D01*
X77543Y434764D01*
X78796Y434467D01*
X80042Y434138D01*
X81280Y433779D01*
X82508Y433390D01*
X83727Y432971D01*
X84934Y432522D01*
X86131Y432044D01*
X87315Y431536D01*
X88487Y430999D01*
X89645Y430434D01*
X90788Y429841D01*
X91917Y429220D01*
X93030Y428571D01*
X94127Y427895D01*
X95207Y427192D01*
X96270Y426463D01*
X97314Y425708D01*
X98340Y424928D01*
X99346Y424123D01*
X100332Y423293D01*
X101297Y422440D01*
X102241Y421563D01*
X103163Y420663D01*
X104063Y419741D01*
X104940Y418797D01*
X105793Y417832D01*
X106623Y416846D01*
X107428Y415840D01*
X108208Y414814D01*
X108963Y413770D01*
X109692Y412707D01*
X110395Y411627D01*
X111071Y410530D01*
X111720Y409417D01*
X112341Y408288D01*
X112934Y407145D01*
X113499Y405987D01*
X114036Y404815D01*
X114544Y403631D01*
X115022Y402434D01*
X115471Y401227D01*
X115890Y400008D01*
X116279Y398780D01*
X116638Y397542D01*
X116967Y396296D01*
X117264Y395043D01*
X117531Y393782D01*
X117767Y392515D01*
X117972Y391243D01*
X118145Y389967D01*
X118287Y388686D01*
X118398Y387402D01*
X118477Y386116D01*
X118524Y384828D01*
X118540Y383540D01*
X118524Y382252D01*
X118477Y380964D01*
X118398Y379678D01*
X118287Y378394D01*
X118145Y377113D01*
X117972Y375837D01*
X117767Y374565D01*
X117531Y373298D01*
X117264Y372037D01*
X116967Y370784D01*
X116638Y369538D01*
X116279Y368300D01*
X115890Y367072D01*
X115471Y365853D01*
X115022Y364646D01*
X114544Y363449D01*
X114036Y362265D01*
X113499Y361093D01*
X112934Y359935D01*
X112341Y358792D01*
X111720Y357663D01*
X111071Y356550D01*
X110395Y355453D01*
X109692Y354373D01*
X108963Y353310D01*
X108208Y352266D01*
X107428Y351240D01*
X106623Y350234D01*
X105793Y349248D01*
X104940Y348283D01*
X104063Y347339D01*
X103163Y346417D01*
X102241Y345517D01*
X101297Y344640D01*
X100332Y343787D01*
X99346Y342957D01*
X98340Y342152D01*
X97314Y341372D01*
X96270Y340617D01*
X95207Y339888D01*
X94127Y339185D01*
X93030Y338509D01*
X91917Y337860D01*
X90788Y337239D01*
X89645Y336646D01*
X88487Y336081D01*
X87315Y335544D01*
X86131Y335036D01*
X84934Y334558D01*
X83727Y334109D01*
X82508Y333690D01*
X81280Y333301D01*
X80042Y332942D01*
X78796Y332613D01*
X77543Y332316D01*
X76282Y332049D01*
X75015Y331813D01*
X73743Y331608D01*
X72467Y331435D01*
X71186Y331293D01*
X69902Y331182D01*
X68616Y331103D01*
X67328Y331056D01*
X66040Y331040D01*
X64752Y331056D01*
X63464Y331103D01*
X62178Y331182D01*
X60894Y331293D01*
X59613Y331435D01*
X58337Y331608D01*
X57065Y331813D01*
X55798Y332049D01*
X54537Y332316D01*
X53284Y332613D01*
X52038Y332942D01*
X50800Y333301D01*
X49572Y333690D01*
X48353Y334109D01*
X47146Y334558D01*
X45949Y335036D01*
X44765Y335544D01*
X43593Y336081D01*
X42435Y336646D01*
X41292Y337239D01*
X40163Y337860D01*
X39050Y338509D01*
X37953Y339185D01*
X36873Y339888D01*
X35810Y340617D01*
X34766Y341372D01*
X33740Y342152D01*
X32734Y342957D01*
X31748Y343787D01*
X30783Y344640D01*
X29839Y345517D01*
X28917Y346417D01*
X28017Y347339D01*
X27140Y348283D01*
X26287Y349248D01*
X25457Y350234D01*
X24652Y351240D01*
X23872Y352266D01*
X23117Y353310D01*
X22388Y354373D01*
X21685Y355453D01*
X21009Y356550D01*
X20360Y357663D01*
X19739Y358792D01*
X19146Y359935D01*
X18581Y361093D01*
X18044Y362265D01*
X17536Y363449D01*
X17058Y364646D01*
X16609Y365853D01*
X16190Y367072D01*
X15801Y368300D01*
X15442Y369538D01*
X15113Y370784D01*
X14816Y372037D01*
X14549Y373298D01*
X14313Y374565D01*
X14108Y375837D01*
X13935Y377113D01*
X13793Y378394D01*
X13682Y379678D01*
X13603Y380964D01*
X13556Y382252D01*
X13540Y383540D01*
D11*
X57150Y228600D02*
X69850Y228600D01*
X57150Y228600D02*
X50800Y234950D01*
X50800Y247650D01*
X57150Y254000D01*
X95250Y228600D02*
X101600Y234950D01*
X95250Y228600D02*
X82550Y228600D01*
X76200Y234950D01*
X76200Y247650D01*
X82550Y254000D01*
X95250Y254000D01*
X101600Y247650D01*
X76200Y234950D02*
X69850Y228600D01*
X76200Y247650D02*
X69850Y254000D01*
X57150Y254000D01*
X133350Y228600D02*
X146050Y228600D01*
X133350Y228600D02*
X127000Y234950D01*
X127000Y247650D01*
X133350Y254000D01*
X127000Y234950D02*
X120650Y228600D01*
X107950Y228600D01*
X101600Y234950D01*
X101600Y247650D01*
X107950Y254000D01*
X120650Y254000D01*
X127000Y247650D01*
X171450Y228600D02*
X177800Y234950D01*
X171450Y228600D02*
X158750Y228600D01*
X152400Y234950D01*
X152400Y247650D01*
X158750Y254000D01*
X171450Y254000D01*
X177800Y247650D01*
X152400Y234950D02*
X146050Y228600D01*
X152400Y247650D02*
X146050Y254000D01*
X133350Y254000D01*
X209550Y228600D02*
X222250Y228600D01*
X209550Y228600D02*
X203200Y234950D01*
X203200Y247650D01*
X209550Y254000D01*
X203200Y234950D02*
X196850Y228600D01*
X184150Y228600D01*
X177800Y234950D01*
X177800Y247650D01*
X184150Y254000D01*
X196850Y254000D01*
X203200Y247650D01*
X228600Y247650D02*
X228600Y234950D01*
X222250Y228600D01*
X228600Y247650D02*
X222250Y254000D01*
X209550Y254000D01*
X44450Y228600D02*
X31750Y228600D01*
X25400Y234950D01*
X25400Y247650D01*
X31750Y254000D01*
X50800Y234950D02*
X44450Y228600D01*
X50800Y247650D02*
X44450Y254000D01*
X31750Y254000D01*
X666750Y330200D02*
X679450Y330200D01*
X666750Y330200D02*
X660400Y336550D01*
X660400Y349250D01*
X666750Y355600D01*
X660400Y336550D02*
X654050Y330200D01*
X641350Y330200D01*
X635000Y336550D01*
X635000Y349250D01*
X641350Y355600D01*
X654050Y355600D01*
X660400Y349250D01*
X685800Y349250D02*
X685800Y336550D01*
X679450Y330200D01*
X685800Y349250D02*
X679450Y355600D01*
X666750Y355600D01*
X635000Y336550D02*
X628650Y330200D01*
X615950Y330200D01*
X609600Y336550D01*
X609600Y349250D01*
X615950Y355600D01*
X628650Y355600D01*
X635000Y349250D01*
D10*
X624850Y219700D02*
X645150Y219700D01*
X645150Y262900D01*
X624850Y262900D01*
X624850Y219700D01*
X635000Y219700D02*
X635000Y213940D01*
X635000Y262900D02*
X635000Y268660D01*
D11*
X548640Y342900D02*
X467360Y342900D01*
X467360Y339801D01*
X467360Y241300D02*
X548640Y241300D01*
X548640Y244069D01*
X548640Y263931D02*
X548640Y269799D01*
X548640Y289001D02*
X548640Y295199D01*
X548640Y314401D02*
X548640Y320599D01*
X548640Y339801D02*
X548640Y342900D01*
X467360Y320599D02*
X467360Y314401D01*
X467360Y295199D02*
X467360Y289001D01*
X467360Y269799D02*
X467360Y263601D01*
X467360Y244399D02*
X467360Y241300D01*
X467360Y101600D02*
X548640Y101600D01*
X548640Y104699D01*
X548640Y203200D02*
X467360Y203200D01*
X467360Y200431D01*
X467360Y180569D02*
X467360Y174701D01*
X467360Y155499D02*
X467360Y149301D01*
X467360Y130099D02*
X467360Y123901D01*
X467360Y104699D02*
X467360Y101600D01*
X548640Y123901D02*
X548640Y130099D01*
X548640Y149301D02*
X548640Y155499D01*
X548640Y174701D02*
X548640Y180899D01*
X548640Y200101D02*
X548640Y203200D01*
X387570Y19330D02*
X221030Y19330D01*
X387570Y19330D02*
X387570Y95530D01*
X387570Y178870D02*
X221030Y178870D01*
X221030Y124870D01*
X221030Y95530D02*
X221030Y19330D01*
X387570Y124870D02*
X387570Y178870D01*
X397669Y99318D02*
X397645Y99198D01*
X397617Y99079D01*
X397585Y98961D01*
X397549Y98844D01*
X397510Y98728D01*
X397467Y98614D01*
X397420Y98500D01*
X397370Y98389D01*
X397316Y98279D01*
X397259Y98171D01*
X397198Y98064D01*
X397134Y97960D01*
X397067Y97858D01*
X396996Y97758D01*
X396922Y97660D01*
X396846Y97565D01*
X396766Y97473D01*
X396683Y97382D01*
X396597Y97295D01*
X396509Y97210D01*
X396418Y97129D01*
X396324Y97050D01*
X396228Y96974D01*
X396130Y96901D01*
X396029Y96832D01*
X395926Y96766D01*
X395821Y96703D01*
X395714Y96643D01*
X395605Y96587D01*
X395495Y96535D01*
X395382Y96486D01*
X395269Y96440D01*
X395154Y96399D01*
X395037Y96361D01*
X394920Y96326D01*
X394801Y96296D01*
X394682Y96269D01*
X394562Y96246D01*
X394441Y96227D01*
X394319Y96212D01*
X394197Y96201D01*
X394075Y96194D01*
X187570Y19330D02*
X21030Y19330D01*
X187570Y19330D02*
X187570Y95530D01*
X187570Y178870D02*
X21030Y178870D01*
X21030Y124870D01*
X21030Y95530D02*
X21030Y19330D01*
X187570Y124870D02*
X187570Y178870D01*
X197669Y99318D02*
X197645Y99198D01*
X197617Y99079D01*
X197585Y98961D01*
X197549Y98844D01*
X197510Y98728D01*
X197467Y98614D01*
X197420Y98500D01*
X197370Y98389D01*
X197316Y98279D01*
X197259Y98171D01*
X197198Y98064D01*
X197134Y97960D01*
X197067Y97858D01*
X196996Y97758D01*
X196922Y97660D01*
X196846Y97565D01*
X196766Y97473D01*
X196683Y97382D01*
X196597Y97295D01*
X196509Y97210D01*
X196418Y97129D01*
X196324Y97050D01*
X196228Y96974D01*
X196130Y96901D01*
X196029Y96832D01*
X195926Y96766D01*
X195821Y96703D01*
X195714Y96643D01*
X195605Y96587D01*
X195495Y96535D01*
X195382Y96486D01*
X195269Y96440D01*
X195154Y96399D01*
X195037Y96361D01*
X194920Y96326D01*
X194801Y96296D01*
X194682Y96269D01*
X194562Y96246D01*
X194441Y96227D01*
X194319Y96212D01*
X194197Y96201D01*
X194075Y96194D01*
X647631Y106680D02*
X673169Y106680D01*
X693420Y112882D02*
X693420Y193802D01*
X627380Y193802D01*
X627380Y112882D01*
X646282Y43180D02*
X674518Y43180D01*
X693420Y62082D02*
X693420Y90318D01*
X674518Y109220D02*
X646282Y109220D01*
X627380Y90318D02*
X627380Y62082D01*
X704088Y76200D02*
X704090Y76146D01*
X704096Y76092D01*
X704105Y76038D01*
X704119Y75985D01*
X704136Y75934D01*
X704157Y75883D01*
X704181Y75835D01*
X704209Y75788D01*
X704240Y75743D01*
X704274Y75701D01*
X704311Y75661D01*
X704351Y75624D01*
X704393Y75590D01*
X704438Y75559D01*
X704485Y75531D01*
X704533Y75507D01*
X704584Y75486D01*
X704635Y75469D01*
X704688Y75455D01*
X704742Y75446D01*
X704796Y75440D01*
X704850Y75438D01*
X704904Y75440D01*
X704958Y75446D01*
X705012Y75455D01*
X705065Y75469D01*
X705116Y75486D01*
X705167Y75507D01*
X705215Y75531D01*
X705262Y75559D01*
X705307Y75590D01*
X705349Y75624D01*
X705389Y75661D01*
X705426Y75701D01*
X705460Y75743D01*
X705491Y75788D01*
X705519Y75835D01*
X705543Y75883D01*
X705564Y75934D01*
X705581Y75985D01*
X705595Y76038D01*
X705604Y76092D01*
X705610Y76146D01*
X705612Y76200D01*
X705610Y76254D01*
X705604Y76308D01*
X705595Y76362D01*
X705581Y76415D01*
X705564Y76466D01*
X705543Y76517D01*
X705519Y76565D01*
X705491Y76612D01*
X705460Y76657D01*
X705426Y76699D01*
X705389Y76739D01*
X705349Y76776D01*
X705307Y76810D01*
X705262Y76841D01*
X705215Y76869D01*
X705167Y76893D01*
X705116Y76914D01*
X705065Y76931D01*
X705012Y76945D01*
X704958Y76954D01*
X704904Y76960D01*
X704850Y76962D01*
X704796Y76960D01*
X704742Y76954D01*
X704688Y76945D01*
X704635Y76931D01*
X704584Y76914D01*
X704533Y76893D01*
X704485Y76869D01*
X704438Y76841D01*
X704393Y76810D01*
X704351Y76776D01*
X704311Y76739D01*
X704274Y76699D01*
X704240Y76657D01*
X704209Y76612D01*
X704181Y76565D01*
X704157Y76517D01*
X704136Y76466D01*
X704119Y76415D01*
X704105Y76362D01*
X704096Y76308D01*
X704090Y76254D01*
X704088Y76200D01*
X91440Y309880D02*
X40640Y309880D01*
X91440Y309880D02*
X91749Y309876D01*
X92058Y309865D01*
X92367Y309846D01*
X92675Y309820D01*
X92983Y309786D01*
X93289Y309745D01*
X93595Y309696D01*
X93899Y309640D01*
X94201Y309576D01*
X94502Y309505D01*
X94802Y309427D01*
X95099Y309342D01*
X95394Y309249D01*
X95687Y309149D01*
X95977Y309042D01*
X96264Y308928D01*
X96549Y308807D01*
X96831Y308679D01*
X97109Y308545D01*
X97384Y308403D01*
X97656Y308255D01*
X97923Y308100D01*
X98187Y307939D01*
X98447Y307772D01*
X98703Y307598D01*
X98955Y307418D01*
X99202Y307232D01*
X99444Y307040D01*
X99682Y306842D01*
X99915Y306639D01*
X100143Y306429D01*
X100365Y306215D01*
X100583Y305995D01*
X100795Y305769D01*
X101001Y305539D01*
X101202Y305304D01*
X101397Y305064D01*
X101586Y304819D01*
X101769Y304570D01*
X101946Y304316D01*
X102116Y304058D01*
X102281Y303796D01*
X102439Y303530D01*
X102590Y303260D01*
X102735Y302987D01*
X102873Y302710D01*
X103004Y302430D01*
X103128Y302147D01*
X103246Y301861D01*
X103356Y301572D01*
X103460Y301281D01*
X103556Y300987D01*
X103645Y300691D01*
X103727Y300392D01*
X103802Y300092D01*
X103869Y299790D01*
X103929Y299487D01*
X103981Y299182D01*
X104026Y298876D01*
X104064Y298569D01*
X104094Y298261D01*
X104116Y297953D01*
X104132Y297644D01*
X104139Y297335D01*
X104139Y297025D01*
X104132Y296716D01*
X104116Y296407D01*
X104094Y296099D01*
X104064Y295791D01*
X104026Y295484D01*
X103981Y295178D01*
X103929Y294873D01*
X103869Y294570D01*
X103802Y294268D01*
X103727Y293968D01*
X103645Y293669D01*
X103556Y293373D01*
X103460Y293079D01*
X103356Y292788D01*
X103246Y292499D01*
X103128Y292213D01*
X103004Y291930D01*
X102873Y291650D01*
X102735Y291373D01*
X102590Y291100D01*
X102439Y290830D01*
X102281Y290564D01*
X102116Y290302D01*
X101946Y290044D01*
X101769Y289790D01*
X101586Y289541D01*
X101397Y289296D01*
X101202Y289056D01*
X101001Y288821D01*
X100795Y288591D01*
X100583Y288365D01*
X100365Y288145D01*
X100143Y287931D01*
X99915Y287721D01*
X99682Y287518D01*
X99444Y287320D01*
X99202Y287128D01*
X98955Y286942D01*
X98703Y286762D01*
X98447Y286588D01*
X98187Y286421D01*
X97923Y286260D01*
X97656Y286105D01*
X97384Y285957D01*
X97109Y285815D01*
X96831Y285681D01*
X96549Y285553D01*
X96264Y285432D01*
X95977Y285318D01*
X95687Y285211D01*
X95394Y285111D01*
X95099Y285018D01*
X94802Y284933D01*
X94502Y284855D01*
X94201Y284784D01*
X93899Y284720D01*
X93595Y284664D01*
X93289Y284615D01*
X92983Y284574D01*
X92675Y284540D01*
X92367Y284514D01*
X92058Y284495D01*
X91749Y284484D01*
X91440Y284480D01*
X40640Y284480D01*
X40331Y284484D01*
X40022Y284495D01*
X39713Y284514D01*
X39405Y284540D01*
X39097Y284574D01*
X38791Y284615D01*
X38485Y284664D01*
X38181Y284720D01*
X37879Y284784D01*
X37578Y284855D01*
X37278Y284933D01*
X36981Y285018D01*
X36686Y285111D01*
X36393Y285211D01*
X36103Y285318D01*
X35816Y285432D01*
X35531Y285553D01*
X35249Y285681D01*
X34971Y285815D01*
X34696Y285957D01*
X34424Y286105D01*
X34157Y286260D01*
X33893Y286421D01*
X33633Y286588D01*
X33377Y286762D01*
X33125Y286942D01*
X32878Y287128D01*
X32636Y287320D01*
X32398Y287518D01*
X32165Y287721D01*
X31937Y287931D01*
X31715Y288145D01*
X31497Y288365D01*
X31285Y288591D01*
X31079Y288821D01*
X30878Y289056D01*
X30683Y289296D01*
X30494Y289541D01*
X30311Y289790D01*
X30134Y290044D01*
X29964Y290302D01*
X29799Y290564D01*
X29641Y290830D01*
X29490Y291100D01*
X29345Y291373D01*
X29207Y291650D01*
X29076Y291930D01*
X28952Y292213D01*
X28834Y292499D01*
X28724Y292788D01*
X28620Y293079D01*
X28524Y293373D01*
X28435Y293669D01*
X28353Y293968D01*
X28278Y294268D01*
X28211Y294570D01*
X28151Y294873D01*
X28099Y295178D01*
X28054Y295484D01*
X28016Y295791D01*
X27986Y296099D01*
X27964Y296407D01*
X27948Y296716D01*
X27941Y297025D01*
X27941Y297335D01*
X27948Y297644D01*
X27964Y297953D01*
X27986Y298261D01*
X28016Y298569D01*
X28054Y298876D01*
X28099Y299182D01*
X28151Y299487D01*
X28211Y299790D01*
X28278Y300092D01*
X28353Y300392D01*
X28435Y300691D01*
X28524Y300987D01*
X28620Y301281D01*
X28724Y301572D01*
X28834Y301861D01*
X28952Y302147D01*
X29076Y302430D01*
X29207Y302710D01*
X29345Y302987D01*
X29490Y303260D01*
X29641Y303530D01*
X29799Y303796D01*
X29964Y304058D01*
X30134Y304316D01*
X30311Y304570D01*
X30494Y304819D01*
X30683Y305064D01*
X30878Y305304D01*
X31079Y305539D01*
X31285Y305769D01*
X31497Y305995D01*
X31715Y306215D01*
X31937Y306429D01*
X32165Y306639D01*
X32398Y306842D01*
X32636Y307040D01*
X32878Y307232D01*
X33125Y307418D01*
X33377Y307598D01*
X33633Y307772D01*
X33893Y307939D01*
X34157Y308100D01*
X34424Y308255D01*
X34696Y308403D01*
X34971Y308545D01*
X35249Y308679D01*
X35531Y308807D01*
X35816Y308928D01*
X36103Y309042D01*
X36393Y309149D01*
X36686Y309249D01*
X36981Y309342D01*
X37278Y309427D01*
X37578Y309505D01*
X37879Y309576D01*
X38181Y309640D01*
X38485Y309696D01*
X38791Y309745D01*
X39097Y309786D01*
X39405Y309820D01*
X39713Y309846D01*
X40022Y309865D01*
X40331Y309876D01*
X40640Y309880D01*
M02*
