G04 EAGLE Gerber RS-274X export*
G75*
%MOMM*%
%FSLAX34Y34*%
%LPD*%
%INSilkscreen Bottom*%
%IPPOS*%
%AMOC8*
5,1,8,0,0,1.08239X$1,22.5*%
G01*
G04 Define Apertures*
%ADD10C,0.508000*%
D10*
X390110Y100000D02*
X390112Y99878D01*
X390118Y99756D01*
X390128Y99634D01*
X390141Y99513D01*
X390159Y99392D01*
X390180Y99272D01*
X390206Y99152D01*
X390235Y99034D01*
X390267Y98916D01*
X390304Y98799D01*
X390344Y98684D01*
X390388Y98570D01*
X390436Y98458D01*
X390487Y98347D01*
X390542Y98238D01*
X390600Y98130D01*
X390662Y98025D01*
X390727Y97922D01*
X390795Y97820D01*
X390867Y97721D01*
X390941Y97625D01*
X391019Y97530D01*
X391100Y97439D01*
X391183Y97349D01*
X391269Y97263D01*
X391359Y97180D01*
X391450Y97099D01*
X391545Y97021D01*
X391641Y96947D01*
X391740Y96875D01*
X391842Y96807D01*
X391945Y96742D01*
X392050Y96680D01*
X392158Y96622D01*
X392267Y96567D01*
X392378Y96516D01*
X392490Y96468D01*
X392604Y96424D01*
X392719Y96384D01*
X392836Y96347D01*
X392954Y96315D01*
X393072Y96286D01*
X393192Y96260D01*
X393312Y96239D01*
X393433Y96221D01*
X393554Y96208D01*
X393676Y96198D01*
X393798Y96192D01*
X393920Y96190D01*
X394042Y96192D01*
X394164Y96198D01*
X394286Y96208D01*
X394407Y96221D01*
X394528Y96239D01*
X394648Y96260D01*
X394768Y96286D01*
X394886Y96315D01*
X395004Y96347D01*
X395121Y96384D01*
X395236Y96424D01*
X395350Y96468D01*
X395462Y96516D01*
X395573Y96567D01*
X395682Y96622D01*
X395790Y96680D01*
X395895Y96742D01*
X395998Y96807D01*
X396100Y96875D01*
X396199Y96947D01*
X396295Y97021D01*
X396390Y97099D01*
X396481Y97180D01*
X396571Y97263D01*
X396657Y97349D01*
X396740Y97439D01*
X396821Y97530D01*
X396899Y97625D01*
X396973Y97721D01*
X397045Y97820D01*
X397113Y97922D01*
X397178Y98025D01*
X397240Y98130D01*
X397298Y98238D01*
X397353Y98347D01*
X397404Y98458D01*
X397452Y98570D01*
X397496Y98684D01*
X397536Y98799D01*
X397573Y98916D01*
X397605Y99034D01*
X397634Y99152D01*
X397660Y99272D01*
X397681Y99392D01*
X397699Y99513D01*
X397712Y99634D01*
X397722Y99756D01*
X397728Y99878D01*
X397730Y100000D01*
X397728Y100122D01*
X397722Y100244D01*
X397712Y100366D01*
X397699Y100487D01*
X397681Y100608D01*
X397660Y100728D01*
X397634Y100848D01*
X397605Y100966D01*
X397573Y101084D01*
X397536Y101201D01*
X397496Y101316D01*
X397452Y101430D01*
X397404Y101542D01*
X397353Y101653D01*
X397298Y101762D01*
X397240Y101870D01*
X397178Y101975D01*
X397113Y102078D01*
X397045Y102180D01*
X396973Y102279D01*
X396899Y102375D01*
X396821Y102470D01*
X396740Y102561D01*
X396657Y102651D01*
X396571Y102737D01*
X396481Y102820D01*
X396390Y102901D01*
X396295Y102979D01*
X396199Y103053D01*
X396100Y103125D01*
X395998Y103193D01*
X395895Y103258D01*
X395790Y103320D01*
X395682Y103378D01*
X395573Y103433D01*
X395462Y103484D01*
X395350Y103532D01*
X395236Y103576D01*
X395121Y103616D01*
X395004Y103653D01*
X394886Y103685D01*
X394768Y103714D01*
X394648Y103740D01*
X394528Y103761D01*
X394407Y103779D01*
X394286Y103792D01*
X394164Y103802D01*
X394042Y103808D01*
X393920Y103810D01*
X393798Y103808D01*
X393676Y103802D01*
X393554Y103792D01*
X393433Y103779D01*
X393312Y103761D01*
X393192Y103740D01*
X393072Y103714D01*
X392954Y103685D01*
X392836Y103653D01*
X392719Y103616D01*
X392604Y103576D01*
X392490Y103532D01*
X392378Y103484D01*
X392267Y103433D01*
X392158Y103378D01*
X392050Y103320D01*
X391945Y103258D01*
X391842Y103193D01*
X391740Y103125D01*
X391641Y103053D01*
X391545Y102979D01*
X391450Y102901D01*
X391359Y102820D01*
X391269Y102737D01*
X391183Y102651D01*
X391100Y102561D01*
X391019Y102470D01*
X390941Y102375D01*
X390867Y102279D01*
X390795Y102180D01*
X390727Y102078D01*
X390662Y101975D01*
X390600Y101870D01*
X390542Y101762D01*
X390487Y101653D01*
X390436Y101542D01*
X390388Y101430D01*
X390344Y101316D01*
X390304Y101201D01*
X390267Y101084D01*
X390235Y100966D01*
X390206Y100848D01*
X390180Y100728D01*
X390159Y100608D01*
X390141Y100487D01*
X390128Y100366D01*
X390118Y100244D01*
X390112Y100122D01*
X390110Y100000D01*
X197730Y100000D02*
X197728Y99878D01*
X197722Y99756D01*
X197712Y99634D01*
X197699Y99513D01*
X197681Y99392D01*
X197660Y99272D01*
X197634Y99152D01*
X197605Y99034D01*
X197573Y98916D01*
X197536Y98799D01*
X197496Y98684D01*
X197452Y98570D01*
X197404Y98458D01*
X197353Y98347D01*
X197298Y98238D01*
X197240Y98130D01*
X197178Y98025D01*
X197113Y97922D01*
X197045Y97820D01*
X196973Y97721D01*
X196899Y97625D01*
X196821Y97530D01*
X196740Y97439D01*
X196657Y97349D01*
X196571Y97263D01*
X196481Y97180D01*
X196390Y97099D01*
X196295Y97021D01*
X196199Y96947D01*
X196100Y96875D01*
X195998Y96807D01*
X195895Y96742D01*
X195790Y96680D01*
X195682Y96622D01*
X195573Y96567D01*
X195462Y96516D01*
X195350Y96468D01*
X195236Y96424D01*
X195121Y96384D01*
X195004Y96347D01*
X194886Y96315D01*
X194768Y96286D01*
X194648Y96260D01*
X194528Y96239D01*
X194407Y96221D01*
X194286Y96208D01*
X194164Y96198D01*
X194042Y96192D01*
X193920Y96190D01*
X193798Y96192D01*
X193676Y96198D01*
X193554Y96208D01*
X193433Y96221D01*
X193312Y96239D01*
X193192Y96260D01*
X193072Y96286D01*
X192954Y96315D01*
X192836Y96347D01*
X192719Y96384D01*
X192604Y96424D01*
X192490Y96468D01*
X192378Y96516D01*
X192267Y96567D01*
X192158Y96622D01*
X192050Y96680D01*
X191945Y96742D01*
X191842Y96807D01*
X191740Y96875D01*
X191641Y96947D01*
X191545Y97021D01*
X191450Y97099D01*
X191359Y97180D01*
X191269Y97263D01*
X191183Y97349D01*
X191100Y97439D01*
X191019Y97530D01*
X190941Y97625D01*
X190867Y97721D01*
X190795Y97820D01*
X190727Y97922D01*
X190662Y98025D01*
X190600Y98130D01*
X190542Y98238D01*
X190487Y98347D01*
X190436Y98458D01*
X190388Y98570D01*
X190344Y98684D01*
X190304Y98799D01*
X190267Y98916D01*
X190235Y99034D01*
X190206Y99152D01*
X190180Y99272D01*
X190159Y99392D01*
X190141Y99513D01*
X190128Y99634D01*
X190118Y99756D01*
X190112Y99878D01*
X190110Y100000D01*
X190112Y100122D01*
X190118Y100244D01*
X190128Y100366D01*
X190141Y100487D01*
X190159Y100608D01*
X190180Y100728D01*
X190206Y100848D01*
X190235Y100966D01*
X190267Y101084D01*
X190304Y101201D01*
X190344Y101316D01*
X190388Y101430D01*
X190436Y101542D01*
X190487Y101653D01*
X190542Y101762D01*
X190600Y101870D01*
X190662Y101975D01*
X190727Y102078D01*
X190795Y102180D01*
X190867Y102279D01*
X190941Y102375D01*
X191019Y102470D01*
X191100Y102561D01*
X191183Y102651D01*
X191269Y102737D01*
X191359Y102820D01*
X191450Y102901D01*
X191545Y102979D01*
X191641Y103053D01*
X191740Y103125D01*
X191842Y103193D01*
X191945Y103258D01*
X192050Y103320D01*
X192158Y103378D01*
X192267Y103433D01*
X192378Y103484D01*
X192490Y103532D01*
X192604Y103576D01*
X192719Y103616D01*
X192836Y103653D01*
X192954Y103685D01*
X193072Y103714D01*
X193192Y103740D01*
X193312Y103761D01*
X193433Y103779D01*
X193554Y103792D01*
X193676Y103802D01*
X193798Y103808D01*
X193920Y103810D01*
X194042Y103808D01*
X194164Y103802D01*
X194286Y103792D01*
X194407Y103779D01*
X194528Y103761D01*
X194648Y103740D01*
X194768Y103714D01*
X194886Y103685D01*
X195004Y103653D01*
X195121Y103616D01*
X195236Y103576D01*
X195350Y103532D01*
X195462Y103484D01*
X195573Y103433D01*
X195682Y103378D01*
X195790Y103320D01*
X195895Y103258D01*
X195998Y103193D01*
X196100Y103125D01*
X196199Y103053D01*
X196295Y102979D01*
X196390Y102901D01*
X196481Y102820D01*
X196571Y102737D01*
X196657Y102651D01*
X196740Y102561D01*
X196821Y102470D01*
X196899Y102375D01*
X196973Y102279D01*
X197045Y102180D01*
X197113Y102078D01*
X197178Y101975D01*
X197240Y101870D01*
X197298Y101762D01*
X197353Y101653D01*
X197404Y101542D01*
X197452Y101430D01*
X197496Y101316D01*
X197536Y101201D01*
X197573Y101084D01*
X197605Y100966D01*
X197634Y100848D01*
X197660Y100728D01*
X197681Y100608D01*
X197699Y100487D01*
X197712Y100366D01*
X197722Y100244D01*
X197728Y100122D01*
X197730Y100000D01*
M02*
