G04 EAGLE Gerber RS-274X export*
G75*
%MOMM*%
%FSLAX34Y34*%
%LPD*%
%INSoldermask Top*%
%IPPOS*%
%AMOC8*
5,1,8,0,0,1.08239X$1,22.5*%
G01*
G04 Define Apertures*
%ADD10C,1.603200*%
%ADD11C,1.727200*%
%ADD12C,1.463200*%
%ADD13C,1.511200*%
%ADD14C,1.511200*%
%ADD15R,1.524000X1.524000*%
%ADD16C,1.524000*%
%ADD17R,1.311200X1.311200*%
%ADD18C,1.600200*%
%ADD19C,2.908300*%
%ADD20C,4.419600*%
%ADD21C,2.527300*%
%ADD22C,2.082800*%
D10*
X93540Y383540D03*
X38540Y383540D03*
D11*
X215900Y248920D02*
X215900Y233680D01*
X190500Y233680D02*
X190500Y248920D01*
X165100Y248920D02*
X165100Y233680D01*
X139700Y233680D02*
X139700Y248920D01*
X114300Y248920D02*
X114300Y233680D01*
X88900Y233680D02*
X88900Y248920D01*
X63500Y248920D02*
X63500Y233680D01*
X38100Y233680D02*
X38100Y248920D01*
X673100Y335280D02*
X673100Y350520D01*
X647700Y350520D02*
X647700Y335280D01*
X622300Y335280D02*
X622300Y350520D01*
D12*
X635000Y205100D03*
X635000Y277500D03*
D13*
X438340Y393700D02*
X425260Y393700D01*
X425260Y368300D02*
X438340Y368300D01*
X438340Y342900D02*
X425260Y342900D01*
X425260Y317500D02*
X438340Y317500D01*
X438340Y292100D02*
X425260Y292100D01*
X425260Y266700D02*
X438340Y266700D01*
X438340Y241300D02*
X425260Y241300D01*
X425260Y215900D02*
X438340Y215900D01*
X438340Y190500D02*
X425260Y190500D01*
X425260Y165100D02*
X438340Y165100D01*
X438340Y139700D02*
X425260Y139700D01*
X425260Y114300D02*
X438340Y114300D01*
X577660Y393700D02*
X590740Y393700D01*
X590740Y368300D02*
X577660Y368300D01*
X577660Y342900D02*
X590740Y342900D01*
X590740Y190500D02*
X577660Y190500D01*
X577660Y165100D02*
X590740Y165100D01*
X590740Y139700D02*
X577660Y139700D01*
X577660Y114300D02*
X590740Y114300D01*
X590740Y38100D02*
X577660Y38100D01*
X438340Y38100D02*
X425260Y38100D01*
X425260Y63500D02*
X438340Y63500D01*
X438340Y88900D02*
X425260Y88900D01*
X577660Y63500D02*
X590740Y63500D01*
X590740Y88900D02*
X577660Y88900D01*
X577660Y317500D02*
X590740Y317500D01*
D14*
X533400Y381000D03*
X508000Y381000D03*
X482600Y381000D03*
D13*
X577660Y215900D02*
X590740Y215900D01*
X590740Y241300D02*
X577660Y241300D01*
X577660Y266700D02*
X590740Y266700D01*
X590740Y292100D02*
X577660Y292100D01*
D14*
X533400Y406400D03*
X508000Y406400D03*
X482600Y406400D03*
D15*
X546100Y254000D03*
D16*
X546100Y279400D03*
X546100Y304800D03*
X546100Y330200D03*
X469900Y330200D03*
X469900Y304800D03*
X469900Y279400D03*
X469900Y254000D03*
D15*
X469900Y190500D03*
D16*
X469900Y165100D03*
X469900Y139700D03*
X469900Y114300D03*
X546100Y114300D03*
X546100Y139700D03*
X546100Y165100D03*
X546100Y190500D03*
D17*
X12700Y469900D03*
X38100Y469900D03*
X63500Y469900D03*
X88900Y469900D03*
X114300Y469900D03*
X139700Y469900D03*
X165100Y469900D03*
X190500Y469900D03*
X215900Y469900D03*
X241300Y469900D03*
X266700Y469900D03*
X292100Y469900D03*
X317500Y469900D03*
X342900Y469900D03*
X368300Y469900D03*
X393700Y469900D03*
X419100Y469900D03*
X444500Y469900D03*
X469900Y469900D03*
X495300Y469900D03*
X520700Y469900D03*
X546100Y469900D03*
X571500Y469900D03*
X596900Y469900D03*
X622300Y469900D03*
X647700Y469900D03*
X673100Y469900D03*
X698500Y469900D03*
X12700Y546100D03*
X38100Y546100D03*
X63500Y546100D03*
X88900Y546100D03*
X114300Y546100D03*
X139700Y546100D03*
X165100Y546100D03*
X190500Y546100D03*
X215900Y546100D03*
X241300Y546100D03*
X266700Y546100D03*
X292100Y546100D03*
X317500Y546100D03*
X342900Y546100D03*
X368300Y546100D03*
X393700Y546100D03*
X419100Y546100D03*
X444500Y546100D03*
X469900Y546100D03*
X495300Y546100D03*
X520700Y546100D03*
X546100Y546100D03*
X571500Y546100D03*
X596900Y546100D03*
X622300Y546100D03*
X647700Y546100D03*
X673100Y546100D03*
X698500Y546100D03*
X12700Y520700D03*
X38100Y520700D03*
X63500Y520700D03*
X88900Y520700D03*
X114300Y520700D03*
X139700Y520700D03*
X165100Y520700D03*
X190500Y520700D03*
X215900Y520700D03*
X241300Y520700D03*
X266700Y520700D03*
X292100Y520700D03*
X317500Y520700D03*
X342900Y520700D03*
X368300Y520700D03*
X393700Y520700D03*
X419100Y520700D03*
X444500Y520700D03*
X469900Y520700D03*
X495300Y520700D03*
X520700Y520700D03*
X546100Y520700D03*
X571500Y520700D03*
X596900Y520700D03*
X622300Y520700D03*
X647700Y520700D03*
X673100Y520700D03*
X698500Y520700D03*
X12700Y495300D03*
X38100Y495300D03*
X63500Y495300D03*
X88900Y495300D03*
X114300Y495300D03*
X139700Y495300D03*
X165100Y495300D03*
X190500Y495300D03*
X215900Y495300D03*
X241300Y495300D03*
X266700Y495300D03*
X292100Y495300D03*
X317500Y495300D03*
X342900Y495300D03*
X368300Y495300D03*
X393700Y495300D03*
X419100Y495300D03*
X444500Y495300D03*
X469900Y495300D03*
X495300Y495300D03*
X520700Y495300D03*
X546100Y495300D03*
X571500Y495300D03*
X596900Y495300D03*
X622300Y495300D03*
X647700Y495300D03*
X673100Y495300D03*
X698500Y495300D03*
X12700Y571500D03*
X38100Y571500D03*
X63500Y571500D03*
X88900Y571500D03*
X114300Y571500D03*
X139700Y571500D03*
X165100Y571500D03*
X190500Y571500D03*
X215900Y571500D03*
X241300Y571500D03*
X266700Y571500D03*
X292100Y571500D03*
X317500Y571500D03*
X342900Y571500D03*
X368300Y571500D03*
X393700Y571500D03*
X419100Y571500D03*
X444500Y571500D03*
X469900Y571500D03*
X495300Y571500D03*
X520700Y571500D03*
X546100Y571500D03*
X571500Y571500D03*
X596900Y571500D03*
X622300Y571500D03*
X647700Y571500D03*
X673100Y571500D03*
X698500Y571500D03*
X12700Y596900D03*
X38100Y596900D03*
X63500Y596900D03*
X88900Y596900D03*
X114300Y596900D03*
X139700Y596900D03*
X165100Y596900D03*
X190500Y596900D03*
X215900Y596900D03*
X241300Y596900D03*
X266700Y596900D03*
X292100Y596900D03*
X317500Y596900D03*
X342900Y596900D03*
X368300Y596900D03*
X393700Y596900D03*
X419100Y596900D03*
X444500Y596900D03*
X469900Y596900D03*
X495300Y596900D03*
X520700Y596900D03*
X546100Y596900D03*
X571500Y596900D03*
X596900Y596900D03*
X622300Y596900D03*
X647700Y596900D03*
X673100Y596900D03*
X698500Y596900D03*
X12700Y622300D03*
X38100Y622300D03*
X63500Y622300D03*
X88900Y622300D03*
X114300Y622300D03*
X139700Y622300D03*
X165100Y622300D03*
X190500Y622300D03*
X215900Y622300D03*
X241300Y622300D03*
X266700Y622300D03*
X292100Y622300D03*
X317500Y622300D03*
X342900Y622300D03*
X368300Y622300D03*
X393700Y622300D03*
X419100Y622300D03*
X444500Y622300D03*
X469900Y622300D03*
X495300Y622300D03*
X520700Y622300D03*
X546100Y622300D03*
X571500Y622300D03*
X596900Y622300D03*
X622300Y622300D03*
X647700Y622300D03*
X673100Y622300D03*
X698500Y622300D03*
X12700Y647700D03*
X38100Y647700D03*
X63500Y647700D03*
X88900Y647700D03*
X114300Y647700D03*
X139700Y647700D03*
X165100Y647700D03*
X190500Y647700D03*
X215900Y647700D03*
X241300Y647700D03*
X266700Y647700D03*
X292100Y647700D03*
X317500Y647700D03*
X342900Y647700D03*
X368300Y647700D03*
X393700Y647700D03*
X419100Y647700D03*
X444500Y647700D03*
X469900Y647700D03*
X495300Y647700D03*
X520700Y647700D03*
X546100Y647700D03*
X571500Y647700D03*
X596900Y647700D03*
X622300Y647700D03*
X647700Y647700D03*
X673100Y647700D03*
X698500Y647700D03*
X12700Y673100D03*
X38100Y673100D03*
X63500Y673100D03*
X88900Y673100D03*
X114300Y673100D03*
X139700Y673100D03*
X165100Y673100D03*
X190500Y673100D03*
X215900Y673100D03*
X241300Y673100D03*
X266700Y673100D03*
X292100Y673100D03*
X317500Y673100D03*
X342900Y673100D03*
X368300Y673100D03*
X393700Y673100D03*
X419100Y673100D03*
X444500Y673100D03*
X469900Y673100D03*
X495300Y673100D03*
X520700Y673100D03*
X546100Y673100D03*
X571500Y673100D03*
X596900Y673100D03*
X622300Y673100D03*
X647700Y673100D03*
X673100Y673100D03*
X698500Y673100D03*
X12700Y698500D03*
X38100Y698500D03*
X63500Y698500D03*
X88900Y698500D03*
X114300Y698500D03*
X139700Y698500D03*
X165100Y698500D03*
X190500Y698500D03*
X215900Y698500D03*
X241300Y698500D03*
X266700Y698500D03*
X292100Y698500D03*
X317500Y698500D03*
X342900Y698500D03*
X368300Y698500D03*
X393700Y698500D03*
X419100Y698500D03*
X444500Y698500D03*
X469900Y698500D03*
X495300Y698500D03*
X520700Y698500D03*
X546100Y698500D03*
X571500Y698500D03*
X596900Y698500D03*
X622300Y698500D03*
X647700Y698500D03*
X673100Y698500D03*
X698500Y698500D03*
D18*
X340000Y100000D03*
X329800Y117800D03*
X319600Y100000D03*
X309400Y117800D03*
X299200Y100000D03*
X289000Y117800D03*
X278800Y100000D03*
X268600Y117800D03*
D19*
X223550Y110200D03*
X385050Y110200D03*
D20*
X240800Y74600D03*
X367800Y74600D03*
D18*
X140000Y100000D03*
X129800Y117800D03*
X119600Y100000D03*
X109400Y117800D03*
X99200Y100000D03*
X89000Y117800D03*
X78800Y100000D03*
X68600Y117800D03*
D19*
X23550Y110200D03*
X185050Y110200D03*
D20*
X40800Y74600D03*
X167800Y74600D03*
D21*
X660400Y76200D03*
X635000Y101600D03*
X635000Y50800D03*
X685800Y50800D03*
X685800Y101600D03*
D22*
X53340Y297180D03*
X78740Y297180D03*
M02*
