M48
;GenerationSoftware,Autodesk,EAGLE,9.7.0*%
;CreationDate,2025-08-05T13:16:55Z*%
FMAT,2
ICI,OFF
METRIC,TZ,000.000
T10C0.350
T9C0.600
T8C0.660
T7C0.800
T6C0.813
T5C0.889
T4C1.016
T3C1.549
T2C1.803
T1C3.200
%
G90
M71
T1
X16780Y7460
X4080Y7460
X36780Y7460
X24080Y7460
T2
X18505Y11020
X2355Y11020
X22355Y11020
X38505Y11020
T3
X66040Y7620
X68580Y10160
X68580Y5080
X63500Y5080
X63500Y10160
T4
X11430Y24130
X62230Y34290
X5334Y29718
X7874Y29718
X21590Y24130
X19050Y24130
X16510Y24130
X13970Y24130
X8890Y24130
X6350Y24130
X3810Y24130
X67310Y34290
X64770Y34290
T5
X30940Y11780
X31960Y10000
X32980Y11780
X34000Y10000
X7880Y10000
X28900Y11780
X9920Y10000
X10940Y11780
X11960Y10000
X14000Y10000
X12980Y11780
X8900Y11780
X26860Y11780
X27880Y10000
X6860Y11780
X29920Y10000
T6
X46990Y16510
X46990Y13970
X46990Y11430
X54610Y11430
X54610Y13970
X54610Y16510
X54610Y19050
X46990Y33020
X54610Y25400
X54610Y27940
X54610Y30480
X54610Y33020
X46990Y30480
X46990Y27940
X46990Y25400
X46990Y19050
T7
X43180Y24130
X9354Y38354
X3854Y38354
X58420Y3810
X48260Y38100
X43180Y39370
X43180Y36830
X43180Y3810
X43180Y6350
X43180Y8890
X58420Y6350
X58420Y8890
X58420Y31750
X53340Y38100
X50800Y38100
X43180Y34290
X58420Y21590
X58420Y24130
X58420Y26670
X58420Y29210
X53340Y40640
X50800Y40640
X48260Y40640
X43180Y26670
X43180Y31750
X43180Y21590
X43180Y19050
X43180Y29210
X43180Y16510
X43180Y13970
X43180Y11430
X58420Y39370
X58420Y36830
X58420Y34290
X58420Y19050
X58420Y16510
X58420Y13970
X58420Y11430
T8
X63500Y20510
X63500Y27750
T9
X1270Y46990
X3810Y46990
X6350Y46990
X8890Y46990
X11430Y46990
X16510Y46990
X19050Y46990
X21590Y46990
X24130Y46990
X26670Y46990
X29210Y46990
X31750Y46990
X34290Y46990
X36830Y46990
X39370Y46990
X41910Y46990
X44450Y46990
X46990Y46990
X49530Y46990
X52070Y46990
X54610Y46990
X57150Y46990
X59690Y46990
X62230Y46990
X64770Y46990
X67310Y46990
X69850Y46990
X1270Y54610
X3810Y54610
X6350Y54610
X8890Y54610
X11430Y54610
X13970Y54610
X16510Y54610
X19050Y54610
X21590Y54610
X24130Y54610
X26670Y54610
X29210Y54610
X31750Y54610
X34290Y54610
X36830Y54610
X39370Y54610
X41910Y54610
X44450Y54610
X46990Y54610
X49530Y54610
X52070Y54610
X54610Y54610
X57150Y54610
X59690Y54610
X62230Y54610
X64770Y54610
X67310Y54610
X69850Y54610
X1270Y52070
X3810Y52070
X6350Y52070
X8890Y52070
X11430Y52070
X13970Y52070
X16510Y52070
X19050Y52070
X21590Y52070
X24130Y52070
X26670Y52070
X29210Y52070
X31750Y52070
X34290Y52070
X36830Y52070
X39370Y52070
X41910Y52070
X44450Y52070
X46990Y52070
X49530Y52070
X52070Y52070
X54610Y52070
X57150Y52070
X59690Y52070
X62230Y52070
X64770Y52070
X67310Y52070
X69850Y52070
X1270Y49530
X3810Y49530
X6350Y49530
X8890Y49530
X11430Y49530
X13970Y49530
X16510Y49530
X19050Y49530
X21590Y49530
X24130Y49530
X26670Y49530
X29210Y49530
X31750Y49530
X34290Y49530
X36830Y49530
X39370Y49530
X41910Y49530
X44450Y49530
X46990Y49530
X49530Y49530
X52070Y49530
X54610Y49530
X57150Y49530
X59690Y49530
X62230Y49530
X64770Y49530
X67310Y49530
X69850Y49530
X1270Y57150
X3810Y57150
X6350Y57150
X8890Y57150
X11430Y57150
X13970Y57150
X16510Y57150
X19050Y57150
X21590Y57150
X24130Y57150
X26670Y57150
X29210Y57150
X31750Y57150
X34290Y57150
X36830Y57150
X39370Y57150
X41910Y57150
X44450Y57150
X46990Y57150
X49530Y57150
X52070Y57150
X54610Y57150
X57150Y57150
X59690Y57150
X62230Y57150
X64770Y57150
X67310Y57150
X69850Y57150
X1270Y59690
X3810Y59690
X6350Y59690
X8890Y59690
X11430Y59690
X13970Y59690
X16510Y59690
X19050Y59690
X21590Y59690
X24130Y59690
X26670Y59690
X29210Y59690
X31750Y59690
X34290Y59690
X36830Y59690
X39370Y59690
X41910Y59690
X44450Y59690
X46990Y59690
X49530Y59690
X52070Y59690
X54610Y59690
X57150Y59690
X59690Y59690
X62230Y59690
X64770Y59690
X67310Y59690
X69850Y59690
X1270Y62230
X3810Y62230
X6350Y62230
X8890Y62230
X11430Y62230
X13970Y62230
X16510Y62230
X19050Y62230
X21590Y62230
X24130Y62230
X26670Y62230
X29210Y62230
X31750Y62230
X34290Y62230
X36830Y62230
X39370Y62230
X41910Y62230
X44450Y62230
X46990Y62230
X49530Y62230
X52070Y62230
X54610Y62230
X57150Y62230
X59690Y62230
X62230Y62230
X64770Y62230
X67310Y62230
X69850Y62230
X1270Y64770
X3810Y64770
X6350Y64770
X8890Y64770
X11430Y64770
X13970Y64770
X16510Y64770
X19050Y64770
X21590Y64770
X24130Y64770
X26670Y64770
X29210Y64770
X34290Y64770
X36830Y64770
X39370Y64770
X41910Y64770
X44450Y64770
X46990Y64770
X49530Y64770
X52070Y64770
X54610Y64770
X57150Y64770
X59690Y64770
X62230Y64770
X64770Y64770
X67310Y64770
X69850Y64770
X1270Y67310
X3810Y67310
X6350Y67310
X8890Y67310
X11430Y67310
X13970Y67310
X16510Y67310
X19050Y67310
X21590Y67310
X24130Y67310
X26670Y67310
X29210Y67310
X31750Y67310
X34290Y67310
X36830Y67310
X39370Y67310
X41910Y67310
X44450Y67310
X46990Y67310
X49530Y67310
X52070Y67310
X54610Y67310
X57150Y67310
X59690Y67310
X62230Y67310
X64770Y67310
X67310Y67310
X69850Y67310
X1270Y69850
X3810Y69850
X6350Y69850
X8890Y69850
X11430Y69850
X13970Y69850
X16510Y69850
X31750Y64770
X21590Y69850
X24130Y69850
X26670Y69850
X29210Y69850
X31750Y69850
X34290Y69850
X36830Y69850
X39370Y69850
X41910Y69850
X44450Y69850
X46990Y69850
X49530Y69850
X52070Y69850
X54610Y69850
X57150Y69850
X59690Y69850
X62230Y69850
X64770Y69850
X67310Y69850
X69850Y69850
X13970Y46990
X19050Y69850
T10
X51000Y33000
X50500Y26000
X48500Y46000
X53000Y30000
X46500Y43000
X46500Y22000
X36500Y21500
X61000Y31500
X33500Y40000
X35500Y14500
X59500Y28000
X33000Y35500
X66000Y21000
X68500Y29000
X32500Y28000
X22500Y35500
X52500Y19000
X50500Y17000
X34500Y21000
X27500Y25500
X21500Y17500
X51500Y24000
X45500Y44000
X48500Y14000
X52000Y45000
X39000Y33000
X47000Y39000
X46500Y23000
X33000Y15500
X19050Y19050
M30